<?xml version="1.0" encoding="UTF-8" standalone="no"?>
<svg
   xmlns:dc="http://purl.org/dc/elements/1.1/"
   xmlns:cc="http://creativecommons.org/ns#"
   xmlns:rdf="http://www.w3.org/1999/02/22-rdf-syntax-ns#"
   xmlns:svg="http://www.w3.org/2000/svg"
   xmlns="http://www.w3.org/2000/svg"
   xmlns:sodipodi="http://sodipodi.sourceforge.net/DTD/sodipodi-0.dtd"
   xmlns:inkscape="http://www.inkscape.org/namespaces/inkscape"
   viewBox="0 0 416.78162 453.52232"
   id="svg2"
   version="1.1"
   inkscape:version="0.48.4 r"
   width="100%"
   height="100%"
   sodipodi:docname="die.svg">
  <metadata
     id="metadata28">
    <rdf:RDF>
      <cc:Work
         rdf:about="">
        <dc:format>image/svg+xml</dc:format>
        <dc:type
           rdf:resource="http://purl.org/dc/dcmitype/StillImage" />
      </cc:Work>
    </rdf:RDF>
  </metadata>
  <defs
     id="defs26" />
  <sodipodi:namedview
     pagecolor="#ffffff"
     bordercolor="#666666"
     borderopacity="1"
     objecttolerance="10"
     gridtolerance="10"
     guidetolerance="10"
     inkscape:pageopacity="0"
     inkscape:pageshadow="2"
     inkscape:window-width="2498"
     inkscape:window-height="1417"
     id="namedview24"
     showgrid="false"
     inkscape:zoom="1.84375"
     inkscape:cx="14.08281"
     inkscape:cy="129.53386"
     inkscape:window-x="54"
     inkscape:window-y="-8"
     inkscape:window-maximized="1"
     inkscape:current-layer="svg2"
     fit-margin-top="0"
     fit-margin-left="0"
     fit-margin-right="0"
     fit-margin-bottom="0" />
  <path
     d="M 29.371244,104.08349 182.12423,15.722132 a 36.724722,21.24375 0 0 1 51.9366,0 l 152.75298,88.361358 a 36.724722,21.24375 0 0 1 0,30.0432 l -152.75298,88.36136 a 36.724722,21.24375 0 0 1 -51.9366,0 L 29.371244,134.12669 a 36.724722,21.24375 0 0 1 0,-30.0432"
     id="path6"
     style="fill:none;stroke:#000000;stroke-width:18.99996376"
     inkscape:connector-curvature="0" />
  <path
     d="m 234.37012,222.78219 146.93213,-84.84762 a 21.211627,36.743151 29.997399 0 1 25.9794,14.9979 v 157.6982 a 21.211627,36.743151 29.997399 0 1 -25.9794,45.0021 l -146.93213,84.84762 a 21.211627,36.743151 29.997399 0 1 -25.9794,-14.9979 v -157.6982 a 21.211627,36.743151 29.997399 0 1 25.9794,-45.0021"
     id="path8"
     style="fill:none;stroke:#000000;stroke-width:18.99993896"
     inkscape:connector-curvature="0" />
  <path
     d="m 386.33328,305.59924 a 18.007842,31.236479 31.905511 1 1 -44.9999,25.98043 18.007842,31.236479 31.905511 1 1 44.9999,-25.98043 z"
     id="path10"
     inkscape:connector-curvature="0" />
  <path
     d="m 274.33328,247.55217 a 18.007842,31.236479 31.905511 1 1 -44.9999,25.98043 18.007842,31.236479 31.905511 1 1 44.9999,-25.98043 z"
     id="path12"
     inkscape:connector-curvature="0" />
  <path
     d="M 182.41149,222.78029 35.479369,137.93266 a 36.743151,21.211627 60.002601 0 0 -25.9793995,14.9979 v 157.6982 a 36.743151,21.211627 60.002601 0 0 25.9793995,45.0021 l 146.932121,84.84763 a 36.743151,21.211627 60.002601 0 0 25.9794,-14.9979 v -157.6982 a 36.743151,21.211627 60.002601 0 0 -25.9794,-45.0021"
     id="path14"
     inkscape:connector-curvature="0"
     style="fill:none;stroke:#000000;stroke-width:18.99993896" />
  <path
     d="M 86.446699,276.21895 A 31.236479,18.007842 58.094489 1 0 131.4466,302.19938 31.236479,18.007842 58.094489 1 0 86.446699,276.21895 z"
     id="path16"
     inkscape:connector-curvature="0" />
  <path
     d="M 30.450129,182.88933 A 31.236479,18.007842 58.094489 1 0 75.450032,208.86976 31.236479,18.007842 58.094489 1 0 30.450129,182.88933 z"
     id="path18"
     inkscape:connector-curvature="0" />
  <path
     d="m 142.45013,370.26226 a 31.236479,18.007842 58.094489 1 0 44.9999,25.98043 31.236479,18.007842 58.094489 1 0 -44.9999,-25.98043 z"
     id="path20"
     inkscape:connector-curvature="0" />
  <path
     d="m 185.95885,105.08626 a 31.952997,18.959261 0 0 1 45.18853,26.81235 31.952997,18.959261 0 0 1 -45.18853,-26.81235 z"
     id="path22"
     inkscape:connector-curvature="0" />
</svg>
