<?xml version="1.0" encoding="UTF-8" standalone="no"?>
<svg
   xmlns:dc="http://purl.org/dc/elements/1.1/"
   xmlns:cc="http://creativecommons.org/ns#"
   xmlns:rdf="http://www.w3.org/1999/02/22-rdf-syntax-ns#"
   xmlns:svg="http://www.w3.org/2000/svg"
   xmlns="http://www.w3.org/2000/svg"
   xmlns:sodipodi="http://sodipodi.sourceforge.net/DTD/sodipodi-0.dtd"
   xmlns:inkscape="http://www.inkscape.org/namespaces/inkscape"
   height="100%"
   width="100%"
   preserveAspectRatio="xMinYMin meet"
   viewBox="0 0 1016.0798 1146.0798"
   id="svg2"
   version="1.1"
   inkscape:version="0.48.4 r"
   sodipodi:docname="globe.svg">
  <metadata
     id="metadata10">
    <rdf:RDF>
      <cc:Work
         rdf:about="">
        <dc:format>image/svg+xml</dc:format>
        <dc:type
           rdf:resource="http://purl.org/dc/dcmitype/StillImage" />
      </cc:Work>
    </rdf:RDF>
  </metadata>
  <defs
     id="defs8" />
  <sodipodi:namedview
     pagecolor="#ffffff"
     bordercolor="#666666"
     borderopacity="1"
     objecttolerance="10"
     gridtolerance="10"
     guidetolerance="10"
     inkscape:pageopacity="0"
     inkscape:pageshadow="2"
     inkscape:window-width="2498"
     inkscape:window-height="1417"
     id="namedview6"
     showgrid="false"
     fit-margin-top="130"
     fit-margin-left="0"
     fit-margin-right="130"
     fit-margin-bottom="130"
     inkscape:zoom="0.3337544"
     inkscape:cx="631.715"
     inkscape:cy="854.36614"
     inkscape:window-x="54"
     inkscape:window-y="-8"
     inkscape:window-maximized="1"
     inkscape:current-layer="svg2" />
  <path
     d="M 0,573.03991 C 0,450.74243 49.877292,339.7164 129.79685,259.79685 209.7164,179.87729 330.01659,130 443.03991,130 c 113.02332,0 233.32351,49.87729 313.24306,129.79685 79.91956,79.91955 129.79685,200.21974 129.79685,313.24306 0,113.02332 -49.87729,233.32351 -129.79685,313.24306 -79.91955,79.91956 -190.94558,129.79683 -313.24306,129.79683 -122.29748,0 -233.32351,-49.87727 -313.24306,-129.79683 C 49.877292,806.36342 0,695.33739 0,573.03991 z m 61.228912,39.06 c 3.25533,36.456 12.044,72.261 26.366,107.415 19.529998,48.174 47.522998,90.489 83.978998,126.945 36.456,36.456 78.12,64.449 124.992,83.979 1.302,-11.718 3.255,-34.17767 5.859,-67.379 2.604,-33.20133 5.208,-58.916 7.812,-77.144 -2.604,-10.416 -10.09067,-27.342 -22.46,-50.778 -12.36933,-23.436 -19.20467,-42.315 -20.506,-56.637 0,-13.02 0.32567,-22.785 0.977,-29.295 0.65133,-6.51 0.977,-11.718 0.977,-15.624 -2.604,-1.302 -5.859,-3.906 -9.765,-7.812 l -7.812,-7.812 c -5.208,-5.208 -9.114,-8.463 -11.718,-9.765 -7.812,-2.604 -19.20467,-6.51 -34.178,-11.718 -14.97333,-5.208 -26.04033,-9.114 -33.201,-11.718 -7.16067,-2.604 -16.60033,-6.51 -28.319,-11.718 -11.71867,-5.208 -21.809,-11.067 -30.271,-17.577 -8.462,-6.51 -17.250668,-13.99667 -26.365998,-22.46 -9.11533,-8.46333 -16.92733,-17.903 -23.436,-28.319 -5.208,35.154 -6.18433,70.959 -2.929,107.415 z m 141.592998,-339.822 c 11.718,-1.302 23.436,-1.302 35.154,0 11.718,5.208 24.41267,15.624 38.084,31.248 13.67133,15.624 25.064,26.04 34.178,31.248 2.604,2.604 6.51,3.906 11.718,3.906 2.604,6.51 10.416,10.74133 23.436,12.694 13.02,1.95267 20.832,4.23133 23.436,6.836 15.624,9.114 27.993,20.181 37.107,33.201 -15.624,22.134 -27.993,35.154 -37.107,39.06 0,1.302 0.651,1.953 1.953,1.953 2.604,5.208 1.302,9.114 -3.906,11.718 -3.906,1.302 -11.718,3.255 -23.436,5.859 -11.718,2.604 -19.53,6.18467 -23.436,10.742 -3.906,4.55733 -7.161,12.695 -9.765,24.413 0,2.604 -1.302,5.208 -3.906,7.812 2.604,18.228 3.255,34.503 1.953,48.825 -1.302,14.322 -5.859,22.134 -13.671,23.436 -3.906,0 -7.812,-0.651 -11.718,-1.953 -5.208,-1.302 -11.39233,-3.906 -18.553,-7.812 -7.16067,-3.906 -15.29833,-9.765 -24.413,-17.577 0,3.906 1.302,8.78867 3.906,14.648 2.604,5.85933 3.906,10.09067 3.906,12.694 l 5.859,0 c 5.208,-1.302 9.114,-0.32567 11.718,2.929 2.604,3.25467 2.604,6.18433 0,8.789 l -1.953,5.859 -1.953,1.953 7.812,3.906 c 6.51,5.208 12.69433,7.812 18.553,7.812 5.85867,0 13.34533,-0.651 22.46,-1.953 13.02,-1.302 23.436,-1.953 31.248,-1.953 7.812,0 16.60067,2.92967 26.366,8.789 9.76533,5.85933 17.252,10.742 22.46,14.648 5.208,3.906 12.369,9.765 21.483,17.577 9.114,7.812 16.926,13.671 23.436,17.577 2.604,1.302 9.765,5.53333 21.483,12.694 11.718,7.16067 20.50667,13.67067 26.366,19.53 5.85933,5.85933 8.789,12.69467 8.789,20.506 -1.302,46.872 -9.765,78.771 -25.389,95.697 -5.208,5.208 -12.69467,11.39233 -22.46,18.553 -9.76533,7.16067 -17.57733,13.996 -23.436,20.506 -5.85867,6.51 -10.74133,14.322 -14.648,23.436 -3.906,7.812 -5.859,16.926 -5.859,27.342 -3.906,7.812 -9.114,18.879 -15.624,33.201 -6.51,14.322 -11.718,24.087 -15.624,29.295 66.402,13.02 131.17633,9.114 194.323,-11.718 63.14667,-20.832 116.85433,-55.986 161.123,-105.462 33.852,-36.456 59.241,-76.818 76.167,-121.086 16.926,-44.268 26.04,-89.838 27.342,-136.71 l -37.107,21.483 c -15.624,-1.302 -23.436,1.302 -23.436,7.812 l 15.624,5.859 c 2.604,1.302 3.906,2.604 3.906,3.906 2.604,6.51 1.302,13.671 -3.906,21.483 -3.906,7.812 -13.671,19.53 -29.295,35.154 -1.302,16.926 -2.604,27.993 -3.906,33.201 -2.604,6.51 -5.859,13.671 -9.765,21.483 l 0,13.671 c -1.302,5.208 -4.23167,12.69467 -8.789,22.46 -4.55733,9.76533 -7.487,17.903 -8.789,24.413 -2.604,18.228 -10.416,35.154 -23.436,50.778 -19.53,18.228 -35.805,26.04 -48.825,23.436 -5.208,-1.302 -9.765,-4.557 -13.671,-9.765 -2.604,-9.114 -7.161,-21.483 -13.671,-37.107 -6.51,-15.624 -10.416,-25.389 -11.718,-29.295 -2.604,-6.51 -3.906,-13.02 -3.906,-19.53 0,-6.51 0.651,-14.322 1.953,-23.436 1.302,-9.114 1.953,-15.624 1.953,-19.53 0,-6.51 -2.27867,-14.64767 -6.836,-24.413 -4.55733,-9.76533 -6.836,-16.60067 -6.836,-20.506 -1.302,-3.906 0,-10.416 3.906,-19.53 l -8.789,-2.929 c -5.85933,-1.95267 -16.60067,-2.929 -32.224,-2.929 l -11.718,0 c -29.946,0 -48.825,-18.228 -56.637,-54.684 -3.906,-22.134 0.651,-43.617 13.671,-64.449 1.302,-2.604 1.953,-5.53367 1.953,-8.789 l 0,-6.836 c 6.51,-1.302 12.369,-7.812 17.577,-19.53 5.208,0 17.25133,-1.302 36.13,-3.906 18.87867,-2.604 32.875,-4.23167 41.989,-4.883 9.114,-0.65133 20.832,0.97633 35.154,4.883 5.208,3.906 10.416,7.161 15.624,9.765 9.114,6.51 16.926,11.067 23.436,13.671 l 31.248,-21.483 c -6.51,-10.416 -13.02,-18.879 -19.53,-25.389 -18.228,-20.832 -37.107,-20.832 -56.637,0 l -68.355,-5.859 c -10.416,6.51 -23.436,10.416 -39.06,11.718 -1.302,-7.812 -3.255,-14.322 -5.859,-19.53 -3.906,-7.812 -6.18467,-13.99633 -6.836,-18.553 -0.65133,-4.55667 0.325,-8.13733 2.929,-10.742 l 7.812,-7.812 c 5.208,-3.906 8.78867,-9.43967 10.742,-16.601 1.95333,-7.16133 3.581,-15.299 4.883,-24.413 1.302,-9.114 2.604,-15.624 3.906,-19.53 3.906,-9.114 9.765,-19.53 17.577,-31.248 3.906,-9.114 11.39267,-16.275 22.46,-21.483 11.06733,-5.208 22.78533,-9.765 35.154,-13.671 12.36867,-3.906 25.38867,-6.51 39.06,-7.812 13.67133,-1.302 26.366,-2.604 38.084,-3.906 -24.738,-20.832 -50.127,-38.409 -76.167,-52.731 -7.812,0 -18.55333,-1.62767 -32.224,-4.883 -13.67067,-3.25533 -23.11033,-4.883 -28.319,-4.883 -14.322,-1.302 -30.597,3.255 -48.825,13.671 -14.322,10.416 -31.248,15.624 -50.778,15.624 -24.738,0 -49.476,-4.23133 -74.214,-12.694 -24.738,-8.46267 -46.221,-17.90233 -64.449,-28.319 -42.966,14.322 -82.026,35.805 -117.18,64.449 z"
     inkscape:connector-curvature="0"
     sodipodi:nodetypes="szzasasasccscscscscsscssssscccccsccscccccssccsccscsccsccccscsssscssccssccscscsccccccccccsccccscssssccsssccsccssccccccccssccssccsssccsccssccc"
     id="path4" />
</svg>
