<?xml version="1.0" encoding="UTF-8" standalone="no"?>
<!-- Generator: Adobe Illustrator 16.0.0, SVG Export Plug-In . SVG Version: 6.00 Build 0)  -->

<svg
   xmlns:dc="http://purl.org/dc/elements/1.1/"
   xmlns:cc="http://creativecommons.org/ns#"
   xmlns:rdf="http://www.w3.org/1999/02/22-rdf-syntax-ns#"
   xmlns:svg="http://www.w3.org/2000/svg"
   xmlns="http://www.w3.org/2000/svg"
   xmlns:sodipodi="http://sodipodi.sourceforge.net/DTD/sodipodi-0.dtd"
   xmlns:inkscape="http://www.inkscape.org/namespaces/inkscape"
   version="1.1"
   id="Layer_1"
   x="0px"
   y="0px"
   width="566"
   height="572"
   viewBox="0 0 566 572"
   enable-background="new 0 0 512 512"
   xml:space="preserve"
   inkscape:version="0.48.4 r"
   sodipodi:docname="matches.svg"><metadata
     id="metadata3049"><rdf:RDF><cc:Work
         rdf:about=""><dc:format>image/svg+xml</dc:format><dc:type
           rdf:resource="http://purl.org/dc/dcmitype/StillImage" /><dc:title /></cc:Work></rdf:RDF></metadata><defs
     id="defs3047" /><sodipodi:namedview
     pagecolor="#ffffff"
     bordercolor="#666666"
     borderopacity="1"
     objecttolerance="10"
     gridtolerance="10"
     guidetolerance="10"
     inkscape:pageopacity="0"
     inkscape:pageshadow="2"
     inkscape:window-width="2498"
     inkscape:window-height="1417"
     id="namedview3045"
     showgrid="false"
     fit-margin-top="66"
     fit-margin-left="0"
     fit-margin-right="66"
     fit-margin-bottom="66"
     inkscape:zoom="1.3037281"
     inkscape:cx="281.39926"
     inkscape:cy="290.784"
     inkscape:window-x="54"
     inkscape:window-y="-8"
     inkscape:window-maximized="1"
     inkscape:current-layer="Layer_1" /><g
     id="g2988"
     transform="matrix(0,-1,1,0,3.4901905e-7,506)"><path
       transform="matrix(1.0020381,0,0,1.0020381,-60.326091,70.652149)"
       d="m 110.10169,303.72882 c 0,13.77904 -11.170112,24.94915 -24.949148,24.94915 -13.779036,0 -24.949152,-11.17011 -24.949152,-24.94915 0,-13.77904 11.170116,-24.94915 24.949152,-24.94915 13.779036,0 24.949148,11.17011 24.949148,24.94915 z"
       sodipodi:ry="24.949152"
       sodipodi:rx="24.949152"
       sodipodi:cy="303.72882"
       sodipodi:cx="85.152542"
       id="path2990"
       style="fill:#000000;fill-opacity:1;stroke:none"
       sodipodi:type="arc" /><path
       transform="matrix(1.0020381,0,0,1.0020381,134.67391,170.65215)"
       d="m 110.10169,303.72882 c 0,13.77904 -11.170112,24.94915 -24.949148,24.94915 -13.779036,0 -24.949152,-11.17011 -24.949152,-24.94915 0,-13.77904 11.170116,-24.94915 24.949152,-24.94915 13.779036,0 24.949148,11.17011 24.949148,24.94915 z"
       sodipodi:ry="24.949152"
       sodipodi:rx="24.949152"
       sodipodi:cy="303.72882"
       sodipodi:cx="85.152542"
       id="path2990-2"
       style="fill:#000000;fill-opacity:1;stroke:none"
       sodipodi:type="arc" /><path
       transform="matrix(1.0020381,0,0,1.0020381,329.67391,-149.34785)"
       d="m 110.10169,303.72882 c 0,13.77904 -11.170112,24.94915 -24.949148,24.94915 -13.779036,0 -24.949152,-11.17011 -24.949152,-24.94915 0,-13.77904 11.170116,-24.94915 24.949152,-24.94915 13.779036,0 24.949148,11.17011 24.949148,24.94915 z"
       sodipodi:ry="24.949152"
       sodipodi:rx="24.949152"
       sodipodi:cy="303.72882"
       sodipodi:cx="85.152542"
       id="path2990-3"
       style="fill:#000000;fill-opacity:1;stroke:none"
       sodipodi:type="arc" /><path
       transform="matrix(1.0020381,0,0,1.0020381,134.67391,-279.34785)"
       d="m 110.10169,303.72882 c 0,13.77904 -11.170112,24.94915 -24.949148,24.94915 -13.779036,0 -24.949152,-11.17011 -24.949152,-24.94915 0,-13.77904 11.170116,-24.94915 24.949152,-24.94915 13.779036,0 24.949148,11.17011 24.949148,24.94915 z"
       sodipodi:ry="24.949152"
       sodipodi:rx="24.949152"
       sodipodi:cy="303.72882"
       sodipodi:cx="85.152542"
       id="path2990-49"
       style="fill:#000000;fill-opacity:1;stroke:none"
       sodipodi:type="arc" /><path
       transform="matrix(1.0020381,0,0,1.0020381,-60.326091,-149.34785)"
       d="m 110.10169,303.72882 c 0,13.77904 -11.170112,24.94915 -24.949148,24.94915 -13.779036,0 -24.949152,-11.17011 -24.949152,-24.94915 0,-13.77904 11.170116,-24.94915 24.949152,-24.94915 13.779036,0 24.949148,11.17011 24.949148,24.94915 z"
       sodipodi:ry="24.949152"
       sodipodi:rx="24.949152"
       sodipodi:cy="303.72882"
       sodipodi:cx="85.152542"
       id="path2990-9"
       style="fill:#000000;fill-opacity:1;stroke:none"
       sodipodi:type="arc" /><path
       transform="matrix(1.0020381,0,0,1.0020381,329.67391,70.652149)"
       d="m 110.10169,303.72882 c 0,13.77904 -11.170112,24.94915 -24.949148,24.94915 -13.779036,0 -24.949152,-11.17011 -24.949152,-24.94915 0,-13.77904 11.170116,-24.94915 24.949152,-24.94915 13.779036,0 24.949148,11.17011 24.949148,24.94915 z"
       sodipodi:ry="24.949152"
       sodipodi:rx="24.949152"
       sodipodi:cy="303.72882"
       sodipodi:cx="85.152542"
       id="path2990-3-3"
       style="fill:#000000;fill-opacity:1;stroke:none"
       sodipodi:type="arc" /><path
       sodipodi:nodetypes="ccccccc"
       inkscape:connector-curvature="0"
       id="path3117"
       d="M 25,155 415,375 220,25 220,475 25,375 415,155 z"
       style="fill:none;stroke:#000000;stroke-width:13;stroke-linecap:butt;stroke-linejoin:miter;stroke-miterlimit:4;stroke-opacity:1;stroke-dasharray:none" /></g></svg>