<?xml version="1.0" encoding="UTF-8" standalone="no"?>
<!-- Creator: CorelDRAW -->

<svg
   xmlns:dc="http://purl.org/dc/elements/1.1/"
   xmlns:cc="http://creativecommons.org/ns#"
   xmlns:rdf="http://www.w3.org/1999/02/22-rdf-syntax-ns#"
   xmlns:svg="http://www.w3.org/2000/svg"
   xmlns="http://www.w3.org/2000/svg"
   xmlns:sodipodi="http://sodipodi.sourceforge.net/DTD/sodipodi-0.dtd"
   xmlns:inkscape="http://www.inkscape.org/namespaces/inkscape"
   xml:space="preserve"
   width="699.97498"
   height="660.32812"
   style="fill-rule:evenodd"
   viewBox="0 0 197.5485 186.35927"
   id="svg4152"
   version="1.1"
   inkscape:version="0.48.4 r"
   sodipodi:docname="au.svg"><metadata
     id="metadata4203"><rdf:RDF><cc:Work
         rdf:about=""><dc:format>image/svg+xml</dc:format><dc:type
           rdf:resource="http://purl.org/dc/dcmitype/StillImage" /></cc:Work></rdf:RDF></metadata><sodipodi:namedview
     pagecolor="#ffffff"
     bordercolor="#666666"
     borderopacity="1"
     objecttolerance="10"
     gridtolerance="10"
     guidetolerance="10"
     inkscape:pageopacity="0"
     inkscape:pageshadow="2"
     inkscape:window-width="2498"
     inkscape:window-height="1417"
     id="namedview4201"
     showgrid="false"
     fit-margin-top="0"
     fit-margin-left="0"
     fit-margin-right="0"
     fit-margin-bottom="0"
     inkscape:zoom="0.61005613"
     inkscape:cx="372.34164"
     inkscape:cy="391.81638"
     inkscape:window-x="54"
     inkscape:window-y="-8"
     inkscape:window-maximized="1"
     inkscape:current-layer="svg4152" /><defs
     id="defs4154"><style
       type="text/css"
       id="style4156">
    .str1 {stroke:black;stroke-width:0.1;stroke-opacity:0.501961}
    .str2 {stroke:black;stroke-width:0.1}
    .str0 {stroke:#000066;stroke-width:0.1}
    .str3 {stroke:black;stroke-width:0.5}
    .fil7 {fill:none}
    .fil0 {fill:#75C5F0}
    .fil6 {fill:#1F1A17;fill-rule:nonzero}
    .fil4 {fill:#C2C1C1;fill-rule:nonzero}
    .fil5 {fill:white;fill-rule:nonzero}
    .fil3 {fill:black;fill-rule:nonzero}
    .fil1 {fill:white;fill-rule:nonzero}
    .fil2 {fill:white;fill-rule:nonzero;fill-opacity:0.501961}
   </style></defs><path
     style="fill:#cccccc;fill-opacity:1;fill-rule:nonzero;stroke:none"
     inkscape:connector-curvature="0"
     id="path4162"
     d="m 177.4335,148.77047 c 0.687,-0.2801 1.494,-0.4535 1.494,-1.2005 -0.3597,-0.6759 -0.3812,-0.7754 0,-0.4002 0.1134,0 0.1734,-0.0533 0.2667,-0.1067 0.1001,0.2401 0.2202,0.4536 0.4802,0.4536 0.2202,0 0.3468,-0.2268 0.3468,-0.447 l 0,-0.4935 c 0,-0.3934 0.1601,-0.6136 0.1601,-1.007 0,-0.3135 -0.1067,-0.487 -0.1067,-0.8004 l -0.2067,0 c -0.0934,0 -0.1334,0.0734 -0.2201,0.1068 l 0,-0.2134 0.1867,-0.6136 c -0.06,-0.0934 -0.1334,-0.1535 -0.1334,-0.2668 0,-0.5069 0.4535,-0.7203 0.4535,-1.2272 0,-0.0533 -0.08,-0.0533 -0.08,-0.1067 0,-0.5069 0.4135,-0.7203 0.4135,-1.2272 l 0,-0.8003 c 0,-0.3669 0.3602,-0.5136 0.3602,-0.8804 0,-0.4469 -0.2401,-0.6736 -0.2401,-1.1204 0,-0.2735 0.3468,-0.3402 0.3468,-0.6136 0,-0.0601 -0.1067,-0.0467 -0.1067,-0.1067 0,-0.5136 0.4001,-0.7404 0.4001,-1.2539 0.2068,0.0333 0.3201,-0.16 0.4002,-0.3468 0.1134,-0.2735 0.3468,-0.3935 0.3468,-0.6936 0,-0.5469 0.3468,-0.8003 0.4535,-1.3339 0.1067,-0.5402 0.3802,-1.0671 0.9337,-1.0671 0.0868,0 0.1268,0.0801 0.2135,0.0801 0.0467,0 0.06,-0.0468 0.1067,-0.0534 -0.1334,-0.2735 -0.1868,-0.4469 -0.1868,-0.747 0,-0.1401 0.1535,-0.2134 0.2935,-0.2134 0.3082,0.1773 0.3736,0.635 0.08,-0.5602 -0.06,-0.1001 -0.1,-0.2202 -0.16,-0.3202 0.4401,-0.3268 0.6669,-0.6936 0.6669,-1.2472 l 0,-0.5469 c 0,-0.14 -0.1868,-0.1734 -0.1868,-0.3134 0,-0.2868 0.2401,-0.3802 0.3469,-0.6403 0.2267,-0.5536 0.5335,-0.8003 0.8803,-1.2805 0.7337,-1.0004 1.0404,-1.7541 1.0404,-2.9879 0,-0.1134 -0.0199,-0.2668 -0.1334,-0.2668 -0.2267,0 -0.3134,0.1868 -0.5335,0.2401 -0.0134,-0.2134 0,-0.3268 0,-0.5402 0,-0.2201 -0.2134,-0.3068 -0.2134,-0.5269 0,-0.0533 0.0734,-0.0601 0.08,-0.1067 0.1067,0.0801 0.1802,0.1868 0.3201,0.1868 0.1201,0 0.1468,-0.1601 0.2668,-0.1601 0.1467,0 0.2001,0.1601 0.3468,0.1601 0.2602,0 0.5336,-0.1402 0.5336,-0.4002 0,-0.1067 -0.08,-0.1601 -0.08,-0.2668 0,-0.4268 0.5335,-0.5269 0.5335,-0.9537 l 0,-0.7604 c 0,-0.1266 0.12,-0.2067 0.2468,-0.2067 l 0.1667,0 c -0.007,0.2601 -0.06,0.4135 0,0.667 0.2001,-0.3536 0.2001,-0.6136 0.4135,-0.9604 0.3602,-0.5803 0.9204,-0.6403 1.2272,-1.2539 0.0734,-0.1534 0.0467,-0.2868 0.1334,-0.4268 0.2601,-0.4069 0.7203,-0.2668 1.1738,-0.4268 0.4402,-0.1535 0.5403,-0.5136 0.9337,-0.7737 0.1935,-0.1268 0.4002,-0.2201 0.4002,-0.4535 0,-0.3002 -0.0467,-0.6936 -0.3468,-0.6936 -0.0467,0 -0.06,0.0533 -0.1067,0.0533 0,-0.2534 -0.1068,-0.3868 -0.1068,-0.6402 0,-0.3136 0.5202,-0.1802 0.667,-0.4536 0.1001,-0.1867 0.02,-0.3535 0.1334,-0.5335 0.3268,-0.5069 0.7537,-0.6403 0.987,-1.2005 0.2135,-0.527 0.3002,-0.8537 0.4002,-1.4139 0.0267,-0.1468 0.1801,-0.1734 0.2668,-0.2935 0.2468,-0.3268 0.2934,-0.5869 0.3735,-0.9871 0.12,-0.7469 0.5068,-1.1138 0.5068,-1.8608 0,-0.1867 0.0134,-0.3 0,-0.4868 -0.3801,-0.0601 -0.2934,-0.5536 -0.2934,-0.9337 0,-0.4268 0.1668,-0.6536 0.2668,-1.0671 0.1867,-0.747 0.2001,-1.1939 0.4268,-1.9208 0.1001,-0.3335 0.3735,-0.4669 0.3735,-0.8204 0,-0.1334 -0.0267,-0.2001 -0.0267,-0.3335 0,-0.2934 0.2935,-0.3934 0.2935,-0.6869 0,-0.1067 -0.0801,-0.16 -0.0801,-0.2667 0,-0.7337 0.4802,-1.0805 0.4802,-1.8141 0,-0.3201 -0.3201,-0.5336 -0.6402,-0.5336 -0.1534,0 -0.2401,0.0667 -0.3735,0.1334 l 0.0267,-0.1067 c 0.2201,-0.440201 0.7203,-0.340201 1.0137,-0.720301 0.4135,-0.5403 0.2134,-1.0605 0.4268,-1.7074 0.1601,-0.4801 0.587,-0.6669 0.587,-1.1738 0,-0.687 -0.2135,-1.0738 -0.2135,-1.7607 0,-0.3935 0.1067,-0.6203 0.1067,-1.0137 0,-1.3873 -1.2538,-1.9475 -1.2538,-3.3347 0,-0.2535 0.0734,-0.3936 0.1334,-0.6403 -0.2334,-0.4002 -0.6069,-0.4736 -0.747,-0.907 -0.0866,-0.2736 -0.02,-0.4802 -0.1334,-0.747 -0.1266,-0.3002 -0.4802,-0.3669 -0.4802,-0.6936 0,-0.2268 0.2668,-0.2402 0.4269,-0.4002 -0.1734,-0.1734 -0.4536,-0.2068 -0.4536,-0.4535 0,-0.607 0.2469,-1.0138 0.7204,-1.3873 -0.1868,-0.2068 -0.2935,-0.3802 -0.2935,-0.6603 l 0,-0.3868 c 0,-0.2467 0.0133,-0.4201 -0.1067,-0.6336 -0.0467,0.0134 -0.0534,0.0801 -0.1067,0.0801 -0.0534,0 -0.0801,-0.0267 -0.1334,-0.0267 -0.0267,-0.2335 -0.1067,-0.3535 -0.1067,-0.5869 0,-0.7537 0.5335,-1.1139 0.5335,-1.8674 0,-0.2935 -0.3534,-0.3002 -0.5602,-0.5069 -0.5202,-0.5202 -0.9871,-0.867 -0.9871,-1.6007 0,-0.5335 0.2935,-0.8003 0.2935,-1.3339 0,-0.2068 -0.2867,-0.1867 -0.4802,-0.2401 -0.3401,-0.0933 -0.5336,-0.1867 -0.8537,-0.3468 -0.2401,-0.12 -0.2935,-0.3268 -0.3735,-0.5869 -0.12,-0.3868 -0.4535,-0.4935 -0.5602,-0.8804 -0.0934,-0.3201 0.08,-0.6135 -0.1601,-0.8536 -0.3534,-0.3535 -0.8136,-0.1935 -1.1738,-0.5336 -0.3335,-0.3135 -0.2734,-0.7136 -0.6136,-1.0137 l -0.1067,0.0266 c 0.0334,-0.4668 -0.0667,-0.7469 -0.2401,-1.1738 -0.2534,-0.5068 -0.6269,-0.6803 -1.1471,-0.907 -0.1601,-0.0667 -0.2001,-0.2401 -0.3735,-0.2401 -0.1534,0 -0.2134,0.14 -0.2935,0.2668 -0.3401,-0.1401 -0.6602,-0.1135 -0.8537,-0.4269 -0.1266,-0.2068 -0.1533,-0.3935 -0.3468,-0.5335 -0.2734,-0.2001 -0.5535,-0.1935 -0.747,-0.4802 -0.3734,-0.5469 -0.4067,-1.1139 -1.0137,-1.3606 -0.0866,0.18 -0.0667,0.3535 -0.2401,0.4536 -0.2867,-0.2869 -0.5869,-0.3002 -0.8537,-0.587 -0.14,-0.1534 -0.3735,-0.1867 -0.3735,-0.4001 0,-0.2068 0.2735,-0.2401 0.4802,-0.2401 0.0667,0 0.1001,0.0533 0.1668,0.0533 0.04,0 0.06,-0.0267 0.1,-0.0267 l 0,-0.2201 c 0,-0.787 -0.0333,-1.2471 -0.1601,-2.0208 -0.04,-0.2735 -0.2134,-0.4135 -0.2134,-0.6936 0,-0.2335 0.2134,-0.3268 0.2134,-0.5602 0,-0.3135 -0.2,-0.4603 -0.3201,-0.747 -0.1734,-0.4002 -0.1667,-0.6936 -0.4535,-1.0137 -0.18,-0.2001 -0.0733,-0.6136 -0.3468,-0.6136 -0.0466,0 -0.06,0.0533 -0.1067,0.0533 l 0,0.2067 c 0,0.3002 0.1734,0.4603 0.1734,0.7603 l 0,0.6604 c -0.4468,-0.0667 -0.6336,-0.3202 -0.9738,-0.6136 -0.5068,-0.4402 -0.827,-0.6803 -1.2805,-1.1738 -0.2467,-0.2668 -0.1667,-0.7737 -0.5335,-0.7737 -0.2668,0 -0.3468,0.3201 -0.3468,0.5869 0,0.1334 0.0734,0.1934 0.16,0.2935 l -0.1067,0.2134 c 0.5829,2.3864 0.1624,0.2934 -0.9871,0.2934 -0.0933,0 -0.12,0.1334 -0.2134,0.1334 -0.2267,0 -0.2534,-0.2601 -0.4002,-0.4268 -0.08,-0.0934 -0.24,-0.1067 -0.24,-0.2401 0,-0.1334 0.1066,-0.1867 0.1066,-0.3201 0,-1.1339 -0.8803,-1.6407 -0.8803,-2.7745 0,-0.2335 0.1067,-0.3536 0.1067,-0.5869 0,-0.2001 -0.2001,-0.2401 -0.2934,-0.4269 -0.0601,0.02 -0.0934,0.0534 -0.1601,0.0534 -0.4268,0 -0.3669,-0.5869 -0.4002,-1.0138 -0.0133,-0.2134 0,-0.5068 -0.2134,-0.5068 -0.08,0 -0.1334,0.04 -0.2134,0.0533 -0.007,-0.0867 -0.0267,-0.1334 -0.0267,-0.2201 0,-0.1868 0.1334,-0.2868 0.1334,-0.4735 0,-0.2201 -0.2668,-0.2268 -0.4002,-0.4002 -0.1067,-0.1401 -0.1134,-0.3468 -0.2934,-0.3468 -0.0468,0 -0.0667,0.0467 -0.1067,0.0534 l -0.1201,-0.0267 c 0.007,-0.1534 0,-0.2468 0,-0.4002 -0.7403,0.0733 -0.8937,-0.7203 -1.4272,-1.2538 -0.0868,-0.2202 -0.2668,-0.3201 -0.2668,-0.5603 0,-0.1401 0.1601,-0.1801 0.1601,-0.3201 0,-0.0867 -0.1068,-0.12 -0.1068,-0.2068 0,-0.0466 0.0267,-0.0667 0.0267,-0.1133 0.1267,0.0267 0.1868,0.1334 0.3201,0.1334 0.2135,0 0.4269,-0.1334 0.4269,-0.3468 0,-0.3068 -0.3802,-0.2935 -0.6403,-0.4535 -0.1134,-0.0667 -0.0734,-0.2135 -0.16,-0.3202 -0.1068,-0.1334 -0.2935,-0.0734 -0.4269,-0.1867 -0.1734,-0.1467 -0.1934,-0.3269 -0.2934,-0.5336 -0.1468,0.06 -0.2335,0.1667 -0.2668,0.3202 -0.5536,-0.1802 -0.7671,-0.4936 -1.2005,-0.8804 -0.2534,-0.2268 -0.3269,-0.5602 -0.6669,-0.5602 -0.1802,0 -0.1668,0.3201 -0.3469,0.3201 -0.5402,0 -0.7469,-0.6336 -0.7469,-1.1738 l -0.2668,-0.0267 c -0.1534,0.2734 -0.1401,0.4735 -0.2935,0.747 -0.4268,-0.3868 -0.907,-0.6136 -0.907,-1.1939 0,-0.1334 0.0267,-0.2001 0.0267,-0.3335 0,-0.3868 -0.2534,-0.5535 -0.4269,-0.9003 -0.3201,0.0801 -0.4935,0.2134 -0.827,0.2134 -0.5735,0 -1.0738,-0.2267 -1.2538,-0.7736 l 0.1067,-0.2134 -0.0267,-0.1067 c -0.2602,0.1867 -0.4001,0.3734 -0.4268,0.6936 -0.4202,-0.1402 -0.5136,-0.4736 -0.9071,-0.667 -0.8403,-0.4202 -1.3605,-0.6269 -2.0542,-1.2538 -0.2,-0.3535 -0.4001,-0.5536 -0.4001,-0.9604 0,-0.4202 0.1867,-0.647 0.1867,-1.0671 0,-0.1401 -0.1401,-0.1668 -0.2401,-0.2668 -0.2934,-0.2934 -0.4335,-0.4736 -0.7469,-0.747 -0.4002,-0.3468 -0.4736,-0.7003 -0.5603,-1.2271 l 0.4735,-1.1205 c 0,-0.6669 0.007,-1.0471 0.007,-1.7141 0,-0.1334 -0.0734,-0.1933 -0.1334,-0.3134 -0.1334,-0.827 -0.2735,-1.3072 -0.5602,-2.0809 -0.08,-0.2267 -0.2401,-0.3401 -0.2401,-0.5869 0,-0.1467 0.0466,-0.2334 0.0801,-0.3735 l -0.2135,0.0534 c -0.7403,-0.5336 -0.9804,-1.0605 -1.5206,-1.7874 -0.3201,-0.4336 -0.8003,-0.6002 -0.8003,-1.1471 0,-0.2535 0.2934,-0.3335 0.2934,-0.587 0,-0.1333 -0.1067,-0.1867 -0.1067,-0.3201 0,-0.3402 0.1868,-0.5136 0.1868,-0.8537 0,-0.3402 -0.5069,-0.3802 -0.5069,-0.7203 0,-0.1867 0.08,-0.2934 0.08,-0.4802 0,-0.6936 -0.7203,-0.9337 -0.7203,-1.6273 0,-0.3402 0.1467,-0.5469 0.4002,-0.7737 -0.2401,-0.24 -0.3468,-0.4602 -0.3468,-0.8003 0,-0.3735 0.3735,-0.5068 0.3735,-0.8803 0,-0.2802 -0.3735,-0.2469 -0.5869,-0.4269 -0.3869,-0.3268 -0.8137,-0.2668 -1.1472,-0.6402 -0.1401,-0.1601 -0.1001,-0.3402 -0.1867,-0.5336 -0.1802,-0.3802 -0.6337,-0.2134 -1.0138,-0.4002 -0.4336,-0.2134 -0.3468,-0.687 -0.5602,-1.1204 -0.0467,-0.0934 -0.2134,-0.0801 -0.2134,-0.1868 0,-0.0667 0.0533,-0.0933 0.0533,-0.16 0,-0.2268 -0.3201,-0.2202 -0.4001,-0.4269 -0.3869,0.0934 -0.4536,0.5603 -0.8537,0.5603 -0.1535,0 -0.2202,-0.1334 -0.3735,-0.1334 -0.7603,0 -0.9004,0.7802 -1.494,1.2538 -0.4736,-0.5269 -0.8803,-0.767 -1.1471,-1.4139 -0.2602,-0.6269 -0.1401,-1.0804 -0.4002,-1.7074 -0.2068,-0.3535 -0.4802,-0.5469 -0.4802,-0.9604 0,-0.4535 0.4002,-0.6402 0.4002,-1.0937 0,-0.9005 -0.5602,-1.3406 -0.5602,-2.241 0,-0.3668 0.08,-0.5669 0.08,-0.9337 l -0.2134,-0.0267 c -0.1334,0.1334 -0.2401,0.2135 -0.4269,0.2135 -0.0933,0 -0.1333,-0.1201 -0.1333,-0.2135 0,-0.4802 0.4001,-0.6936 0.4001,-1.1738 0,-0.2934 -0.4202,-0.2068 -0.6136,-0.4268 -0.1668,-0.1935 -0.0667,-0.4269 -0.2134,-0.6403 -0.1534,-0.2267 -0.4202,-0.1134 -0.6403,-0.2668 -0.2468,-0.1667 -0.2134,-0.4469 -0.2134,-0.7469 0,-0.4069002 0.4002,-0.5536002 0.4002,-0.9604002 0,-0.1868 -0.0267,-0.4269 -0.2134,-0.4269 -0.2335,0 -0.3536,0.1334 -0.5869,0.1334 -0.3735,0 -0.667,-0.3201 -0.667,-0.6936 0,-0.2534 0.1334,-0.3868 0.1334,-0.6403 0,-0.7136 -0.0201,-1.1471 -0.2668,-1.814 -0.12,-0.3202 -0.3468,-0.4802 -0.3468,-0.827 0,-0.2335 0.1067,-0.3536 0.1067,-0.5869 0,-0.2069 -0.2801,-0.2069 -0.4802,-0.2402 -0.12,-0.02 -0.1134,-0.2134 -0.2401,-0.2134 -0.2134,0 -0.3268,0.0801 -0.5402,0.0801 -0.04,0 -0.06,-0.0267 -0.1,-0.0267 0.0466,-0.3802 0.2401,-0.5736 0.2401,-0.9538 0,-0.0534 -0.0267,-0.0866 -0.0267,-0.14 -0.1668,0.02 -0.2602,-0.0067 -0.4268,-0.0067 -0.2202,0 -0.1468,0.3201 -0.2401,0.5136 -0.1868,0.3801 -0.4336,0.6669 -0.8604,0.6669 -0.1401,0 -0.2268,-0.0201 -0.3668,-0.0067 0,0.1801 0.0133,0.2801 0,0.4602 0,0.3335 -0.0267,0.5002 -0.0267,0.8336 l 0,0.627 c 0,0.647 -0.4268,0.9604 -0.4268,1.6074 0,0.1133 0.0533,0.2001 0.1333,0.2668 -0.2934,0.3667 -0.6669,0.5401 -0.6669,1.0137 0,0.2601 0.4802,0.22 0.4802,0.4802 0,0.0733 -0.02,0.1133 -0.0267,0.1867 l -0.4268,0 -0.0267,0.1601 c 0.0267,0.18 0.0801,0.2734 0.0801,0.4535002 0,0.1771 -0.061,0.0686 -0.0801,-0.0267 -0.0867,-0.2735002 -0.1601,-0.4268002 -0.3201,-0.6669002 -0.2668,0.2001 -0.5069,0.3601 -0.5069,0.6936002 0,0.1267 0.0333,0.2067 0.08,0.3201 l -0.2134,-0.0533 c -0.1867,0.1467 -0.2134,0.3468 -0.2134,0.5869 0,1.4864 2.2991,0.7176 0.8003,1.4673 0.3152,0.1767 1.1538,0.4556 0.2935,0.3868 0.3095,1.4064 0.0819,0.3453 -0.4802,-0.0934 -0.1868,0.2801 -0.1868,0.5336 -0.4535,0.747 -0.2668,0.2134 -0.6403,0.2467 -0.6403,0.5869 0,0.3934 0.1467,0.6002 0.2935,0.9604 0.14,0.3468 0.1733,0.707 0.5335,0.827 -0.1268,0.2534 -0.2668,0.3668 -0.2668,0.6403 l -0.1067,-0.0267 c -0.1534,-0.1534 -0.1534,-0.3535 -0.3468,-0.4269 -0.2134,0.3202 -0.0334,0.6537 -0.2668,0.9604 -0.2601,0.3401 -0.2401,0.6403 -0.2934,1.0671 -0.0334,0.2802 -0.1868,0.4135 -0.1868,0.6937 0,0.4535 0.7203,0.4601 0.7203,0.9136 l 0,0.5203 c 0,0.5669 -0.4001,0.827 -0.4001,1.3939 0,1.0805 0.1467,1.7607 0.7469,2.6678 -0.04,0.2534 0,0.4468 -0.16,0.6402 -0.0734,0.0934 -0.2135,0.1133 -0.2135,0.2401 0,0.3005 0.5615,0.2668 0,0.2668 -0.3401,0.2267 -0.2601,0.6003 -0.4001,0.9871 -0.2535,0.6869 -0.4802,1.0804 -0.4802,1.8141 0,0.2733 -0.08,0.4201 -0.08,0.6936 0,0.1867 0.08,0.2934 0.08,0.4802 0,1.0804 -0.707,1.6072 -0.707,2.6877 l 0,0.3535 c -0.04,0 -0.0533,-0.0533 -0.0933,-0.0533 -0.1201,0 -0.1601,0.1467 -0.1601,0.2667 0,0.1267 0.0534,0.2001 0.1334,0.2935 -0.2068,0 -0.3269,-0.0134 -0.5336,0 0,0.1533 0.007,0.2467 0,0.4001 -0.0467,-0.02 -0.0266,-0.1066 -0.08,-0.1066 -0.1401,0 -0.1268,0.2 -0.1868,0.3201 -0.12,0.2401 -0.2334,0.4068 -0.4802,0.5069 0.1134,0.6936 -0.1134,1.1071 -0.4001,1.734 l -0.1067,-0.1067 c -0.2268,0.4601 -0.5803,0.6602 -0.6136,1.1738 -0.08,-0.02 -0.1334,-0.0534 -0.2134,-0.0534 -0.0601,0 -0.0868,0.0401 -0.1401,0.0534 l 0,0.4268 c -0.0667,-0.08 -0.0733,-0.2134 -0.18,-0.2134 -0.9938,0 -1.414,0.8537 -2.4078,0.8537 l -0.5202,0 c -0.6269,0 -0.8203,-0.7203 -1.4472,-0.7203 -0.6625,0 -0.144,0.153 -0.907,-0.4535 -0.2268,-0.1801 -0.2802,-0.4269 -0.5603,-0.5069 -0.4802,-0.1401 -0.9203,0.0667 -1.2805,-0.2934 -0.4802,-0.4802 -0.2134,-1.0472 -0.5602,-1.6274 -0.2869,-0.4869 -0.747,-0.5136 -1.2806,-0.6669 -1.0871,-0.3135 -1.6873,-0.5403 -2.7744,-0.8537 -0.9071,-0.2601 -1.3472,-0.6936 -1.9742,-1.4139 -0.1867,-0.2134 -0.3068,-0.3269 -0.5335,-0.4802 -0.0734,-0.0468 -0.2134,-0.04 -0.2134,-0.1334 0,-0.0467 0.0533,-0.0601 0.0533,-0.1067 0,-0.0534 -0.0267,-0.08 -0.0267,-0.1334 -0.7003,0 -1.0471,-0.3535 -1.6273,-0.747 -0.3068,-0.2068 -0.6669,-0.1067 -0.8537,-0.4268 -0.2667,-0.4469 -0.5803,-0.747 -1.1005,-0.747 -0.1,0 -0.1601,0.02 -0.26,0.0267 -0.1001,0.0466 -0.1334,0.08 -0.2401,0.08 -0.1868,0 -0.2935,-0.1067 -0.4802,-0.1067 -0.1268,0 -0.1734,0.0934 -0.2935,0.1334 -0.1601,-0.2468 -0.2201,-0.4935 -0.5069,-0.5602 0.4222,-0.8448 -0.74,-0.2649 -1.5206,-1.1738 -0.2068,-0.2401 -0.1334,-0.5202 -0.3468,-0.747 -0.5536,-0.5869 -1.1205,-0.6136 -1.8141,-1.0138 -0.2934,-0.1668 -0.3535,-0.5335 -0.6936,-0.5335 -0.77,0 -0.1025,-0.1939 -1.1471,-0.8804 -0.1801,-0.12 -0.4669,-0.0934 -0.4669,-0.3135 l 0,-0.6469 c 0.1667,-0.2735 0.3801,-0.3402 0.5736,-0.5869 0.4735,-0.5936 0.5735,-1.0338 0.907,-1.7073 0.2334,-0.4736 0.7536,-0.4669 0.9871,-0.9338 0.3593,-0.7251 0.8717,-1.8674 0.2935,-1.8674 -0.3869,0 -0.5603,-0.4402 -0.5603,-0.827 0,-0.3335 0.0534,-0.5336 0.1334,-0.8537 l 0.1601,0.08 0.1067,-0.0266 c -0.0868,-0.1802 -0.2668,-0.2335 -0.2668,-0.4269 0,-0.3668 0.3268,-0.6403 0.6936,-0.6403 0.06,0 0.0667,0.0667 0.1067,0.1068 0.2201,-0.1601 0.2535,-0.3402 0.3735,-0.587 0.1934,0.1934 0.1267,0.4068 0.1868,0.667 0.18,-0.1401 0.4802,-0.1401 0.4802,-0.3735 0,-0.0467 -0.0534,-0.0601 -0.0534,-0.1067 l 0.0267,-0.1067 c 0.2401,0.0199 0.4068,-0.1734 0.4802,-0.4002 l 0.1067,0.0267 c 0.1067,0.3201 0.0333,0.5669 0.2401,0.827 0.2401,-0.2401 0.22,-0.5136 0.5335,-0.6669 -0.1334,-0.2068 -0.2468,-0.3202 -0.4535,-0.4535 0.2135,-0.1601 0.4002,-0.1468 0.667,-0.1868 -0.1334,-0.3335 -0.3735,-0.4669 -0.5069,-0.8003 0.1667,-0.0801 0.2534,-0.1601 0.4002,-0.2668 l 0.2134,0.0534 c 0.4201,-0.4669 0.5401,-0.8671 0.6136,-1.494 l 0.2066,0 c 0.0934,0 0.1268,0.08 0.2202,0.08 0.3735,0 0.4002,-0.5068 0.4002,-0.8803 0,-0.3402 -0.2735,-0.6403002 -0.6136,-0.6403002 -0.0468,0 -0.0601,0.0534 -0.1067,0.0534 0.0199,0.1467002 0.08,0.2267002 0.08,0.3734002 0,0.1068 -0.0267,0.2402 -0.1334,0.2402 -0.2268,0 -0.2602,-0.2535 -0.4535,-0.3735 -0.4602,-0.2869002 -0.6803,-0.6536002 -0.7203,-1.2005002 -0.3201,0.08 -0.4269,0.3401 -0.747,0.4268 -0.3135,0.0867 -0.5269,0.2001 -0.6936,0.4802 0.3534,0.1134002 0.8804,0 0.8804,0.3735002 0,0.2334 -0.2001,0.3201 -0.2935,0.5335 -0.1401,0.3335 -0.2801,0.667 -0.6403,0.667 -0.0666,0 -0.1001,-0.0334 -0.1667,-0.0334 l -0.847,0 c -0.0133,-0.1067 -0.0267,-0.1601 -0.0267,-0.2668 0,-0.2467 0.2401,-0.3335 0.2401,-0.5802 0,-0.2735 -0.3334,-0.2735 -0.5869,-0.3734 -0.1001,-0.0401 -0.08,-0.2135002 -0.1867,-0.2135002 -0.3002,0 -0.3202,0.4535002 -0.6203,0.4535002 -0.0801,0 -0.1267,-0.02 -0.2067,-0.0266 l 0,-0.2202 c 0,-0.1667 0.0866,-0.2667002 0.2134,-0.3667002 0.3735,-0.2935 0.3735,-0.6604 0.5869,-1.0938 l -0.1067,-0.0267 c -0.4002,0.1667 -0.647,0.2601 -1.0671,0.4002 0.0667,0.0667 0.1334,0.0933 0.2134,0.1334 -0.1535,0.0866 -0.2468,0.1867 -0.4268,0.1867 -0.0868,0 -0.1268,-0.08 -0.2135,-0.08 -0.2601,0 -0.2468,0.4535 -0.5068,0.4535 -0.1135,0 -0.1734,-0.0534 -0.2668,-0.1067 -0.1201,0.2401 -0.3468,0.2801 -0.4269,0.5335002 0.1267,-0.04 0.2201,-0.0467 0.3468,0 -0.1534,0.1534 -0.2134,0.3468 -0.4268,0.3468 -0.2735,0 -0.3669,-0.2668 -0.6403,-0.2668 -0.1401,0 -0.2068,0.0801 -0.3468,0.0801 -0.1867,0 -0.1734,-0.2668 -0.3201,-0.3735 -0.5069,-0.3802002 -0.9271,-0.5069002 -1.2805,-1.0404002 -0.3602,0.1267 -0.4269,0.5335 -0.8071,0.5335 l -0.5202,0 c -0.4334,0 -0.6136,-0.3735 -1.047,-0.3735 -0.2069,0 -0.2202,0.2601 -0.2935,0.4536 -0.0467,-0.0201 -0.0867,-0.0401 -0.1334,-0.0534 0,-0.4402 -0.2001,-0.9337 -0.6403,-0.9337 -0.1867,0 -0.24,0.2134 -0.4268,0.2134 -0.3001,0 -0.6136,-0.1801 -0.6136,-0.4802 0,-0.2001 0.2668,-0.2534 0.2668,-0.4535 0,-0.0468 -0.0467,-0.0667 -0.0534,-0.1067 -0.3067,0.0466 -0.5602,0.0267 -0.7469,0.2668 -0.0934,0.12 -0.1401,0.2668 -0.2935,0.2668 -0.4069,0 -0.6603,-0.0735 -1.0137,-0.2668 -0.1801,-0.1001 -0.2468,-0.2935 -0.4536,-0.2935 -0.1867,0 -0.2934,0.0534 -0.4802,0.0534 -0.9804,0 -0.7536,-1.8141 -1.734,-1.8141 -0.2268,0 -0.1268,0.3601 -0.2934,0.5068 -0.1868,0.1667 -0.3869,0.1334 -0.6403,0.1334 -0.2268,0 -0.1067,-0.3868 -0.2935,-0.5068 -0.1801,-0.1135 -0.2401,-0.2869 -0.2401,-0.5003 l 0,-0.6403 c 0,-0.2134 0.02,-0.3868 -0.1334,-0.5401 -0.0933,0.12 -0.2667,0.14 -0.2667,0.2934 0,0.2535 0.1601,0.3869 0.1601,0.6403 0,0.0466 -0.0534,0.06 -0.0534,0.1067 -0.1935,-0.1067 -0.3802,-0.0734 -0.5336,-0.2401 -0.1334,-0.1467 -0.0933,-0.4268 -0.2934,-0.4268 -0.1535,0 -0.2201,0.16 -0.3735,0.16 -0.1268,0 -0.1801,-0.1001 -0.2668,-0.1867 -0.1734,0.1533 -0.2668,0.3201 -0.2668,0.5602 0,0.1133 0.0534,0.18 0.0534,0.2935 0,0.0466 -0.0467,0.0667 -0.0534,0.1067 -0.3001,-0.3002 -0.2667,-0.8537 -0.6936,-0.8537 -0.16,0 -0.16,0.2668 -0.3201,0.2668 -0.1067,0 -0.1668,-0.0801 -0.2735,-0.0801 l -0.2067,0 c -0.007,0.1 -0.0267,0.1601 -0.0267,0.2601 0,0.2668 0.2801,0.3201 0.4802,0.4869 0.3534,0.3001 0.5736,0.5469 0.6403,1.0138 0.5668,-0.2802 0.867,-0.5869 1.4939,-0.5869 0.4735,0 1.0405,0.14 1.0405,0.6136 0,0.22 -0.1868,0.3134 -0.1868,0.5335 0,0.0466 0.0466,0.06 0.0534,0.1067 0.2667,-0.0868 0.3601,-0.3201 0.6402,-0.3201 0.0534,0 0.06,0.0667 0.1068,0.08 -0.2135,0.2134 -0.4269,0.3468 -0.4269,0.6469 l 0,0.8003 c 0,0.3068 0.06,0.5069 -0.0267,0.7937 -0.0867,0.2868 -0.4402,0.2334 -0.747,0.2668 -0.4268,0.0534 -0.6536,0.1667 -1.0671,0.2668002 -0.5402,0.1334 -0.727,0.6136 -1.2805,0.6136 -0.3135,0 -0.4335,-0.3202 -0.747,-0.3202 -0.2667,0 -0.4001,0.1601 -0.6669,0.1601 -0.1535,0 -0.2268,-0.1067 -0.3802,-0.1067 l -0.5202,0 c -0.5535,0 -1.2005,-0.1668 -1.2338,-0.7203002 -0.2202,0.1934 -0.1334,0.4802002 -0.3468,0.6936002 -0.1468,0.1467 -0.3269,0.0934 -0.5336,0.1334 -0.3402,0.0667 -0.5269,0.1667 -0.8803,0.2134 l 0,0.2067 c 0,0.3868 0.4001,0.527 0.4001,0.9138 0,0.0667 -0.0533,0.1067 -0.08,0.1601 -0.0801,-0.0401 -0.1467,-0.0667 -0.2134,-0.1334 l -0.1067,0.08 c 0.007,0.08 0.0133,0.1334 0.0266,0.2134 l -0.1067,-0.0266 c -0.1067,-0.1068 -0.1734,-0.1802 -0.2934,-0.2668 l -0.0534,0.1067 -0.1067,-0.0267 c -0.1401,-0.4202 -0.4268,-0.6536 -0.8537,-0.747 -0.02,0.2801 -0.1867,0.4135 -0.1867,0.6936 0,0.1201 0.1867,0.1201 0.1867,0.2402 0,0.3468 0.4468,0.3134 0.6936,0.5602 -0.0266,0.0466 -0.0533,0.08 -0.08,0.1334 -0.1867,0 -0.3002,0.0266 -0.4869,0.0266 -0.4269,0 -0.5535,-0.4802 -0.9803,-0.4802 -0.1601,0 -0.2001,0.1735 -0.3202,0.2668 0,0.4936 -0.0667,1.1471 -0.5602,1.1471 -0.1401,0 -0.2134,-0.1067 -0.3536,-0.1067 -0.04,0 -0.0599,0.0267 -0.1,0.0267 0,0.2467 -0.08,0.3935 -0.08,0.6403 0,0.5802 0.7203,0.7269 0.7203,1.3072 0,0.1267 -0.08,0.1934 -0.08,0.3201 0,0.1667 0.1,0.2467 0.1601,0.4002 l -0.1068,-0.0267 c -0.1401,-0.1401 -0.2068,-0.2468 -0.2934,-0.4268 -0.5602,0.1867 -0.6936,0.8003 -1.2805,0.8003 -0.2068,0 -0.3202,-0.1201 -0.4802,-0.2401 -0.1734,0.1334 -0.2401,0.3068 -0.2401,0.5335 0,0.4068 0.0999,0.6603 -0.0267,1.0405 -0.08,0.2534 -0.2935,0.3667 -0.2935,0.6402 0,0.6069 -0.7336,0.6469 -0.987,1.2005 l -0.2135,-0.1067 c -0.3067,0.1267 -0.5068,0.3602 -0.5068,0.6936 0,0.4669 0.1734,0.807 0.5602,1.0671 0.2668,0.1801 0.6003,0.0801 0.747,0.3735 0.1467,-0.0467 0.22,-0.1067 0.3735,-0.1067 0.0666,0 0.0999,0.0333 0.16,0.0534 -0.1401,0.2801 -0.4802,0.3267 -0.4802,0.6402 0,0.2001 0.0134,0.3068 0,0.5069 0.1868,-0.02 0.2867,0 0.4735,0 0.2868,0 0.4402,-0.1334 0.727,-0.1334 0.0934,0 0.1201,0.0934 0.1868,0.1601 -0.2602,0.02 -0.3536,0.2934 -0.6136,0.2934 -0.0667,0 -0.0934,-0.0533 -0.1601,-0.0533 -0.0934,0 -0.1268,0.0934 -0.2201,0.0934 l -0.7136,0 0,0.22 c 0,0.1801 0.1533,0.2602 0.1868,0.4336 0.0599,0.3 0.0533,0.5335 0.2667,0.7469 0.1267,0.1267 0.3735,0.0867 0.3735,0.2668 0.2048,0.0408 -0.4368,-0.0808 -0.9337,-0.4535 -0.2134,-0.1601 -0.2001,-0.4336 -0.4535,-0.5335 -0.3135,-0.1201 -0.5069,-0.2535 -0.6936,-0.5336 l -0.2135,0.0534 c -0.08,-0.0267 -0.1267,-0.0801 -0.2134,-0.0801 -0.0533,0 -0.0868,0.04 -0.1334,0.0534 -0.0067,0.12 -0.0267,0.1933 -0.0267,0.3134 0,0.3535 0.2134,0.5202 0.2935,0.8604 -0.6082,0 -0.5602,1.2586 -0.5602,0.0199 0,-0.9337 -1.0072,-1.2471 -1.9208,-1.4338 -0.3869,-0.08 -0.5603,-0.3468 -0.9604,-0.3468 -0.2202,0 -0.3402,0.0933 -0.5603,0.1067 0.02,0.2667 0.0934,0.5001 0.2401,0.7203 l -0.0266,0.1067 c -0.1334,-0.04 -0.2202,-0.0734 -0.3468,-0.1334 l -0.1068,0.0267 c 0.0334,0.08 0.06,0.1334 0.1068,0.2134 l -0.0267,0.1067 c -0.1871,-0.0601 -0.2872,-0.1534 -0.4272,-0.2935 l -0.1067,0.0801 c 0.0134,0.1867 0.1067,0.2934 0.1067,0.4802 0,0.06 -0.06,0.0733 -0.1067,0.1067 l -0.2934,-0.4268 c -0.1801,0.2 -0.3202,0.3534 -0.3202,0.6269 0,0.4473 0.4126,1.479 -0.1867,0.4135 -0.1376,0.2939 -0.2668,0.7327 -0.2668,0.947 0,0.1222 0.1282,0.3999 -0.0133,0.1734 l -0.2494,-0.4871 c -0.3518,-0.048 -0.6866,-0.2598 -0.0841,-0.2598 0.2268,0 0.4269,-0.1735 0.4269,-0.4002 0,-0.3802 -0.1868,-0.5803 -0.1868,-0.9604 0,-0.2735 -0.0667,-0.4535 0.0534,-0.6936 0.1,-0.2001 0.3468,-0.2534 0.3468,-0.4802 0,-0.5069 -0.4336,-0.7336 -0.8804,-0.9604 -0.3735,-0.1935 -0.5469,-0.4069 -0.747,-0.7737 -0.0734,-0.1401 -0.3201,-0.1267 -0.3201,-0.2934 0,-0.0667 0.0534,-0.0934 0.0534,-0.1601 0,-0.3802 -0.3936,-0.4802 -0.7203,-0.6669 -0.2202,-0.1268 -0.3002,-0.2869 -0.5336,-0.4002 -0.2001,-0.1001 -0.5069,-0.0667 -0.5069,-0.2935 0,-0.2468 0.0067,-0.5868 -0.24,-0.5868 -0.2935,0 -0.4536,0.08 -0.747,0.08 -0.6003,0 -0.9338,-0.4935 -1.1205,-1.0671 -0.1935,0.14 -0.3068,0.2534 -0.5335,0.3468 l -0.4536,-0.1601 -0.1067,0.0267 c 0.2668,0.3668 0.3801,0.6536 0.7737,0.8803 l -0.0534,0.0867 c -0.2068,-0.02 -0.3268,0.0067 -0.5335,-0.0066 -0.04,0.4935 -0.2602,0.7737 -0.667,1.0404 -0.1668,0.1067 -0.1734,0.3468 -0.3735,0.3468 -0.4469,0 -0.4535,-0.6203 -0.4535,-1.0671 0,-0.6558 0.0798,-0.1616 -0.4002,0.1067 -0.1733,0.0934 -0.4535,0.0667 -0.4535,0.2668 0,0.1867 0.2535,0.2001 0.3202,0.3735 -0.2602,0.0867 -0.3669,0.2934 -0.6403,0.2934 -0.683,0 -0.0651,-0.8443 -0.8537,0.0534 l 0.0534,0.2134 c -0.1268,0.2201 -0.3468,0.3068 -0.3468,0.5603 0,0.16 0.1067,0.24 0.1067,0.4001 0,0.2401 -0.3468,0.1934 -0.5869,0.2134 0.0266,0.1934 0.08,0.2935 0.1334,0.4803 l -0.1068,-0.0534 c -0.1067,-0.1401 -0.2468,-0.1734 -0.3468,-0.3202 -0.1067,-0.16 -0.0667,-0.4535 -0.2667,-0.4535 -0.7643,0 -0.5937,1.2749 -0.5937,-0.7203 0,-0.0467 0.0601,-0.06 0.0601,-0.1067 0,-0.2001 -0.2401,-0.2267 -0.3936,-0.3468 l 0,1.0604 c 0,0.2335 -0.0332,0.3601 -0.0599,0.5936 -0.3602,0 -0.6737,0.0333 -0.8537,0.3469 -0.0334,-0.0468 -0.0601,-0.0801 -0.1067,-0.1068 l 0,-0.1334 -0.2134,0.0267 c -0.0801,-0.0267 -0.1268,-0.08 -0.2134,-0.08 -0.0534,0 -0.0601,0.0667 -0.1068,0.08 0.0534,0.3468 -0.4535,0.4269 -0.4535,0.7737 0,0.3201 0.3201,0.5335 0.6403,0.5335 0.0066,0.04 0.0533,0.06 0.0533,0.1067 0,0.1868 -0.12,0.2668 -0.2134,0.4269 l 0.0267,0.1067 c 0.0466,0.0066 0.06,0.0534 0.1067,0.0534 0.0934,0 0.14,-0.0868 0.2134,-0.1334 0.0733,0.0667 0.0867,0.1867 0.1868,0.1867 0.08,0 0.14,0.0267 0.2134,0.0534 -0.1001,0.0466 -0.1867,0.1067 -0.1867,0.2134 0,0.2267 0.2333,0.2801 0.4001,0.4268 -0.2201,0.0733 -0.3535,0.1601 -0.5869,0.1601 -0.3402,0 -0.4869,-0.2202 -0.8003,-0.3468 -0.0201,0.1334 -0.0468,0.2001 -0.1067,0.3201 -0.6227,-0.3113 -0.5733,-1.3407 -0.667,-0.2134 -0.2468,0.0267 -0.3802,0.04 -0.6269,0 0.0133,0.1267 0.0133,0.1934 0,0.3201 l 0.2001,0.0267 c 0.2067,-0.0468 0.3201,-0.1668 0.5335,-0.1334 -0.1934,0.1934 -0.3402,0.2734 -0.5869,0.3735 0.0801,0.2001 0.2601,0.2935 0.4802,0.2935 0.1534,0 0.2268,-0.1268 0.3735,-0.1601 -0.0467,0.2 -0.08,0.3267 -0.08,0.5335 0,0.3148 0.9492,1.131 0.6936,1.0672 -0.4403,-0.1649 -0.3468,-0.4802 -0.6669,-0.4802 -0.1268,0 -0.1668,0.1133 -0.2668,0.1867 -0.1935,-0.1135 -0.3802,-0.1201 -0.4802,-0.3201 -0.0868,-0.1802 0.0934,-0.3869 -0.0534,-0.5336 -0.1467,-0.1467 -0.3468,0.02 -0.5335,-0.0534 -0.08,-0.0266 -0.1001,-0.1334 -0.1868,-0.1334 -0.2934,0 -0.3535,0.3069 -0.5869,0.4802 l 0.1067,0.2135 c -0.1334,0.1666 -0.2668,0.2667 -0.4802,0.2667 -0.1401,0 -0.2134,-0.1066 -0.3201,-0.1867 -0.1067,0.22 -0.4268,0.2334 -0.4268,0.4802 0,0.0934 0.0599,0.1334 0.1067,0.2134 -0.2668,0.1734 -0.2935,0.4535 -0.2935,0.7737 0,0.1533 0.1133,0.2934 0.2668,0.2934 0.0466,0 0.06,-0.0533 0.1067,-0.0533 l 0.1734,0 c -0.0067,0.1667 -0.0133,0.26 0,0.4268 0.6069,-0.2668 0.7203,-0.7203 1.2005,-1.1471 l 0,0.5535 c 0,0.3802 -0.6269,0.3802 -0.6269,0.7603 0,0.1001 0.0199,0.1601 0.0266,0.2601 -0.12,0.0401 -0.24,0.0867 -0.24,0.2135 0,0.1734 0.1334,0.2534 0.1334,0.4268 0,0.18 -0.2535,0.1868 -0.3202,0.3468 -0.1801,-0.0267 -0.2735,-0.1001 -0.4268,-0.1867 -0.0534,0.3401 -0.0601,0.5469 -0.2134,0.8537 0.12,0.0466 0.1867,0.1067 0.3201,0.1067 0.1266,0 0.1933,-0.0534 0.3201,-0.0534 0.1666,0 1.8709,0.5194 1.494,0.6136 -0.6136,-0.1534 -0.9805,-0.0067 -1.6007,-0.1067 -0.2935,-0.0467 -0.4202,-0.2935 -0.7203,-0.2935 -0.0467,0 -0.0601,0.0467 -0.1067,0.0534 0.0533,0.2334 0.1933,0.4002 0.4268,0.4535 -0.0067,0.1334 -0.0467,0.2067 -0.1067,0.3202 -0.1534,-0.1334 -0.2468,-0.2935 -0.4535,-0.2935 -0.0868,0 -0.1268,0.08 -0.2134,0.08 -0.3936,0 -0.4069,-0.4602 -0.6403,-0.7736 -0.2,-0.2735 -0.5069,-0.2668 -0.8537,-0.2668 -0.0467,0 -0.06,0.0466 -0.1067,0.0534 0.0733,0.18 0.2668,0.2333 0.2668,0.4334 0,0.04 -0.0267,0.0601 -0.0267,0.1001 l -0.2335,0 c -0.1334,0 -0.1933,0.1334 -0.3267,0.1334 -0.1401,0 -0.1801,-0.1401 -0.2668,-0.2401 -0.2468,-0.2735 -0.5335,-0.4202 -0.5335,-0.7937 0,-0.0867 0.0199,-0.1334 0.0266,-0.2201 l -0.2134,0.0534 c -0.04,-0.0067 -0.06,-0.0534 -0.1067,-0.0534 -0.0533,0 -0.08,0.0267 -0.1334,0.0267 0.02,0.1667 -0.08,0.2601 -0.08,0.4269 0,0.0466 0.0733,0.0533 0.08,0.0933 l 0.3335,0 0,0.6803 c -0.1268,0.0801 -0.3068,0.0867 -0.3068,0.2401 0,0.1334 0.1067,0.1868 0.1067,0.3202 0,0.26 -0.3735,0.3 -0.3735,0.5602 0,0.3001 0.4936,0.1334 0.6936,0.3468 0.2668,0.2867 0.1667,0.6069 0.2935,0.9871 0.2067,-0.0468 0.3468,-0.0134 0.5336,-0.1067 l 0.1066,0.0266 c -0.1534,0.1735 -0.2934,0.2401 -0.5068,0.3468 0.2962,0.4516 0.604,0.6609 -0.0534,0.2402 0.1801,0.4802 0.3001,0.7535 0.5602,1.2004 l -0.0266,0.1068 c -0.3402,-0.2535 -0.5803,-0.3403 -0.9071,-0.6136 -0.2201,-0.1868 -0.1333,-0.6136 -0.4268,-0.6136 -0.1801,0 -0.08,0.2734 -0.08,0.4535 0,0.3068 0.2334,0.4269 0.3735,0.6936 -0.1001,0.0867 -0.1868,0.1267 -0.3202,0.1334 0,0.2867 -0.2934,0.3801 -0.2934,0.6669 0,0.1067 0.0667,0.1667 0.0667,0.2735 0,0.337 -0.2001,1.8017 -0.2001,0.7403 0,-0.1668 0.08,-0.2602 0.08,-0.4269 0,-0.4135 -0.3868,-0.5335 -0.6936,-0.8003 -0.4336,-0.3802 -0.2801,-0.8803 -0.5602,-1.3872 -0.2335,-0.4203 -0.7737,-0.4802 -0.7737,-0.9604 0,-0.1467 0.08,-0.2202 0.08,-0.3669 l 0,-0.22 c -0.1334,-0.0201 -0.2,-0.0467 -0.3201,-0.1067 l 0.0534,-0.2134 c -0.2668,-0.3335 -0.747,-0.3735 -0.747,-0.8004 0,-0.2735 0.1867,-0.3935 0.2668,-0.6536 -0.1668,0 -0.2602,-0.0067 -0.4269,0 -0.1,0.3668 -0.3668,0.5669 -0.7469,0.6269 0.0667,0.2135 0,0.3602 0,0.5869 0,0.2201 0.18,0.3335 0.3734,0.4269 -0.02,0.0466 -0.04,0.0867 -0.0533,0.1334 -0.3535,0 -0.5536,0.1334 -0.9071,0.1334 -0.1733,0 -0.2334,-0.1601 -0.3935,-0.2135 -0.0133,0.3735 0.0534,0.587 0,0.9604 l -0.1133,0 c -0.5602,0.1401 -0.7671,0.4936 -1.0938,0.9604 -0.3068,0.4468 -0.6403,0.707 -0.6403,1.2539 0,0.6869 0.1601,1.0737 0.2135,1.7607 0.0266,0.3735 -0.1402,0.6936 0.1066,0.9604 0.2334,0.2534 0.8271,0.0467 0.8271,0.4002 0,0.8069 -0.6803,1.1537 -1.3873,1.5473 -0.5403,0.3 -0.7803,0.6469 -1.3872,0.7736 -0.2335,0.0467 -0.1935,0.3735 -0.4002,0.4802 0.0667,0.1667 0.2135,0.2401 0.2135,0.4269 0,0.26 -0.2268,0.4535 -0.487,0.4535 -0.08,0 -0.1334,0.0133 -0.2067,0.0267 0.0267,0.1067 0.0534,0.16 0.0534,0.2667 0,0.9537 -0.527,1.4273 -1.0938,2.1876 -0.6002,0.8069 -0.9471,1.3205 -1.7874,1.8941 -0.8337,0.5669 -1.4206,0.7136 -2.3476,1.0938 -0.8071,0.3335 -1.2606,0.7203 -2.141,0.7203 l -0.6269,0 c -0.9604,0 -1.3938,0.747 -2.3542,0.747 -0.6604,0 -0.9471,-0.5336 -1.6074,-0.5336 -0.0667,0 -0.1,0.02 -0.1667,0.0267 0.0066,0.1267 0.0133,0.1933 0,0.3201 -0.1401,-0.0334 -0.2134,-0.1067 -0.3602,-0.1067 -0.6736,0 -0.7403,0.7603 -1.2538,1.2005 -0.5269,0.4468 -0.9938,0.5602 -1.6874,0.5602 l -0.4201,0 c -0.747,0.1601 -1.2606,0.1667 -1.9208,0.5336 -0.4535,0.2534 -0.5469,0.6269 -0.9604,0.9337 -0.7004,0.5202 -1.2805,0.6669 -2.1609,0.6669 -0.527,0 -0.7003,-0.5868 -1.2272,-0.5868 -0.5803,0 -0.8337,0.4802 -1.4139,0.4802 -0.1268,0 -0.2068,-0.0267 -0.3201,-0.0801 0.0112,-0.0458 0.3109,-1.1021 0.1334,-0.747 -0.6603,0.8804 -1.3473,1.1004 -2.3477,1.6007 l -0.2134,-0.1067 c -0.1401,0.2401 -0.0867,0.5001 -0.3201,0.6403 -0.5003,0.3067 -0.9871,0.2134 -1.3873,0.6402 -0.6203,0.6536 -0.887,1.1071 -1.5739,1.7074 -0.9938,0.867 -1.7608,1.0938 -3.0413,1.4139 -0.3535,0.0867 -0.4668,0.4268 -0.8337,0.4268 -0.1201,0 -0.2467,0.0267 -0.3668,0.0267 -0.2201,0.3801 -0.1801,0.6869 -0.4002,1.0671 -0.24,0.4201 -0.5269,0.5935 -0.6402,1.0671 -0.1334,0.5535 -0.0467,1.0271 -0.5069,1.3606 -0.1001,-0.0868 -0.1734,-0.1535 -0.2935,-0.2134 -0.1401,0.2867 -0.3535,0.3667 -0.6402,0.5068 -0.0934,-0.1467 -0.1601,-0.2468 -0.1601,-0.4268 0,-0.2534 0.1201,-0.3868 0.1601,-0.6403 l -0.3735,-0.9603 c 0.0333,-0.1468 0.0667,-0.2335 0.08,-0.3869 l -0.16,-0.7069 c 0.0866,-0.2202 0.3201,-0.2935 0.3201,-0.5336 0,-0.0867 -0.0467,-0.1867 -0.1334,-0.1867 -0.4736,0 -0.6002,0.5135 -0.7469,0.9603 -0.1535,0.4735 -0.3202,0.7204 -0.5336,1.1739 -0.1668,0.3601 -0.1535,0.6136 -0.2934,0.9871 -0.1668,0.4535 -0.4269,0.6868 -0.4269,1.1737 0,0.8804 0.747,1.2539 0.747,2.1343 0,0.2467 -0.2668,0.3267 -0.2668,0.5735 0,0.3202 0.08,0.4936 0.08,0.8137 0,0.8336 -0.5403,1.1872 -0.9337,1.9208 -0.6669,1.2338 -1.0404,2.0608 -1.0404,3.4681 0,1.4673 1.5473,2.0542 1.3072,3.5214 0,0.3135 0.0267,0.5802 0.2934,0.747 0.2334,0.14 0.4936,0.1667 0.587,0.4269 0.3134,0.8403 0.3201,1.4205 0.8536,2.1342 0.3001,0.4067 0.4269,0.6936 0.7737,1.0671 0.22,0.2401 0.4802,0.3667 0.4802,0.6936 0,0.0667 -0.08,0.0934 -0.08,0.1601 0,0.1067 0.0533,0.16 0.0533,0.2667 0,0.1067 -0.1801,0.06 -0.2134,0.1601 -0.0601,0.1934 0.04,0.3335 0,0.5336 -0.04,0.18 -0.2134,0.24 -0.2134,0.4268 0,0.2334 0.16,0.3534 0.16,0.5869 0,0.4002 -0.2667,0.7737 -0.6669,0.7737 -0.3535,0 -0.3269,-0.4603 -0.4802,-0.7737 -0.1668,-0.3335 -0.4202,-0.4469 -0.5335,-0.8003 l -0.1068,-0.0267 c -0.2524,0.2524 -0.5462,0.3899 -0.987,-0.08 0,-0.5069 0.3201,-0.747 0.3201,-1.2539 0,-0.3535 -0.2869,-0.4802 -0.4802,-0.7736 -0.2534,-0.3803 -0.3669,-0.6337 -0.6936,-0.9604 l -0.2001,0.0267 c -0.0134,0.1666 -0.0201,0.26 -0.0201,0.4268 l 0,0.3267 c 0,0.4069 0.2801,0.5803 0.4336,0.9538 0.22,0.5336 0.2067,0.9071 0.5335,1.3872 0.2601,0.3869 0.6203,0.4269 0.9871,0.7204 0.3335,0.2667 0.2668,0.6402 0.2668,1.067 0,0.2402 -0.1668,0.3535 -0.3201,0.5336 -0.2001,0.2334 -0.2801,0.5336 -0.587,0.5336 -0.1534,0 -0.1867,-0.1601 -0.3201,-0.2401 -0.2335,-0.1401 -0.5602,-0.1535 -0.5602,-0.4269 0,-0.2335 0.0533,-0.3601 0.1067,-0.5869 -0.1868,-0.0934 -0.3868,-0.1401 -0.4802,-0.3201 0.0534,-0.1734 0.08,-0.2935 0.08,-0.4802 0,-0.2335 -0.08,-0.4002 -0.2667,-0.5336 l -0.1601,0.0267 0,0.2401 0.1067,0.4268 0,0.4269 -0.1067,0.0533 c -0.0934,-0.1934 -0.1334,-0.3334 -0.2935,-0.4535 l -0.1067,-0.0267 c 0.0934,0.3801 0.4068,0.4468 0.5869,0.7737 0.3735,0.6669 0.7203,0.967 1.2272,1.5473 0.4802,0.5535 0.6002,0.9804 0.9871,1.6007 0.6735,1.0804 1.1537,1.7406 1.2538,3.0145 0.0801,0.0134 0.1334,0.02 0.2135,0.0267 l 0.0266,0.1067 c -0.3334,0.3335 -0.2667,0.707 -0.2667,1.1738 0,0.587 -0.0534,0.9738 0.2134,1.494 0.1067,0.2067 0.3468,0.16 0.5069,0.3201 0.2067,0.2067 0.2267,0.4068 0.4001,0.6403 0.4402,0.5935 0.807,0.8736 0.9871,1.6006 0.2801,0.6736 0.1467,1.1739 0.5069,1.8141 0.2333,0.4201 0.6135,0.4468 0.907,0.827 0.6536,0.847 0.6936,1.5939 0.6936,2.667801 0,0.3934 -0.1467,0.6136 -0.1467,1.007 l 0,0.867 c 0,0.2869 -0.0667,0.4535 -0.0667,0.7404 0,0.3134 0.2067,0.4468 0.2934,0.747 0.1934,0.6802 0.1267,1.1137 0.2402,1.8141 0.1733,1.047 0.5401,1.5739 1.0404,2.5076 0.6735,1.2539 0.9803,2.0075 1.5206,3.3347 0.2668,0.6536 0.7603,0.9404 0.7603,1.6473 l 0,0.7603 c 0,0.1001 -0.04,0.1601 -0.04,0.2602 0,0.4402 0.1867,0.6803 0.1867,1.1205 0,0.2934 -0.1067,0.4535 -0.2134,0.7203 l 0.1067,0.4268 c -0.08,0.3268 -0.0133,0.5535 -0.16,0.8537 -0.0601,0.12 -0.2202,0.0934 -0.3202,0.1867 -0.2068,0.1934 -0.2,0.4068 -0.2667,0.6937 l 0.4001,2.5477 c 0,0.827 -0.2468,1.3004 -0.6135,2.0408 -0.3469,0.6936 -0.7938,1.2272 -1.574,1.2272 -0.4469,0 -0.567,-0.4135 -0.9471,-0.667 l 0,0.5135 c 0,0.1868 -0.1601,0.2602 -0.1601,0.4469 l 0,1.3873 c 0,0.5069 0.1334,0.787 0.2535,1.2805 0.1,0.4201 0.12,0.747 0.4535,1.0137 0.1,-0.1733 0.1334,-0.2868 0.2401,-0.4535 1.0671,0.4402 1.714,0.7269 2.5344,1.5473 0.4668,0.4669 0.927,0.6003 1.2004,1.2005 0.1267,0.2802 0,0.5669 0.2402,0.747 0.3,0.22 0.6002,0.04 0.9604,0.1601 0.867,0.2867 1.3405,0.5001 2.1342,0.9603 0.0533,-0.1667 0.1,-0.2734 0.1867,-0.4268 l 0.9871,0.4268 c 0.1734,-0.1134 0.22,-0.2734 0.3201,-0.4535 0.2535,0.1868 0.4335,0.3202 0.7536,0.3202 0.2868,0 0.4469,0.0267 0.7336,0.0267 0.2001,0 0.2668,-0.2135 0.4669,-0.2135 0.1868,0 0.2868,0.0267 0.4736,0.007 -0.0134,0.1 -0.0534,0.16 -0.0534,0.2601 0,0.1133 0.1667,0.0934 0.2668,0.1334 0.2067,0.08 0.3068,0.2401 0.5336,0.2401 0.24,0 0.24,-0.4002 0.4802,-0.4002 0.4334,0 0.5801,0.3869 1.0137,0.4536 0,-0.6604 0.7269,-0.7804 1.3072,-1.0938 0.3401,-0.1802 0.5736,-0.2202 0.907,-0.4269 0.2468,-0.1534 0.2067,-0.4602 0.4536,-0.6136 0.2467,-0.1534 0.3468,-0.3334 0.6136,-0.4535 0.2801,-0.1268 0.5469,-0.04 0.7469,-0.2667 0.14,-0.1601 0.02,-0.3602 0.1334,-0.5336 0.3068,-0.4669 0.807,-0.4802 1.3739,-0.4802 0.3935,0 0.5935,0.1467 0.9737,0.2401 0.0867,-0.2134 0.3134,-0.2468 0.5336,-0.3201 0.8137,-1.6341 1.714,-3.0146 3.5215,-3.0146 0.1467,0 0.2267,0.08 0.3734,0.08 0.1868,0 0.2935,-0.1067 0.4802,-0.1067 0.3602,0 0.5469,0.2134 0.9071,0.2134 0.2734,0 0.2401,-0.4135 0.5068,-0.4802 0.5669,-0.1401 0.8937,-0.16 1.4739,-0.16 l 0.9738,0 c 0.647,0 0.9871,-0.2668 1.634,-0.2668 0.807,0 1.2205,0.4535 2.0275,0.4535 0.2867,0 0.4068,-0.2401 0.6936,-0.2401 0.3068,0 0.5203,0.1601 0.667,0.4268 0.0866,0.1601 0.0533,0.4269 0.2401,0.4269 0.2267,0 0.3934,0.0667 0.5869,-0.0533 0.2401,-0.1468 0.22,-0.5336 0.5069,-0.5336 0.3068,0 0.4402,0.2401 0.7469,0.2401 0.1468,0 0.2201,-0.1135 0.3202,-0.2134 l 0.5268,0 c 0.5869,0 0.9138,-0.1067 1.5007,-0.1067 0.4468,0 0.5135,0.6402 0.9604,0.6402 0.5935,0 0.8869,-0.3002 1.4139,-0.5602 0.2668,-0.1334 0.4535,-0.1401 0.747,-0.2134 0.18,-0.0401 0.4268,-0.0534 0.4268,-0.2401 0,-0.1535 -0.08,-0.2335 -0.08,-0.3869 0,-0.6402 0.7736,-0.6603 1.1471,-1.1871 0.3534,-0.5003 0.2935,-0.9204 0.4269,-1.5206 0.1533,-0.6803 0.4067,-1.1272 1.0137,-1.4673 0.4868,-0.2735 0.7269,-0.6403 1.2871,-0.6403 l 0.5203,0 c 0.5669,0 0.807,-0.3668 1.2872,-0.6669 0.9204,-0.5736 1.4806,-0.9671 2.5344,-1.2272 1.4205,-0.1134 1.734,-1.5473 3.1212,-1.8941 l 0.2135,0.0534 c 0.1867,-0.1402 0.3134,-0.2401 0.5469,-0.2401 0.8336,0 1.2471,0.5068 2.0808,0.5068 1.5873,0 2.481,-0.1667 4.0417,-0.5335 0.7136,-0.1668 1.0271,-0.5202 1.734,-0.6936 1.2338,-0.3068 1.8741,-0.5869 3.0413,-1.0938 1.0538,-0.4603 1.5073,-1.2539 2.6477,-1.2539 l 0.5536,0 3.0146,-0.5602 2.1808,0 c 0.4603,0 0.7203,-0.1067 1.1806,-0.1067 0.5535,0 0.8603,0.08 1.4139,0.08 0.5602,0 0.907,-0.0933 1.3872,-0.3735 0.3068,-0.1734 0.4669,-0.4268 0.827,-0.4268 0.5736,0 0.8404,0.3534 1.3339,0.6403 0.7136,0.4135 1.2071,0.5469 1.8674,1.0404 0.6003,0.6602 1.5539,0.7136 1.6274,1.6006 0.3668,-0.0867 0.6135,-0.06 0.9604,-0.2134 0.2801,-0.1267 0.3534,-0.4535 0.6669,-0.4535 0.887,0 1.3339,0.4468 2.1075,0.8804 0.1868,0.0999 0.3468,0.08 0.5336,0.1867 0.4669,0.2801 0.7136,0.5869 1.2538,0.5869 0.3668,0 0.4536,-0.3601 0.7737,-0.5335 0.0667,0.1133 0.1601,0.1867 0.2935,0.1867 0.1733,0 0.1467,-0.3201 0.3201,-0.3201 0.3134,0 0.3601,0.3534 0.5335,0.6136 0.4002,0.6068 1.0004,0.7535 1.1739,1.4672 l -0.1068,0.0267 c -0.1134,-0.0601 -0.1934,-0.1067 -0.3201,-0.1334 0.0267,0.08 0.08,0.1267 0.08,0.2134 0,0.14 -0.16,0.1801 -0.16,0.3202 0,0.0533 0.0667,0.0599 0.08,0.1067 0.5402,-0.1334 0.7536,-0.5603 1.3072,-0.5603 0.6335,0 0.8537,0.7536 0.8537,1.3873 0,0.3335 -0.2602,0.4601 -0.4268,0.747 -0.0401,-0.1601 -0.0934,-0.2668 -0.2402,-0.3468 -0.1534,0.2734 -0.1267,0.5401 -0.4001,0.6936 0.2067,0.1 0.5335,0.06 0.5335,0.2934 0,0.1067 -0.1067,0.1534 -0.1067,0.2601 l 0,0.2201 c 0.5736,0 0.6869,0.6803 1.2539,0.7737 0.5602,0.0934 1.4139,-0.2202 1.4139,0.3468 0,0.0667 -0.0534,0.0934 -0.0534,0.1601 0,0.3134 0.4269,0.3201 0.5336,0.6136 0.22,0.5935 0.0667,1.0003 0.2668,1.6006 0.12,0.3735 0.3934,0.4868 0.5869,0.827 0.2001,0.3534 0.4535,0.4802 0.8003,0.6936 0.2734,0.1667 0.2668,0.4402 0.3735,0.747 0.0934,0.2801 0.2668,0.4201 0.2668,0.7203 0,0.0867 -0.0801,0.1266 -0.0801,0.2134 0,0.2601 0.2668,0.3268 0.3735,0.5602 0.14,0.3134 0.1067,0.5603 0.1334,0.9071 l 0.4535,1.2005 0,0.3201 -0.1534,0 c -0.5546,0 -1.1983,-0.9249 0.2335,0.5069 0.3601,0.3601 0.3934,0.7069 0.5869,1.1738 l 0.1067,0.0534 c 0.0133,-0.2268 0.0133,-0.5336 0.2401,-0.5336 0.5001,0 0.747,0.2867 1.1471,0.5869 0.0267,-0.3402 0.08,-0.5403 0.1067,-0.8804 -0.1801,0.1334 -0.3334,0.1601 -0.5602,0.1868 -0.0201,-0.0734 -0.08,-0.1067 -0.08,-0.1868 0,-0.1934 0.2667,-0.2334 0.2667,-0.4268 0,-0.0534 -0.08,-0.0534 -0.08,-0.1067 0,-0.4603 0.1734,-0.8003 0.5602,-1.0404 0.2668,-0.1668 0.6937,-0.1067 0.6937,-0.4269 0,-0.1334 -0.1068,-0.1867 -0.1068,-0.3201 0,-0.4602 0.5802,-0.4802 0.8004,-0.8804 0.3134,-0.5669 0.3134,-1.0671 0.827,-1.4672 0.3668,-0.2869 0.5069,-0.5603 0.9337,-0.747 0.2534,-0.1067 0.4601,-0.0868 0.6669,-0.2668 0.2001,-0.1734 0.3668,-0.2534 0.5069,-0.4802 0.0934,-0.1534 0.1134,-0.3468 0.2935,-0.3468 0.3134,0 0.4868,0.1067 0.8003,0.1067 0.6269,0 0.7669,-0.6936 0.9871,-1.2805 0.08,-0.2268 0.2801,-0.2935 0.4001,-0.5069 0.1534,-0.2735 -0.007,-0.4935 0.0534,-0.8003 0.0333,-0.1668 0.1533,-0.2335 0.1868,-0.4002 0.0399,-0.2001 -0.0401,-0.3802 0.08,-0.5335 0.1067,-0.1334 0.2801,-0.0667 0.4268,-0.1601 0.2467,-0.1534 0.0867,-0.5403 0.3468,-0.6669 0.2201,-0.1068 0.4468,0.0933 0.6403,-0.0534 0.2734,-0.2068 0.2401,-0.5269 0.2401,-0.8803 0,-0.3335 -0.1067,-0.5203 -0.1067,-0.8537 0,-0.3735 0.0466,-0.5869 0.1067,-0.9604 0.7736,0.8602 0.4402,1.734 0.8537,2.8011 0.1266,0.3401 0.5068,0.4269 0.5068,0.7936 l 0,0.2202 c -0.0467,0.007 -0.0533,0.08 -0.1067,0.08 -0.0933,0 -0.12,-0.1334 -0.2134,-0.1334 -0.2735,0 -0.3935,0.2401 -0.6669,0.2401 -0.007,0.06 -0.0267,0.1 -0.0267,0.1601 0,0.0533 0.08,0.0533 0.08,0.1067 0,0.1334 -0.1067,0.1867 -0.1067,0.3201 0,0.6602 0.5869,0.9404 0.5869,1.6007 0,0.2001 -0.1934,0.2667 -0.3735,0.3468 -0.2735,0.1266 -0.2735,0.4135 -0.5068,0.6136 -0.3269,0.2801 -0.607,0.3735 -0.8537,0.7203 0.0933,0.0667 0.2134,0.0933 0.2134,0.2134 0,0.3068 -0.4535,0.3335 -0.4535,0.6402 0,0.0867 0.1334,0.1 0.1334,0.1868 0,0.3735 -0.4269,0.4802 -0.4269,0.8537 0,0.1533 0.1201,0.22 0.1334,0.3735 l -0.2934,1.1738 c 0.08,0.4802 0.2134,0.7336 0.2134,1.2138 0,0.747 -0.1134,1.7207 -0.8604,1.7207 l -0.7337,0 c -0.2934,0 -0.4868,-0.007 -0.7535,0.1067 -0.3869,0.1667 -0.3069,0.5936 -0.4536,0.9871 -0.12,0.3268 -0.3468,0.4936 -0.3468,0.847 l 0,0.2201 0.1534,0 c 1.2338,0 1.7073,-1.1738 2.9412,-1.1738 0.3602,0 0.5469,0.1867 0.9071,0.1867 0.3201,0 0.3667,-0.3802 0.4268,-0.6936 0.0467,-0.2468 0.1334,-0.3868 0.1601,-0.6402 0.0733,-0.6403 0.3201,-0.9604 0.3468,-1.6007 0.0267,-0.7537 0.1933,-1.2206 0.6669,-1.8141 0.3202,-0.4002 0.3535,-0.727 0.7203,-1.0938 0.0667,0.4135 0.2734,0.5936 0.4002,0.9871 0.1934,0.5869 0.1867,0.9871 0.5335,1.4939 0.4936,0.7204 1.3072,0.9404 1.3072,1.8141 0,0.5203 -0.2201,0.7936 -0.4001,1.2806 -0.3869,1.0404 -0.5803,1.6472 -1.1205,2.6144 -0.1867,0.3401 -0.5735,0.3401 -0.747,0.6936 l 0.0267,0.1067 0.8537,0.1334 c 0.747,-0.1868 1.1471,-0.3802 1.8141,-0.747 0.3667,-0.2001 0.4334,-0.6203 0.8537,-0.6669 0.2467,-0.0267 0.4135,0.0667 0.6402,-0.0267 0.4201,-0.1734 0.5802,-0.5602 1.0405,-0.5602 0.4734,0 0.7736,0.4735 0.7736,0.947 0,0.6136 0.0667,1.3339 -0.5335,1.4806 -0.0601,-0.1267 -0.1868,-0.1801 -0.1868,-0.3201 0,-0.3068 0.2668,-0.4402 0.2668,-0.747 0,-0.1867 -0.1868,-0.2934 -0.3735,-0.2934 -0.2134,0 -0.3201,0.1334 -0.5336,0.16 -0.007,0.0867 -0.0266,0.1334 -0.0266,0.2201 0,0.1867 0.2067,0.2334 0.2934,0.3935 0.3935,0.7003 0.8137,0.9604 1.2539,1.6274 0.2534,0.3801 0.6335,0.3801 0.907,0.7469 0.5802,1.3939 1.4006,2.1076 1.4006,3.6215 l 0,0.7603 c 0,0.6669 -0.4535,1.0137 -1.0804,1.3272 0.4802,0.1201 0.7202,0.5469 0.7202,1.0405 0,0.1734 -0.1733,0.2134 -0.24,0.3735 0.5869,0.4401 0.4135,1.1071 0.9337,1.6273 0.1467,0.1467 0.3334,0 0.5335,0.0534 0.2001,0.0533 0.2001,0.2667 0.3201,0.4268 0.1801,0.2467 0.3268,0.3868 0.4536,0.6669 0.4001,0.8604 0.6602,1.4139 1.4139,2.0009 0.3134,0.2401 0.4268,0.6135 0.827,0.6135 0.3335,0 0.5202,-0.1067 0.8537,-0.1067 0.9803,0 1.6273,0.3136 2.2943,1.0405 0.4268,0.4668 0.6201,0.8536 1.2004,1.0938 l 0.1868,0 0,-0.2068 c 0,-0.1067 -0.0801,-0.1668 -0.0801,-0.2734 0,-0.2468 0.3469,-0.2068 0.587,-0.2668 0.1666,-0.0401 0.2534,-0.1334 0.4268,-0.1334 0.6269,0 0.9804,0.2335 1.494,0.5869 0.1533,0.1067 0.2066,0.2935 0.4001,0.2935 0.3801,0 0.5535,-0.2668 0.9337,-0.2668 0.9604,0 1.3005,0.7603 2.0542,1.3605 0.3801,0.3002 0.7403,0.2134 1.1738,0.4269 0.4335,0.2134 0.5802,0.6669 1.0671,0.6669 0.0667,0 0.0934,-0.08 0.1601,-0.08 0.5535,0 0.7269,0.6136 1.2805,0.6136 0.3668,0 0.2867,-0.5069 0.5603,-0.747 0.1666,-0.1467 0.3534,-0.1133 0.5335,-0.2401 0.7002,-0.5135 0.867,-1.1338 1.654,-1.494 0.7803,-0.3534 1.1738,-0.6669 1.9208,-1.0671 0.3735,-0.2 0.8537,-0.2667 0.8537,-0.6936 0,-0.08 -0.0601,-0.1267 -0.1067,-0.1867 -0.3201,0.16 -0.4736,0.3734 -0.827,0.3734 -0.2335,0 -0.5069,-0.0866 -0.5069,-0.3201 0,-0.1867 0.2268,-0.2134 0.3468,-0.3468 0.1868,-0.2001 0.3335,-0.3 0.5602,-0.4535 0.3935,-0.2668 0.6869,-0.3134 1.0672,-0.5869 0.1867,-0.1334 0.22,-0.4002 0.4535,-0.4002 0.2867,0 0.3401,0.3068 0.5069,0.5336 0.26,0.3535 0.4535,0.6203 0.4535,1.0671 0,0.5735 -0.2869,0.9004 -0.6937,1.3072 -0.2334,0.2335 -0.7202,0.1001 -0.7202,0.4268 0,0.3202 0.1867,0.6403 0.5068,0.6403 0.2601,0 0.3202,-0.2534 0.5336,-0.4002 0.3001,-0.2 0.5401,-0.2 0.907,-0.2401 l 0.5336,0.0801 c 0.1467,-0.02 0.2334,-0.0333 0.3735,-0.0801 l 0.1067,0.0267 c 0,0.0467 0.0266,0.0667 0.0266,0.1134 0,0.1468 -0.1067,0.2201 -0.1067,0.3668 0,0.3402 0.3068,0.4535 0.5069,0.7203 0.18,0.2401 0.2067,0.5869 0.5069,0.5869 0.1667,0 0.22,-0.0267 0.3735,-0.08 0.2667,-0.0667 0.3667,-0.2935 0.6402,-0.2935 0.1868,0 0.1601,0.2535 0.2135,0.4269 -0.0735,0.04 -0.1868,0.0467 -0.1868,0.1334 0,0.1867 0.18,0.2335 0.2668,0.4001 0.1734,0.3335 0.2067,0.5803 0.4802,0.827 0.0667,-0.2867 0,-0.6936 0.2934,-0.6936 0.3668,0 0.5402,0.1802 0.9071,0.2401 0,0.4002 0.2134,0.5936 0.3735,0.9604 0.1734,0.4002 0.2,0.787 0.6135,0.9337 0.0467,-0.6135 0.1334,-0.9537 0.1334,-1.5672 0,-0.0868 -0.0133,-0.1334 -0.0266,-0.2202 -0.1935,0.1401 -0.3202,0.2668 -0.5603,0.2668 -0.2068,0 -0.2335,-0.2467 -0.3201,-0.4269 -0.1401,-0.2867 -0.2735,-0.4401 -0.3201,-0.7603 0.1667,-0.0266 0.26,-0.0133 0.4268,-0.0133 0.6136,0 0.9471,-0.2134 1.5206,-0.4268 0.5135,-0.1868 0.8737,-0.0734 1.3873,-0.2401 0.3468,-0.1134 0.4535,-0.3401 0.7469,-0.5603 0.6003,-0.4468 0.9004,-0.7669 1.4406,-1.3072 0.5603,-0.5602 0.7403,-0.9803 1.3072,-1.5473 -0.3067,0.0735 -0.4668,0.1801 -0.7469,0.3202 0,-0.0401 -0.0267,-0.06 -0.0267,-0.1 0,-0.4936 0.6136,-0.4802 1.0404,-0.7271 -0.1334,-0.18 -0.2134,-0.3134 -0.2134,-0.5401 0,-0.0801 0.02,-0.1268 0.0267,-0.2068 0.3334,-0.04 0.5202,-0.1067 0.8537,-0.1067 0.2067,0 0.2467,0.2934 0.4535,0.2934 0.4468,0 0.9003,-0.0466 1.0671,-0.4535 0.08,0.1001 0.08,0.2668 0.2134,0.2668 0.3068,0 0.4735,-0.1201 0.7737,-0.1601 0.3201,-0.0466 0.6402,0.0133 0.8003,-0.2668 0.1267,0.1802 0.3068,0.2134 0.5335,0.2134 0.747,0 1.1472,-0.3201 1.8941,-0.3201 0.1334,0 0.1868,0.1067 0.3202,0.1067 0.1334,0 0.1867,-0.1067 0.3201,-0.1067 0.2334,0 0.3534,0.1067 0.5869,0.1067 0.3134,0 0.4936,-0.0333 0.8004,-0.1067 l 0.16,0.0267 z M 11.3385,53.931469 c 0.0933,0.0334 0.16,0.08 0.2667,0.08 0.4203,0 0.5536,-0.4869 0.5869,-0.907 -0.4401,0.1334 -0.6469,0.4135 -0.8536,0.827 z m 159.212,124.051001 c -0.0467,0.6269 -0.2202,1.0004 -0.6403,1.4673 l 0.2935,0.6936 c -0.0601,0.5202 -0.5069,0.707 -0.5069,1.2272 0,0.3334 0.6936,0.1734 0.6936,0.5068 0,0.2135 -0.1668,0.2802 -0.2668,0.4802 l 0.1334,0.8004 c -0.0133,0.1067 -0.0667,0.16 -0.1334,0.2401 -0.1867,-0.1 -0.2201,-0.2734 -0.3201,-0.4535 -0.1067,0.2201 -0.1267,0.5068 -0.3735,0.5068 -0.1467,0 -0.2934,-0.0933 -0.2934,-0.2401 0,-0.2 0.0133,-0.3068 0,-0.5069 -0.2001,0 -0.3269,-0.0332 -0.5069,-0.1066 0.1201,-0.1201 0.1334,-0.2535 0.1334,-0.4269 l 0.1067,-0.0267 c 0.2134,0.1935 0.2734,0.4802 0.5602,0.4802 0.1734,0 0.3735,-0.0667 0.3735,-0.2401 0,-0.7736 -0.747,-1.2805 -1.5206,-1.2805 -0.401,0 -0.4002,2.0027 -0.4002,0.9604 0,-0.1601 -0.0533,-0.3468 -0.2134,-0.3468 -0.3468,0 -0.6136,0.3002 -0.6136,0.647 l 0,0.2067 c -0.1067,-0.0333 -0.1801,-0.0733 -0.2668,-0.1334 0.02,0.3135 0.1334,0.4869 0.1334,0.8003 0,0.3269 0.06,0.8003 -0.2668,0.8003 -0.3001,0 -0.5269,-0.14 -0.6669,-0.4001 l 0.0267,-0.1067 c -0.2534,0.02 -0.3868,-0.0934 -0.6403,-0.1334 0.2134,0.2868 0.4269,0.4668 0.4269,0.827 0,0.12 -0.1067,0.16 -0.2135,0.2134 0.0267,0.0734 0.1068,0.1067 0.1068,0.1867 0,0.3136 -0.2935,0.3936 -0.4802,0.6403 -0.2869,0.3735 -0.0801,1.0938 -0.5603,1.0938 -0.5803,0 -0.787,-0.6136 -1.3673,-0.6136 -0.3667,0 -0.5801,0.0267 -0.947,0.0267 -0.18,0 -0.2535,-0.1334 -0.4335,-0.1334 -0.3068,0 -0.3868,0.3735 -0.6936,0.3735 -0.4602,0 -0.2801,-0.6869 -0.5335,-1.0671 -0.3068,-0.4535 -0.5136,-0.7136 -0.8804,-1.1205 -0.3535,-0.8537 -0.9871,-1.0337 -1.4406,-1.8407 -0.3402,-0.6136 -0.3135,-1.0471 -0.5335,-1.7074 -0.0868,-0.2734 -0.2735,-0.3934 -0.3735,-0.6669 -0.1135,-0.3135 -0.0134,-0.5203 -0.0534,-0.8537 -0.0734,-0.6003 -0.3535,-0.8671 -0.4535,-1.4673 l 0.1067,0.08 c 0.2001,0.4068 0.5002,0.5269 0.8537,0.8004 0.2863,0.2188 0.0904,0.948 0.2401,0.4001 0.1667,0.0534 0.2534,0.1334 0.4001,0.2401 l 0,-0.22 c 0,-0.6137 -0.5002,-0.8138 -0.7469,-1.3806 -0.1401,-0.3202 -0.2401,-0.667 -0.5869,-0.667 0,-1.4939 -1.0671,-2.0742 -1.7341,-3.4147 -0.2534,-0.5069 -0.6936,-0.7137 -0.6936,-1.2805 0,-0.0601 0.1067,-0.0468 0.1067,-0.1068 0,-0.9271 -0.3601,-1.4073 -0.6136,-2.2942 -0.0334,-0.1268 -0.1867,-0.1601 -0.1867,-0.2935 0,-0.5335 0.3934,-0.747 0.4802,-1.2805 l -0.1334,-0.6669 0.1067,-0.0267 c 0.06,0.08 0.1133,0.14 0.1867,0.2134 0.3535,0.1467 0.5936,0.1267 0.9604,0.2401 0.2668,0.08 0.3602,0.3201 0.6403,0.3201 0.1734,0 0.2534,-0.1334 0.4269,-0.1334 0.5534,0 0.8003,0.3534 1.3072,0.5603 1.0671,0.4401 1.654,0.7603 2.7211,1.2005 0.5469,0.2267 0.8537,0.4802 1.4472,0.4802 l 0.5202,0 c 0.3802,0 0.5202,0.2867 0.8604,0.4535 0.06,-0.4002 0.0533,-0.9337 0.4535,-0.9337 0.3202,0 0.4536,0.2467 0.6936,0.4535 0.3401,0.2934 0.5069,0.5202 0.7737,0.8803 0.1301,0.2603 -0.5069,-1.3013 -0.5069,-1.5273 l 0,-0.2334 c 0.0466,0 0.08,-0.0267 0.1267,-0.0267 0.3402,0 0.5202,0.2135 0.8604,0.2135 0.3335,0 0.4402,-0.3735 0.7736,-0.3735 0.2468,0 0.3135,0.3201 0.5603,0.3201 0.6602,0 0.9803,-0.567 1.2271,-1.1738 0.3535,0.1734 0.5135,0.4268 0.9071,0.4268 0.4468,0 0.827,-0.3601 0.827,-0.807 0,-0.4921 1.7607,0.926 1.7607,1.3139 0,0.2467 -0.4001,0.2601 -0.4001,0.5069 0,0.0466 0.0467,0.0599 0.0533,0.1067 l 0,0.7536 c 0,0.2334 0.1334,0.3468 0.1334,0.5803 0,0.2667 -0.08,0.4201 -0.08,0.6869 l 0,0.5469 c 0,0.3868 0.2667,0.5669 0.2667,0.9537 0,0.3735 -0.24,0.5603 -0.24,0.9337 0,0.3535 0.1066,0.5536 0.1066,0.9071 0,0.3001 -0.1867,0.4468 -0.1867,0.747 0,0.2 0.1801,0.2801 0.2134,0.4802 -0.1933,-0.0334 -0.26,-0.1868 -0.4535,-0.2135 0,-0.04 -0.0267,-0.06 -0.0267,-0.1001 0,-0.1334 0.0734,-0.1933 0.0801,-0.3267 -0.5002,0.2067 -0.5802,0.6736 -0.7203,1.2005 -0.1067,0.4201 -0.3202,0.6269 -0.3202,1.0604 0,0.0467 0.0534,0.0667 0.0534,0.1134 z m -3.3881,6.2159 c -0.04,-0.007 -0.06,-0.0534 -0.1067,-0.0534 -0.3601,0 -0.2668,0.5137 -0.4802,0.8004 0.2001,0.1801 0.2201,0.3868 0.4002,0.5869 0.18,-0.2268 0.1267,-0.4601 0.2934,-0.6936 l -0.1067,-0.2135 0,-0.4268 z m 3.8416,-4.5352 -0.0267,-0.1067 -0.1067,-0.0267 c -0.08,0.2001 -0.1334,0.3201 -0.1867,0.5336 0.08,0.0133 0.1334,0.0533 0.2134,0.0533 0.0533,0 0.0866,-0.04 0.1334,-0.0533 l -0.0267,-0.4002 z m -15.553,-12.7519 c -0.0735,0.1467 -0.0868,0.2602 -0.1068,0.4268 l 0.1068,0.0534 c 0.2067,-0.0801 0.3468,-0.1467 0.4802,-0.3201 -0.1934,-0.0467 -0.2935,-0.1134 -0.4802,-0.1601 z m 14.1124,-5.0421 c 0.3202,0.1601 0.4535,0.4469 0.4535,0.8003 0,0.0601 -0.0667,0.0667 -0.1067,0.1068 l 0.0267,0.1067 c 0.4135,0 0.5003,0.4535 0.6669,0.827 0.1268,0.2868 0.2469,0.4402 0.3468,0.7469 0.2001,-0.1066 0.2469,-0.3734 0.4802,-0.3734 0.1735,0 0.2668,0.0667 0.4269,0.1334 0.0201,-0.06 0.0533,-0.1 0.0533,-0.1667 0,-0.1734 -0.0199,-0.2735 -0.007,-0.4469 -0.1,0 -0.16,0.0266 -0.2601,0.0266 -0.0534,0 -0.06,-0.0667 -0.1067,-0.08 0.1067,-0.1467 0.2134,-0.2267 0.2134,-0.4068 l 0,-0.5803 c -0.8603,0 -1.007,-0.8737 -1.6274,-1.4939 -0.1399,0.3601 -0.2333,0.6136 -0.5602,0.8003 z m 1.7341,3.1747 c -0.1468,0 -0.2268,-0.0801 -0.3735,-0.0801 -0.2335,0 -0.4269,0.1468 -0.4802,0.3735 0.2668,0.1334 0.4468,0.2134 0.747,0.2134 0.2468,0 0.4135,-0.0466 0.6136,-0.1867 0.14,0.1401 0.2067,0.2468 0.2934,0.4268 0.2134,-0.1067 0.3402,-0.18 0.5069,-0.3468 -0.2001,-0.2668 -0.3268,-0.4135 -0.4535,-0.7203 l -0.1068,-0.0266 c -0.1467,0.2801 -0.4268,0.3468 -0.7469,0.3468 z m -0.1868,1.1738 c 0,0.0601 0.0201,0.1001 0.0267,0.16 0.2267,-0.0533 0.3468,-0.1867 0.4802,-0.3735 -0.2001,-0.0667 -0.5069,0 -0.5069,0.2135 z m -15.9532,-0.6003 0.5202,0 c -0.0133,-0.1334 -0.007,-0.2001 0,-0.3334 -0.2401,0.0533 -0.3335,0.1867 -0.5202,0.3334 z m -4.0817,-5.2154 c -0.0601,-0.0801 -0.1134,-0.1402 -0.1867,-0.2135 l -0.1067,-0.0267 c 0,0.1667 0.0666,0.2735 0,0.4269 -0.0735,0.1801 -0.3735,0.1467 -0.3735,0.3468 0,0.1467 0.08,0.2268 0.08,0.3735 0,0.2868 -0.1867,0.4268 -0.1867,0.7137 l 0,0.22 c 0.0933,0.007 0.1467,0.0201 0.2401,0.0267 l 0,1.1738 c 0.0466,0.0133 0.08,0.0533 0.1334,0.0533 0.16,0 0.18,-0.1933 0.3201,-0.2667 0.3601,-0.2001 0.6136,-0.4669 0.6136,-0.8804 0,-0.3534 -0.1334,-0.5535 -0.1334,-0.907 0,-0.3134 0.08,-0.4868 0.08,-0.8004 0,-0.18 -0.3068,-0.2 -0.4802,-0.24 z m 6.1092,-7.3898 c -0.2268,0.0534 -0.3402,0.1868 -0.4802,0.3735 0.2067,0 0.3267,0.0201 0.5336,0 0.02,-0.1266 -0.0334,-0.2467 -0.0534,-0.3735 z m -35.3745,-16.5134 c -0.4002,0.0667 -0.5736,0.3068 -0.8538,0.5869 0.3268,0.3268 0.667,0.3201 1.1205,0.3201 0.1601,0 0.2068,-0.1467 0.3468,-0.2134 -0.1467,-0.3001 -0.3267,-0.5268 -0.6135,-0.6936 z m -6.9896,1.0138 c 0,0.2467 0.3335,0.2134 0.5336,0.3468 0.1667,0.1134 0.2001,0.3468 0.4068,0.3468 l 0.6336,0 0.5335,0.08 c 0.4135,0 0.6536,-0.007 1.0672,-0.0534 0.0133,-0.0667 0.0533,-0.0933 0.0533,-0.16 0,-0.0534 -0.0667,-0.06 -0.08,-0.1067 l 0.1067,-0.0534 0.6402,0 c 0.2869,0.2868 0.4603,0.4402 0.8004,0.6669 0.1467,-0.3667 0.3735,-0.5602 0.3735,-0.9604 0,-0.24 0.3668,-0.1333 0.5602,-0.2667 0.2134,-0.1468 0.12,-0.4002 0.1867,-0.667 -0.1266,-0.007 -0.2001,0 -0.3267,0 -0.2401,0 -0.5536,-0.0533 -0.5536,-0.2934 0,-0.1734 0.1334,-0.2535 0.1334,-0.4269 0,-0.1934 -0.2068,-0.2934 -0.4002,-0.2934 -1.1738,0 -1.8607,0.18 -2.9612,0.5869 -0.5336,0.2001 -1.0071,-0.0334 -1.4139,0.3468 -0.2668,0.2467 -0.2935,0.5402 -0.2935,0.9071 z M 0.3069,78.528269 c -0.0801,-0.0134 -0.1268,-0.0334 -0.2001,-0.0534 -0.0468,0.08 -0.1068,0.1201 -0.1068,0.2134 0,0.8404 0.3269,1.2939 0.7204,2.0276 0.2134,0.4001 0.2934,0.6669 0.5602,1.0404 -0.0934,-1.1872 -0.9737,-1.7007 -0.9737,-2.8878 l 0,-0.3402 z M 88.7899,5.0046688 c -0.0534,0.4603 0.0267,0.7137 0,1.1738 -0.1334,-0.2534 -0.1467,-0.5869 -0.4336,-0.5869 -0.2934,0 -0.6269,0.1334 -0.6269,0.4269 0,0.2068 0.0334,0.3268 0,0.5335 -0.1734,-0.3068 -0.06,-0.8003 -0.4135,-0.8003 -0.3534,0 -0.5135,0.2401 -0.8537,0.3201 0.0667,0.2668 0.1801,0.3802 0.2668,0.6403 l -0.1067,0.0267 c -0.3001,-0.2201 -0.4269,-0.4402 -0.7737,-0.587 -0.2267,-0.0933 -0.4468,-0.16 -0.5068,-0.4001 l 0.2134,0 c 0.0133,-0.0733 0.0334,-0.1201 0.0533,-0.1868 -0.4201,-0.0999 -0.5535,-0.3601 -0.9604,-0.5602 -0.0066,0.04 -0.0533,0.0601 -0.0533,0.1067 0,0.8937 0.5069,1.3472 0.5069,2.241 0.2667,0.0133 0.4401,0.0533 0.6669,0.1867 0.2534,0.1467 0.1535,0.4935 0.4002,0.6403 0.2201,0.1267 0.4268,-0.0067 0.6669,0.08 0.2735,0.1001 0.3535,0.3001 0.5603,0.5069 0.1733,-0.1334 0.1733,-0.3202 0.3468,-0.4535 0.2534,-0.1934 0.5135,-0.1401 0.7469,-0.3469 0.3536,-0.3134 0.3802,-0.8803 0.8538,-0.8803 0.1067,0 0.1601,0.0266 0.2668,0.0533 0.18,-0.3601 0.5069,-0.5069 0.5069,-0.907 0,-0.2601 -0.3602,-0.2134 -0.5069,-0.4269 -0.2602,-0.3667 -0.4002,-0.6269 -0.8204,-0.8003 z m -4.2484,1.1205 c -0.04,-0.1734 -0.0934,-0.2801 -0.1867,-0.4269 -0.2802,0.2801 -0.3936,0.4936 -0.747,0.667 l -0.0267,0.1067 c 0.08,0.0266 0.1334,0.0467 0.2134,0.08 l -0.1067,0.2134 c 0.1201,0.3002 0.4268,0.3936 0.4268,0.7203 0,0.2202 -0.3135,0.1868 -0.5335,0.1868 -0.0667,0 -0.1001,-0.0534 -0.1601,-0.0801 l -0.2134,0 c -0.0334,0.2135 -0.04,0.3468 -0.1334,0.5336 0.3335,-0.0466 0.4935,-0.1868 0.827,-0.1868 0.5535,0 0.8337,0.2935 1.3873,0.2935 0.1734,0 0.2734,-0.0733 0.4001,-0.1867 -0.2867,-0.2868 -0.5335,-0.4068 -0.9337,-0.4536 -0.0066,-0.0599 -0.02,-0.0999 -0.0267,-0.16 l 0.1068,-0.2134 c -0.1601,-0.1267 -0.3069,-0.0801 -0.5069,-0.0801 0.0533,-0.4001 0.2934,-0.6136 0.2134,-1.0137 z m 29.4788,12.1650002 c 0.0133,0.1867 0.08,0.2934 0.08,0.4802 0,0.4869 -0.0667,0.767 -0.1067,1.2538 0.8137,0 1.2206,0.4802 2.0342,0.4802 0.1468,0 0.2334,-0.02 0.3801,0 0,-0.18 0.007,-0.2734 0,-0.4535 l -0.0933,-0.08 c -0.1068,0.12 -0.1801,0.2401 -0.3469,0.2401 -0.0866,0 -0.1,-0.1334 -0.1867,-0.1334 -0.08,0 -0.1334,0.0533 -0.2134,0.0533 -0.2134,0 -0.3735,-0.1867 -0.3735,-0.4001 0,-0.2467 0.2668,-0.2868 0.3735,-0.5069 -0.1601,-0.0667 -0.3202,-0.1467 -0.3202,-0.3268 0,-0.12 0.0201,-0.1934 0.0267,-0.3135 0.1134,0 0.1734,0.0267 0.2869,0.0267 0.3928,0 0.8203,-0.2134 0.1133,-0.2134 -0.2334,0 -0.4535,-0.1668 -0.4535,-0.4002 0,-0.16 0.1067,-0.2401 0.1067,-0.4002 0,-0.2201 -0.3001,0.2135 -0.4002,0.4002 -0.18,0.3202 -0.5402,0.2935 -0.907,0.2935 z m -0.9071,-0.7737 c -0.12,-0.04 -0.1934,-0.0601 -0.3201,-0.08 -0.0133,0.0868 -0.0267,0.1334 -0.0267,0.2201 0,0.2734 0.1334,0.4269 0.2668,0.6603 0.02,-0.3134 0.1268,-0.4869 0.08,-0.8004 z m 3.975,10.1909 c -0.1001,-0.2001 -0.1067,-0.4535 -0.3201,-0.4535 -0.1668,0 -0.2602,0.1 -0.3735,0.2134 0.22,0.3068 0.4135,0.4469 0.7203,0.6669 0.007,-0.0599 0.0266,-0.1 0.0266,-0.16 0,-0.0667 -0.0332,-0.2068 -0.0533,-0.2668 z m 10.2175,4.7486 c 0,0.2335 0.3002,0.2668 0.5336,0.2668 0.1801,0 0.1867,-0.2401 0.3201,-0.3468 0.1268,-0.1067 0.2602,-0.0534 0.4269,-0.0534 0.0334,-0.3802 0.1801,-0.8003 0.5602,-0.8003 0.1601,0 0.2134,0.1867 0.3735,0.1867 0.1067,0 0.2134,-0.08 0.2134,-0.1867 0,-0.3669 -0.6003,-0.3335 -0.9337,-0.1867 -0.6602,0.3 -1.494,0.3934 -1.494,1.1204 z m 1.574,1.7341 c -0.0934,0.1867 -0.2068,0.24 -0.3201,0.4001 0.18,0.0868 0.3068,0.0801 0.5069,0.1067 0,-0.2067 -0.04,-0.3601 -0.1868,-0.5068 z M 142.2452,2.3102688 c -0.1734,0.1334 -0.3201,0.2534 -0.3201,0.4802 0,0.0867 0.0534,0.1334 0.08,0.2134 0.0733,-0.1534 0.2067,-0.2134 0.3735,-0.2134 0.007,-0.0467 0.0534,-0.06 0.0534,-0.1068 0,-0.16 -0.1134,-0.24 -0.1868,-0.3734 z m 0.0801,-2.13420004 c 0,0.16 0.1801,0.1934 0.2667,0.3201 0.1668,-0.1067 0.2268,-0.2401 0.2935,-0.4268 -0.2001,-0.1001 -0.5602,-0.1135 -0.5602,0.1067 z M 185.1429,67.723769 c 0.1467,0.8937 0.7003,1.2405 1.3605,1.8408 0.0134,-0.0467 0.0801,-0.0534 0.0801,-0.1067 0,-0.3735 -0.3069,-0.5069 -0.5336,-0.8003 -0.3068,-0.4002 -0.4002,-0.8537 -0.907,-0.9338 z m 10.7777,7.203 -0.1067,-0.0267 c 0,0.2268 0.08,0.3602 0.08,0.5869 0,0.4736 -0.24,0.747 -0.6135,1.0404 -0.1201,0.0934 -0.3202,0.1068 -0.3202,0.2668 0,0.1668 0.0801,0.2535 0.0801,0.4202 l 0,0.707 c 0,0.4335 -0.3269,0.6069 -0.587,0.9537 0.3134,0.1535 0.1868,0.5003 0.3202,0.8003 0.0733,0.1668 0.2401,0.2001 0.3468,0.3468 0.3601,-0.4535 0.04,-0.927 0.2934,-1.4406 0.2601,-0.5202 0.2935,-0.867 0.5069,-1.4139 0.1868,-0.4935 0.5069,-0.7269 0.5069,-1.2538 0,-0.4335 -0.3401,-0.5869 -0.5069,-0.9871 z"
     class="fil1 str0" /></svg>