<?xml version="1.0" encoding="UTF-8" standalone="no"?>
<!-- Creator: CorelDRAW -->

<svg
   xmlns:dc="http://purl.org/dc/elements/1.1/"
   xmlns:cc="http://creativecommons.org/ns#"
   xmlns:rdf="http://www.w3.org/1999/02/22-rdf-syntax-ns#"
   xmlns:svg="http://www.w3.org/2000/svg"
   xmlns="http://www.w3.org/2000/svg"
   xmlns:sodipodi="http://sodipodi.sourceforge.net/DTD/sodipodi-0.dtd"
   xmlns:inkscape="http://www.inkscape.org/namespaces/inkscape"
   xml:space="preserve"
   width="602.6214"
   height="852.4975"
   style="fill-rule:evenodd"
   viewBox="0 0 170.07315 240.59374"
   id="svg3163"
   version="1.1"
   inkscape:version="0.48.4 r"
   sodipodi:docname="nz.svg"><metadata
     id="metadata3212"><rdf:RDF><cc:Work
         rdf:about=""><dc:format>image/svg+xml</dc:format><dc:type
           rdf:resource="http://purl.org/dc/dcmitype/StillImage" /></cc:Work></rdf:RDF></metadata><sodipodi:namedview
     pagecolor="#ffffff"
     bordercolor="#666666"
     borderopacity="1"
     objecttolerance="10"
     gridtolerance="10"
     guidetolerance="10"
     inkscape:pageopacity="0"
     inkscape:pageshadow="2"
     inkscape:window-width="1298"
     inkscape:window-height="779"
     id="namedview3210"
     showgrid="false"
     fit-margin-top="0"
     fit-margin-left="0"
     fit-margin-right="0"
     fit-margin-bottom="0"
     inkscape:zoom="0.22425739"
     inkscape:cx="257.25857"
     inkscape:cy="834.05628"
     inkscape:window-x="791"
     inkscape:window-y="411"
     inkscape:window-maximized="0"
     inkscape:current-layer="svg3163" /><defs
     id="defs3165"><style
       type="text/css"
       id="style3167">
    .str2 {stroke:#2F3133;stroke-width:0.1}
    .str1 {stroke:black;stroke-width:0.1;stroke-opacity:0.501961}
    .str0 {stroke:#000066;stroke-width:0.1}
    .str3 {stroke:black;stroke-width:0.5}
    .fil7 {fill:none;fill-rule:nonzero}
    .fil0 {fill:#75C5F0}
    .fil6 {fill:#1F1A17;fill-rule:nonzero}
    .fil4 {fill:#C2C1C1;fill-rule:nonzero}
    .fil5 {fill:white;fill-rule:nonzero}
    .fil3 {fill:black;fill-rule:nonzero}
    .fil1 {fill:white;fill-rule:nonzero}
    .fil2 {fill:white;fill-rule:nonzero;fill-opacity:0.501961}
   </style></defs><path
     style="fill:#cccccc;fill-rule:nonzero;stroke:none;stroke-width:0.56444444999999999;stroke-miterlimit:4;stroke-dasharray:none"
     inkscape:connector-curvature="0"
     id="path3173"
     d="m 135.2744,119.38875 c -0.1299,0.5677 -0.6207,0.688 -0.866,1.2123 -0.2309,0.5004 -0.0577,1.0392 -0.5388,1.3086 -0.6688,0.3753 -1.1739,0.5292 -1.5588,1.1931 -0.5003,1.5011 -1.9917,1.4722 -3.0597,2.6172 -0.1444,0.1588 -0.3224,0.1924 -0.4234,0.3849 -0.0626,0.1251 -0.0818,0.2454 -0.2117,0.3079 -0.3512,0.1732 -0.5773,0.2165 -0.9237,0.4041 -0.7072,0.3801 -0.7938,1.1787 -1.5972,1.3086 l -0.3079,-0.0385 c -0.2069,0.0241 -0.3849,-0.0433 -0.5196,0.1154 -0.2309,0.2694 -0.2935,0.6158 -0.6399,0.6158 l -0.4907,0 c -0.1684,0 -0.2406,-0.1539 -0.4089,-0.1539 -0.0962,0 -0.1444,0.0626 -0.2309,0.0962 -0.1011,-0.6206 -0.0481,-1.2316 -0.6351,-1.4625 0.154,-0.4619 0.3464,-0.7072 0.3464,-1.1931 0,-0.6255 -0.4763,-0.967 -1.0392,-1.2316 -0.4571,-0.2117 -0.7361,-0.3849 -1.2412,-0.3849 -0.6062,0 -0.8708,0.3752 -1.3759,0.712 -0.1492,0.0962 -0.2021,0.2694 -0.3849,0.2694 -0.279,0 -0.2887,-0.3415 -0.5196,-0.5003 -0.3945,-0.2694 -0.6158,-0.5821 -0.6158,-1.0584 0,-0.1876 0.2261,-0.2117 0.3271,-0.3657 0.3079,-0.4666 0.5774,-0.7649 0.5774,-1.3278 0,-0.3127 -0.2454,-0.5773 -0.5581,-0.5773 -0.4186,0 -0.6495,0.2405 -0.9237,0.5581 -0.1011,0.1203 -0.2694,0.1491 -0.2694,0.3079 0,0.1684 0.2309,0.1973 0.2309,0.3656 0,0.0866 -0.0385,0.1299 -0.0385,0.2165 0,0.0289 0.0193,0.0433 0.0193,0.0722 0.1595,-0.0881 0.2792,-0.4697 0.2726,-0.2071 -0.007,0.267 -0.0321,0.4512 0.001,0.7459 l -0.1394,0.0192 c -0.053,-0.0144 -0.0963,-0.0288 -0.154,-0.0385 -0.077,0.3849 -0.4234,0.5774 -0.8082,0.5774 -0.2598,0 -0.3513,-0.2214 -0.5773,-0.3464 -0.3945,-0.2213 -0.6255,-0.3849 -0.866,-0.7698 -0.1492,-0.2453 -0.4041,-0.3271 -0.4041,-0.6158 0,-0.2453 0.3271,-0.2213 0.5195,-0.3656 0.2117,-0.1587 0.2695,-0.3368 0.4811,-0.5004 0.2791,-0.2164 0.5052,-0.3126 0.6543,-0.635 0.1684,-0.3656 0.4186,-0.4762 0.6736,-0.789 0.3367,-0.4138 0.3752,-0.7794 0.7697,-1.1354 0.0818,0.0529 0.1299,0.1155 0.2309,0.1155 0.1733,0 0.2887,-0.1636 0.2887,-0.3368 0,-0.2502 -0.3079,-0.3175 -0.3079,-0.5677 0,-0.1924 0.2549,-0.1588 0.4234,-0.2502 0.4137,-0.2309 0.6494,-0.4186 0.9429,-0.7889 0.6591,-0.6592 0.1491,-1.5733 0.8083,-2.2323 0.3271,-0.3272 0.6927,-0.3898 0.8852,-0.8083 0.2405,-0.5148 0.2598,-0.8659 0.5388,-1.3663 0.4955,-0.8852 0.635,-1.4529 0.9429,-2.4247 0.2742,-0.866 0.5004,-1.3663 0.5004,-2.2708 0.2309,-0.5873 0.2405,-1.1017 0.2405,-1.7368 l 0,-1.3614 -0.1443,-1.0777 0,-0.409 c 0,-1.448 -0.6688,-2.2226 -1.578,-3.3628 -0.2309,-0.2886 -0.2646,-0.5196 -0.4811,-0.8082 -0.4378,-0.587 -0.8227,-0.8035 -1.3471,-1.3279 -0.5099,-0.5099 -0.7889,-0.8178 -1.4048,-1.1738 -0.3608,-0.2069 -0.5821,-0.4041 -1.0006,-0.4041 -0.4811,0 -0.7121,0.3079 -1.1931,0.3079 -0.51,0 -0.6784,-0.4571 -1.1547,-0.6351 -0.7601,-0.2839 -1.2172,-0.4522 -1.8281,-0.9814 -0.8564,-0.7409 -1.4289,-1.1258 -1.9822,-2.1168 -0.1443,-0.2647 -0.1972,-0.4379 -0.3656,-0.6928 -0.5099,-0.2935 -0.8804,-0.3945 -1.424,-0.6158 -0.3945,-0.1588 -0.6158,-0.3272 -1.044,-0.3272 l -0.664,0 c -0.5003,0 -0.7552,-0.2117 -1.2171,-0.4041 -0.2598,-0.1058 -0.4474,-0.077 -0.712,-0.1732 -0.688,-0.255 -0.9911,-0.6447 -1.4048,-1.2508 -0.1781,-0.2647 -0.2309,-0.4619 -0.4619,-0.6928 -0.279,-0.2791 -0.5629,-0.3224 -0.7697,-0.6543 -0.1684,-0.2694 -0.154,-0.4715 -0.2502,-0.7698 -0.1732,-0.5244 -0.3271,-0.8323 -0.3271,-1.3855 0,-1.0488 0.5436,-1.7368 1.4625,-2.2515 0.3753,-0.2069 0.4522,-0.5245 0.8467,-0.6928 0.2742,-0.1155 0.457,-0.1251 0.712,-0.2694 0.2695,-0.154 0.4427,-0.2069 0.7121,-0.3657 0.2117,-0.1251 0.0913,-0.4474 0.3079,-0.558 0.2405,-0.1251 0.4377,-0.0049 0.6927,-0.0963 0.8708,-0.3223 1.0729,-1.2893 2.0014,-1.2893 0.1972,0 0.3079,0.0577 0.5051,0.0577 l 0.3753,0 c 0.2839,0 0.4426,0.077 0.7265,0.077 0.9237,0 1.4096,-0.6014 1.934,-1.3663 0.4618,-0.6735 0.8178,-0.9718 1.2701,-1.655 0.1683,-0.4137 0.3319,-0.635 0.4233,-1.0776 0.2406,-1.1547 0.1732,-1.8378 0.3079,-3.0213 0.1106,-0.9767 0.2117,-1.5203 0.2117,-2.4969 l 0,-0.9141 c 0,-0.0962 -0.0962,-0.1299 -0.0962,-0.2261 0,-0.2646 0.3656,-0.2309 0.5196,-0.4426 0.1876,-0.2598 0.2357,-0.4474 0.3849,-0.7313 0.2453,-0.457 0.3079,-0.7842 0.3079,-1.3038 l 0,-0.6446 c 0,-0.51 0.024,-0.8179 -0.1155,-1.3038 -0.029,-0.103 -0.4409,-0.8053 -0.2617,-0.7553 0.2788,0.078 0.4,0.332 0.7043,0.332 0.3127,0 0.3239,-0.3083 0.4201,-0.6066 0.1251,0.0818 0.2438,0.1159 0.2919,0.2602 0.0433,0.1298 0.0144,0.3271 0.154,0.3271 0.2068,0 0.2934,-0.1491 0.4811,-0.2309 0.2694,-0.1155 0.4811,-0.2839 0.4811,-0.5773 0,-0.1684 -0.0241,-0.3849 -0.1925,-0.3849 -0.4474,0 -0.5725,0.5388 -1.0199,0.5388 -0.053,0 -0.0818,-0.0288 -0.1347,-0.0385 l -0.0193,-0.1539 0.1733,-0.3849 c 0.1106,-0.3367 0.226,-0.5244 0.3078,-0.866 -0.0914,0.0289 -0.1395,0.0482 -0.2309,0.077 l -0.4041,-2.6941 c 0.0962,-0.5966 1.0007,-0.5581 1.0007,-1.1547 0,-1.2893 -0.6543,-1.9195 -0.866,-3.1944 -0.1443,-0.8852 -0.1924,-1.4289 -0.6158,-2.2131 -0.1684,-0.3175 -0.433,-0.4763 -0.433,-0.8419 l 0,-0.7024 c 0,-0.0962 0.0866,-0.1299 0.0866,-0.2261 0,-0.2694 -0.1924,-0.3849 -0.2886,-0.635 -0.2502,-0.6351 -0.486,-0.9575 -0.6736,-1.6165 -0.2405,-0.7939 -0.3271,-1.222 -0.7312,-1.9437 -0.2213,-0.3945 -0.3898,-0.6061 -0.5581,-1.0199 -0.0626,-0.1588 -0.1925,-0.2309 -0.1925,-0.4041 0,-0.2165 0.2742,-0.2309 0.4812,-0.2886 0.4137,-0.1155 0.6494,-0.2117 1.0776,-0.2117 0.5388,0 0.5003,0.7552 0.5003,1.2941 l 0,0.4571 c 0.0337,0.0096 0.0385,0.0577 0.077,0.0577 0.5244,0 0.712,-0.4234 1.1931,-0.6351 0.3753,-0.1635 0.5918,-0.2838 0.8852,-0.5773 0.1348,-0.1347 0.2887,-0.2116 0.2887,-0.4041 0,-0.3849 -0.3079,-0.712 -0.6928,-0.712 -0.1058,0 -0.1635,0.0385 -0.2694,0.0385 -0.2261,0 -0.4426,-0.1588 -0.4426,-0.3849 0,-0.2021 0.3464,-0.1828 0.3464,-0.3849 0,-0.1588 -0.1347,-0.2261 -0.1347,-0.3849 0,-0.0962 0.0817,-0.1347 0.0962,-0.2309 l -0.2309,0.0578 -0.4571,0 c -0.3945,0 -0.5099,0.3704 -0.8515,0.558 -0.2117,0.1155 -0.3127,0.2406 -0.5196,0.3656 -0.1684,0.1011 -0.3464,0.1829 -0.3464,0.3849 0,0.1107 -0.1828,0.0144 -0.2886,0.0385 -0.2069,0.0481 -0.2839,0.178 -0.4619,0.2887 -0.2117,0.1298 -0.3271,0.2309 -0.5196,0.3849 -0.0818,0.0625 -0.101,0.1924 -0.2116,0.1924 -0.2021,0 -0.1636,-0.2839 -0.1925,-0.4811 -0.0385,-0.2502 -0.1251,-0.3945 -0.1924,-0.635 -0.13,-0.4523 -0.1396,-0.7265 -0.2117,-1.1932 -0.0818,-0.5195 -0.2454,-0.789 -0.3656,-1.3085 -0.1059,-0.4619 -0.1203,-0.7554 -0.3657,-1.1547 -0.9718,-1.5587 -1.3615,-2.5739 -2.5594,-3.9642 -0.2502,-0.2935 -0.279,-0.5485 -0.5581,-0.8275 -0.1395,-0.4234 -0.3271,-0.6543 -0.3271,-1.0969 0,-0.4282 0.4762,-0.6158 0.9044,-0.6158 0.6399,0 0.5677,0.9333 1.1547,1.1739 0.38,0.1539 0.712,0.1972 0.9044,0.558 0.1203,0.2213 0.1106,0.5389 0.3657,0.5389 0.0336,0 0.0481,-0.0337 0.077,-0.0385 -0.1685,-0.5148 -0.4042,-0.789 -0.4042,-1.3278 0,-0.5052 0.1732,-0.789 0.3657,-1.2509 -0.0289,-0.0048 -0.0434,-0.0385 -0.077,-0.0385 -0.1396,0 -0.2117,0.077 -0.3513,0.077 -0.4377,0 -0.6879,0.0193 -1.1257,0.0193 -0.3079,0 -0.5244,-0.1059 -0.6976,-0.3657 l 0.3272,-1.2893 c -0.0241,-0.2262 0.226,-0.2935 0.4233,-0.4041 -0.0769,-0.0674 -0.1731,-0.1059 -0.1731,-0.2117 0,-0.12 0.2728,-0.6909 0.1154,-0.4811 -0.1684,0.0962 -0.2646,0.2117 -0.4618,0.2117 -0.6688,0 -0.9767,-0.3945 -1.5588,-0.7313 l 0.5581,2.5017 c -0.0337,0.2886 -0.2791,0.4041 -0.5389,0.5196 -0.4522,0.2068 -0.7505,0.2068 -1.2315,0.3271 -0.1973,-0.1732 -0.1059,-0.4137 -0.2117,-0.6543 -0.2262,-0.5003 -0.2647,-0.8275 -0.3657,-1.3663 -0.1732,-0.9141 -0.5533,-1.3471 -1.0007,-2.1553 -0.4089,-0.7361 -0.8996,-0.9718 -1.3663,-1.6742 -0.7216,-1.0873 -1.1257,-1.6935 -1.9051,-2.7326 -0.433,-0.866 -0.9141,-1.1114 -1.4625,-1.8474 -0.577405,-0.7698 -0.909305,-1.198 -1.443305,-2.0014 -0.4907,-0.7361 -0.8948,-1.0584 -1.2894,-1.8474 -0.1395,-0.279 -0.2982,-0.3993 -0.4426,-0.6735 -0.7409,-1.3712 -1.4817,-1.9437 -2.4632,-3.156 -0.4137,-0.51 -0.5099,-0.8901 -0.8275,-1.4626 -0.2261,-0.4041 -0.5099,-0.5292 -0.7697,-0.9044 -0.2406,-0.3464 -0.1828,-0.7265 -0.5773,-0.9237 0.1828,-0.3079 0.5292,-0.1973 0.8659,-0.3079 0.4186,-0.1396 0.7024,-0.2694 0.9237,-0.6543 0.0529,-0.3753 0.0241,-0.5918 0.0241,-0.967 0,-0.6928 -0.3801,-1.0103 -0.6591,-1.6502 -0.7072,-1.6261 -1.6887,-2.1745 -2.5402,-3.714 -0.3993,-0.7265 -0.8082,-1.0296 -1.2123,-1.7512 -0.3609,-0.6495 -0.6351,-1.0344 -1.2509,-1.4433 -0.3031,-0.2021 -0.4041,-0.433 -0.7313,-0.5966 -0.1732,-0.0866 -0.3416,-0.0626 -0.4618,-0.2116 -0.0722,-0.0915 -0.0241,-0.207 -0.077,-0.3079 -0.1155,-0.2117 -0.3271,-0.2166 -0.5581,-0.3079 l 0.0385,-0.077 c 0.2887,-0.0722 0.5196,-0.2743 0.5196,-0.5726 0,-0.0769 -0.0145,-0.1394 -0.0192,-0.2164 0.0962,-0.0722 0.1683,-0.0962 0.2886,-0.0962 0.6351,0 0.8852,0.5965 1.5203,0.5965 0.3849,0 0.5436,-0.3752 0.635,-0.7505 0.4859,0.1202 0.7698,0.2117 1.2701,0.2117 0.4234,0 0.712,-0.2117 0.9237,-0.5773 0.2021,0.1202 0.3127,0.2068 0.5004,0.3464 -0.2454,0.1635 -0.5196,0.2598 -0.5196,0.5532 l 0,0.4715 c 0,0.3897 -0.1347,0.6061 -0.1347,0.9959 0,0.9141 0.2453,1.4336 0.6543,2.2515 0.2742,0.5484 0.4377,0.8852 0.9044,1.2893 0.231,0.2021 0.3464,0.3416 0.5966,0.5196 0.0721,0.0481 0.1732,0.0625 0.1732,0.154 0,0.0673 -0.077,0.0866 -0.077,0.1539 0,0.1155 0.154,0.1347 0.154,0.2502 0,0.178 -0.1925,0.2453 -0.1925,0.4234 0,0.4377 0.4089,0.6061 0.8083,0.7889 1.219,0.5499 1.0478,0.9722 0.9622,-0.0577 0.4473,-0.1107 0.7264,-0.0722 1.1546,-0.2309 0.2502,-0.0915 0.2645,-0.356 0.3271,-0.6158 0.0481,-0.2069 0.154,-0.2839 0.2502,-0.4811 0.0611,-0.2444 0.077,0.4443 0.077,0.4811 0,0.077 -0.0385,0.1155 -0.0385,0.1924 0,0.1299 0.1828,0.1347 0.3127,0.1347 0.1203,0 0.1828,-0.0096 0.3031,-0.0096 0.1683,0 0.2502,0.1876 0.2502,0.356 0,0.1202 -0.154,0.1106 -0.2502,0.1732 -0.2694,0.178 -0.4522,0.255 -0.7698,0.3079 -0.1491,0.024 -0.3656,0 -0.3656,0.154 0,0.2453 0.1972,0.3319 0.2887,0.558 0.2164,0.5244 0.3704,1.1354 0.9429,1.1354 0.4715,0 1.0392,-0.1443 1.0392,-0.6158 0,-0.077 -0.0241,-0.1203 -0.0578,-0.1924 0.1973,-0.077 0.3127,-0.2117 0.3464,-0.4234 0.351205,0.1732 0.611005,0.1059 0.962205,0.2694 0.2069,0.0963 0.2309,0.3657 0.4619,0.3657 0.1587,0 0.2309,-0.1155 0.3896,-0.1155 l 0.3032,0 c 0.0673,0.5147 0.4281,0.9237 0.9429,0.9237 0.5244,0 0.7986,-0.2021 1.3086,-0.3271 l 0.0192,0.0769 c -0.0577,0.1059 -0.0866,0.1829 -0.0962,0.3079 0.0336,0.0097 0.0385,0.0578 0.077,0.0578 0.1395,0 0.2357,-0.13 0.3656,-0.1732 0.4041,0.0673 0.6158,0.4377 0.6158,0.8419 0,0.125 -0.0192,0.1924 -0.0192,0.3175 0,0.5629 0.6158,0.8419 1.1786,0.8419 l 0.4907,0 c 0.1685,0 0.2598,-0.0192 0.4282,-0.0192 0.2406,0 0.1829,0.3464 0.3464,0.5196 0.1972,0.2117 0.3464,0.38 0.3464,0.6735 0,0.1684 -0.178,0.2694 -0.3464,0.2694 -0.5783,0 -0.5388,-0.6533 -0.5388,-0.0192 0,0.1683 -0.1924,0.2164 -0.1924,0.3849 0,0.1154 0.1683,0.0962 0.2309,0.1924 0.1732,0.2646 0.2646,0.4234 0.5003,0.6351 0.0289,-0.0578 0.0578,-0.0963 0.0578,-0.1636 0,-0.0866 -0.0385,-0.1347 -0.0385,-0.2213 0,-0.0915 0.0817,-0.154 0.1732,-0.154 0.0721,0 0.0769,0.0962 0.1347,0.1347 0.2164,0.1491 0.3608,0.2261 0.6158,0.2887 l 0.1154,-0.0193 c 0,-0.2165 0.2454,-0.2454 0.4042,-0.3848 -0.1396,-0.1107 -0.2647,-0.1011 -0.4426,-0.1155 0.0384,-0.1636 0.1972,-0.1877 0.2886,-0.3272 0.0625,-0.0914 0.0818,-0.2116 0.1925,-0.2116 0.2838,0 0.3704,0.3271 0.6542,0.3271 0.3272,0 0.2839,-0.4715 0.5774,-0.6158 l 0.1539,0.0385 c 0.0818,-0.0577 0.1395,-0.1011 0.2309,-0.154 l 0.1347,0 0,0.178 c 0,0.2262 -0.3271,0.2502 -0.3271,0.4763 0,0.2069 0.2117,0.2742 0.2117,0.4811 0,0.2021 -0.3657,0.1636 -0.3657,0.3657 0,0.2213 0.154,0.3126 0.2695,0.5003 0.1347,0.2213 0.1587,0.4859 0.4233,0.5388 l 0.3849,-0.2117 0.154,0 c 0,0.0674 0.0192,0.1107 0.0192,0.178 0,0.1492 -0.077,0.2309 -0.077,0.3801 0,0.0962 0.0578,0.1443 0.0578,0.2406 0,0.2213 -0.2406,0.2549 -0.4234,0.3752 0.0866,0.2453 0.2068,0.3608 0.3079,0.5966 0.0433,0.1058 0.0336,0.2694 0.154,0.2694 0.226,0 0.3367,-0.1011 0.558,-0.154 0.1684,0.6736 0.5196,0.9381 0.8275,1.5588 -0.1299,0.0336 -0.2694,0.0962 -0.2694,0.2309 0,0.1925 0.0529,0.38 0.2309,0.4426 0.0962,0.0337 0.178,-0.0481 0.2694,0 0.1828,0.0962 0.1684,0.2742 0.2502,0.4619 0.0817,0.1828 0.2502,0.2549 0.2502,0.457 l 0,0.4715 c 0,0.1058 -0.0915,0.1876 -0.1973,0.1876 -0.0674,0 -0.101,0.0144 -0.1684,0.0193 0.0144,0.1972 0,0.3079 0,0.5051 0,0.2983 0.1059,0.5821 0.4041,0.6303 0.101,0 0.2502,-0.0434 0.2502,0.0577 0,0.0914 -0.1347,0.101 -0.1347,0.1924 0,0.1828 0.154,0.2598 0.154,0.4426 0,0.2261 -0.2117,0.3127 -0.2117,0.5389 0,0.4858 0.3849,0.7024 0.3849,1.1882 l 0,0.1588 -0.1685,0 c -0.457,0 -0.5773,-0.558 -1.0343,-0.558 l 0,-0.5389 -0.1395,0 c -0.077,0 -0.1203,0.0578 -0.1972,0.0578 -0.2983,0 -0.3994,-0.2502 -0.6351,-0.4234 -0.332,-0.2454 -0.5869,-0.3849 -1.0055,-0.3849 l -0.3031,0 0,0.1732 c 0.231,0.2309 0.3272,0.4523 0.2502,0.7698 l 0.077,0.0192 c 0.0673,-0.0337 0.101,-0.077 0.1732,-0.077 0.3223,0 0.3896,0.4234 0.712,0.4234 0.1636,0 0.2598,-0.0385 0.4233,-0.0385 0.3031,0 0.4523,0.154 0.7313,0.2694 -0.0962,0.2983 -0.3079,0.3993 -0.4041,0.6928 -0.1107,0.3415 -0.077,0.5628 -0.077,0.9237 0,0.5244 0.1732,0.8226 0.4042,1.2894 0.1924,0.3848 0.4522,0.6735 0.8852,0.6735 0.1394,0 0.2068,-0.0962 0.3463,-0.0962 0.2021,0 0.178,0.2694 0.231,0.4618 0.0913,0.3272 0.1828,0.5003 0.3271,0.8082 0.2213,0.4715 0.3416,0.7506 0.6158,1.1932 0.5581,0.8948 1.1979,1.3229 2.2323,1.5587 -0.1299,0.3897 -0.5581,0.4763 -0.5581,0.8852 0,0.1155 0.1106,0.1588 0.1347,0.2694 0.0289,0.1251 0.0144,0.2695 0.1347,0.3079 0.2261,0.077 0.3753,0.0385 0.6158,0.0385 0.0674,0 0.1059,-0.0288 0.1733,-0.0385 0.01,0.0626 0.0192,0.0963 0.0192,0.1588 0,0.178 -0.2309,0.1684 -0.4041,0.2069 -0.3849,0.0817 -0.6111,0.1347 -0.9622,0.3079 -0.1781,0.0866 -0.4041,0.1251 -0.4041,0.3271 0,0.0625 0.0336,0.1347 0.0962,0.1347 0.0673,0 0.1058,-0.0385 0.1732,-0.0385 0.1298,0 0.2164,0.1203 0.2309,0.2502 l -0.2694,0.8083 c -0.1203,0.7216 -0.6543,1.0103 -0.6543,1.7319 0,0.3271 0.0866,0.7313 0.4137,0.7313 0.4811,0 0.6976,-0.3079 1.1643,-0.4234 0,0.0337 0.0385,0.0433 0.0385,0.077 0,0.3608 -0.3657,0.4426 -0.6736,0.635 -0.1635,0.101 -0.3848,0.1155 -0.3848,0.3079 0,0.3319 0.202,0.4859 0.3271,0.789 0.1491,0.3608 0.1636,0.6062 0.1925,1.0007 l 0,-0.154 c 0,0.611 -0.2551,1.3086 -0.866,1.3086 -0.356,0 -0.4811,-0.2983 -0.8275,-0.3848 l -0.1155,0.0192 0,0.2357 c 0,0.3512 0.2694,0.51 0.2694,0.8612 0.3945,-0.1539 0.5725,-0.4041 0.9911,-0.4041 0.4762,0 0.736,0.1924 1.2124,0.1924 0.2741,0 0.4281,-0.077 0.7024,-0.0962 0.005,0.0336 0.0385,0.0433 0.0385,0.077 -0.2561,0.8767 -0.0511,0.4499 0.3656,0.2501 0.4185,0 0.3175,0.789 0.736,0.789 0.1251,0 0.1973,-0.0192 0.3224,-0.0048 -0.0722,-0.1395 -0.1155,-0.2261 -0.1155,-0.38 0,-0.0962 0.0337,-0.1588 0.0963,-0.231 0.0673,0.0529 0.1106,0.1155 0.202,0.1155 0.1636,0 0.2502,-0.0962 0.4137,-0.0962 0.4042,0 0.7121,0.0432 0.9815,0.3464 -0.1011,0.101 -0.154,0.202 -0.154,0.3464 0,0.3126 0.3657,0.3945 0.6736,0.4426 0.1587,0.024 0.2213,0.1732 0.3849,0.1732 0.202,0 0.2597,-0.231 0.4618,-0.231 0.2406,0 0.2983,0.2502 0.5196,0.3464 0.4041,0.178 0.8659,0.3031 0.8659,0.7457 l 0,1.4914 c 0,0.789 0.178,1.2508 0.5774,1.9388 l 0.4233,0.0578 0.3608,0 c 0.1203,0 0.1924,0.0384 0.3128,0.0384 0.3704,0 0.534,-0.2309 0.8852,-0.3463 0.3368,-0.1107 0.7697,-0.1444 0.7697,-0.5004 0,-0.0914 -0.1347,-0.0866 -0.1539,-0.1732 -0.0578,-0.2213 -0.1347,-0.3512 -0.1347,-0.5821 l 0,-0.3801 c 0.0288,-0.2838 0.0769,-0.4474 0.0769,-0.7312 0,-0.5726 -0.1154,-0.9141 -0.3848,-1.4241 -0.1732,-0.3271 -0.3994,-0.4186 -0.6351,-0.6928 -0.3945,-0.4522 -0.558,-0.8274 -0.558,-1.424 0,-0.2502 0.1347,-0.3849 0.1347,-0.635 0.4714,0 1.0584,-0.1251 1.0584,-0.5966 0,-0.1203 -0.0193,-0.1973 -0.0577,-0.3079 -0.2647,0.1972 -0.3032,0.5773 -0.6351,0.5773 -0.4137,0 -0.3464,-0.5629 -0.5003,-0.9429 0.0288,0 0.0432,-0.0193 0.0721,-0.0193 0.2309,0 0.101,0.5004 0.332,0.5004 0.0769,0 0.0481,-0.1203 0.1154,-0.154 0.1444,-0.077 0.3272,-0.1058 0.3272,-0.2694 0,-0.0337 -0.0337,-0.0433 -0.0385,-0.077 -0.2694,0 -0.5196,-0.1828 -0.5196,-0.4522 0,-0.5725 0.3272,-0.8612 0.3272,-1.4337 0,-0.2935 -0.2406,-0.4041 -0.4619,-0.5965 -0.6158,-0.5388 -1.4818,-0.6447 -1.4818,-1.4529 0,-0.5004 0.154,-1.1065 0.6543,-1.1065 0.7505,0 1.0873,0.6302 1.4241,1.3085 0.2309,-0.077 0.3319,-0.2501 0.5773,-0.2501 0.1779,0 0.1828,0.2116 0.2694,0.3656 0.0818,0.1491 0.1732,0.2357 0.1732,0.4089 l 0,0.6062 0,0.1972 c 0.1347,-0.0192 0.2068,0.0193 0.3415,0.0193 0.077,0 0.1203,-0.0385 0.1973,-0.0385 0.1155,0 0.154,0.1347 0.154,0.2502 0,0.1347 -0.0578,0.2117 -0.0578,0.3464 0,0.1876 0.1155,0.2838 0.1155,0.4714 0,0.178 -0.1058,0.2646 -0.1155,0.4427 0.154,0.0384 0.2742,-0.077 0.4042,0.0096 0.1635,0.1106 0.0721,0.3126 0.1731,0.4811 0.154,0.2501 0.3512,0.3848 0.6447,0.3848 0.6735,0 0.9285,-0.5148 1.5492,-0.7697 0.1635,0.3993 0.4569,0.4955 0.7697,0.8082 -0.1924,0.2406 -0.4618,0.1732 -0.712,0.3657 -0.3128,0.2405 -0.2935,0.5628 -0.5773,0.8275 -0.1588,0.149 -0.3705,0.1828 -0.4042,0.4041 0.1876,0.0577 0.3031,0.0962 0.5004,0.0962 0.3079,0 0.4426,-0.2502 0.7505,-0.2502 0.3127,0 0.3415,0.3801 0.4426,0.6736 0.1539,0.4522 0.4426,0.6686 0.4426,1.1497 l 0,0.4907 c 0,0.1589 -0.1539,0.2213 -0.1539,0.3801 0,0.4138 0.4088,0.51 0.5965,0.8853 0.2165,0.4329 0.1347,0.736 0.1347,1.2123 0,0.7746 -0.1732,1.2075 -0.1732,1.9821 0,0.9574 0.3512,1.4674 0.6543,2.3863 0.1155,0.356 0.077,0.5869 0.1925,0.9429 0.2598,0.7842 0.5821,1.1643 1.0199,1.8667 0.3271,0.5243 0.4666,0.8756 0.8852,1.3278 0.4234,0.457 0.8804,0.5966 1.0777,1.1931 -0.0385,0.0193 -0.0674,0.0578 -0.1155,0.0578 -0.8275,0 -1.3616,-0.486 -1.732,-1.2317 l 0.0193,-0.0865 c 0.9489,0 -0.3644,-0.5505 -0.5966,-1.1258 -0.1539,-0.3753 -0.0337,-0.7746 -0.3849,-0.9622 l -0.0769,0.0192 c -0.01,0.0625 -0.0193,0.0962 -0.0193,0.1588 0,0.2646 0.231,0.3752 0.231,0.6398 0,0.2839 -0.4042,0.3223 -0.4042,0.6062 0,0.0962 0.101,0.1251 0.1348,0.2117 l -0.0963,0.4619 c 0.01,0.0769 0.0385,0.1298 0.0963,0.1732 l 0.1539,-0.0385 c 0.2405,0.2405 0.0914,0.5339 0.3079,0.789 0.3368,0.3993 0.8371,0.0336 1.3086,0.2694 0.4715,0.2357 0.7553,0.4041 1.2749,0.4041 0.0818,0 0.1251,-0.0096 0.2069,-0.0192 l 0,-0.2262 c 0,-0.6167 0.5228,0.0956 1.0969,0.4379 0.7697,0.4618 1.1498,0.8082 1.9821,1.1161 0.7216,0.2694 1.0199,0.6494 1.6742,1.0584 0.4907,0.303 0.8419,0.3175 1.3663,0.5773 0.8131,0.4041 1.1931,0.7505 2.0398,1.0584 0.8901,0.3272 1.4337,0.3176 2.3285,0.5966 0.4667,0.1443 0.7265,0.2886 1.1354,0.5581 0.3128,0.2068 0.5341,0.1732 0.8852,0.3463 0.1492,-0.0096 0.2358,-0.0384 0.3849,-0.0384 1.0681,0 1.6646,0.2694 2.7326,0.2694 1.0825,0 1.7031,-0.3128 2.6557,-0.8275 0.5244,-0.2839 0.6928,-0.6399 1.0969,-1.0777 0.2405,-0.2598 0.1347,-0.5965 0.4041,-0.8275 0.1155,-0.0962 0.1155,-0.2886 0.2694,-0.2886 0.0626,0 0.0915,0.0577 0.154,0.0577 0.332,0 0.3367,-0.4186 0.4426,-0.7312 0.1684,-0.486 0.5003,-0.6496 0.712,-1.1162 0.1107,-0.2454 0.0674,-0.4907 0.3079,-0.6158 0.2743,-0.1396 0.4956,0.0337 0.789,-0.0577 0.2165,-0.0674 0.2309,-0.3849 0.4619,-0.3849 0.1635,0 0.2213,0.154 0.3848,0.154 0.1636,0 0.1781,-0.1925 0.231,-0.3464 0.0962,-0.2839 0.3608,-0.356 0.6542,-0.4234 0.3994,-0.0915 0.5774,-0.3079 0.8468,-0.6158 0.0962,-0.1107 0.2694,-0.1203 0.2694,-0.2694 0,-0.1877 -0.0385,-0.2935 -0.077,-0.4811 0.0289,0 0.0434,-0.0193 0.0722,-0.0193 0.1587,0 0.2357,0.1155 0.3945,0.1155 l 0.3945,0 c 0.3031,0 0.4619,-0.1347 0.7649,-0.1347 0.2647,0 0.409,0.1347 0.6736,0.1347 0.3127,0 0.4474,-0.2694 0.7601,-0.2694 0.1973,0 0.2117,0.2887 0.409,0.2887 l 0.3944,0 c 0.3368,0 0.5293,0.0673 0.8516,0.1731 -0.1203,0.1203 -0.2261,0.1395 -0.3657,0.231 0.3945,0.4955 0.5773,1.0969 1.2124,1.0969 0.1107,0 0.1636,-0.0578 0.2743,-0.0578 l 0.4137,0 c 0.4185,0 0.6013,0.2646 0.9477,0.5004 0.2021,0.1347 0.3175,0.226 0.5388,0.3271 0.1251,0.0578 0.3079,0.0529 0.3079,0.1925 0,0.2934 -0.2694,0.3848 -0.4426,0.6158 -0.1732,0.2309 -0.2645,0.3848 -0.4426,0.6158 -0.3896,0.5051 -0.4089,0.9141 -0.8275,1.4048 -0.2116,0.2501 -0.5003,0.3464 -0.5003,0.6687 l 0,0.3271 c 0,0.5965 -0.1395,0.9333 -0.3656,1.4866 -0.1491,0.3657 -0.4426,0.51 -0.4426,0.9045 0,0.2982 0.4041,0.356 0.4041,0.6543 0,0.0481 -0.024,0.0721 -0.0385,0.1154 l 0,0.6591 c 0,0.2454 -0.3464,0.1732 -0.5388,0.3224 -0.154,0.1202 -0.1925,0.2645 -0.1925,0.4618 0,0.178 0.2069,0.1636 0.3849,0.1924 0.1155,0.1155 0.2405,0.1299 0.3464,0.2502 -0.279,0.4185 -0.5004,0.6158 -0.6928,1.0777 0.154,0 0.2502,0.1539 0.2502,0.3079 0,0.1298 -0.0578,0.1924 -0.0578,0.3223 0,0.0626 0.0145,0.0962 0.0193,0.1588 0.2021,0 0.4618,0.0288 0.4618,0.2309 0,0.2117 -0.279,0.1828 -0.4811,0.2502 0.053,0.1058 0.1348,0.1539 0.1348,0.2694 0,0.3704 -0.3079,0.5292 -0.3079,0.8996 l 0,0.1492 0.4233,0 c 0.005,0.024 0.0289,0.0385 0.0289,0.0673 l 0,0.5004 c 0,0.2741 -0.2406,0.3945 -0.4907,0.5003 -0.3079,0.1347 -0.3849,0.4378 -0.3849,0.7698 0,0.1347 -0.0193,0.2116 -0.0385,0.3464 0.0385,0.1587 0.2117,0.202 0.2117,0.3656 0,0.1106 -0.1155,0.1347 -0.1925,0.2117 -0.2213,0.2213 -0.4137,0.2838 -0.6735,0.4618 -0.3945,0.2694 -0.4522,0.587 -0.7505,0.9622 -0.4041,0.51 -0.7168,0.7361 -1.2701,1.0777 -0.2213,0.1347 -0.2742,0.4041 -0.5388,0.4041 -0.2406,0 -0.2791,-0.3272 -0.5196,-0.3272 -0.6591,0 -0.9285,0.7072 -1.0007,1.3664 0.1732,0 0.2935,0.024 0.4426,-0.0578 -0.1106,0.6687 -0.8467,0.8275 -0.8467,1.4962 l 0,0.4667 -0.1155,0.6543 0,0.635 c -0.0673,0.6014 -0.1732,0.9334 -0.1732,1.5395 0,0.51 -0.0384,1.0055 0.4042,1.2509 0.3031,0.1683 0.534,0.101 0.8659,0.1924 0.1732,0.0481 0.4042,0.0674 0.4042,0.2502 0,0.3271 -0.4427,0.2694 -0.6736,0.5003 -0.3704,0.3704 -0.4522,0.7506 -0.6158,1.2509 -1.0789,2.1579 -0.9431,1.4039 -1.501,-0.8275 0.3271,-0.0241 0.4041,-0.3752 0.4811,-0.6928 0.0626,-0.2502 0.2117,-0.3752 0.2117,-0.635 0,-0.1636 -0.1251,-0.3079 -0.2887,-0.3079 -0.1443,0 -0.1443,0.2309 -0.2886,0.2309 -0.1684,0 -0.2117,-0.1732 -0.3657,-0.2309 -0.5099,-0.1877 -0.8275,-0.2887 -1.3711,-0.2887 -0.3512,0 -0.5436,-0.0192 -0.8948,-0.0192 -0.1828,0 -0.2887,0.0577 -0.4715,0.0577 l -0.5292,0 c -0.1924,0 -0.3031,0.0385 -0.4955,0.0385 -0.3223,0 -0.5052,-0.0385 -0.8275,-0.0385 -0.7409,0 -1.1113,0.3031 -1.8186,0.5388 -0.5292,0.1732 -0.8178,0.2791 -1.3085,0.5389 -0.6543,0.3463 -1.0296,0.5388 -1.6935,0.8467 -0.2934,0.1347 -0.457,0.2549 -0.7313,0.4233 -0.2549,0.1588 -0.5388,0.2598 -0.5388,0.5629 l 0,0.4426 c 0,0.5726 -0.4137,0.8323 -0.8467,1.2076 -0.3849,0.3368 -0.5966,0.5484 -0.866,0.9814 -0.2502,0.4041 -0.5196,0.6351 -0.5196,1.1113 l 0,0.9718 c 0.1492,0.0145 0.2309,-0.005 0.3801,-0.005 0.3416,0 0.2165,0.5147 0.2165,0.8563 0,0.4089 0.0433,0.6206 0.1732,1.0103 0.2598,0.3464 0.4571,0.5196 0.789,0.8082 0.1924,0.1684 0.2839,0.3849 0.5388,0.3849 0.2213,0 0.3175,-0.1732 0.5388,-0.1732 0.1492,0 0.3079,0.0818 0.3079,0.231 0,0.3367 -0.2598,0.4618 -0.4618,0.7312 -0.5051,0.6736 -0.9045,1.1209 -0.9045,1.9629 0,0.3608 0.2694,0.5243 0.2694,0.8852 0,0.3223 -0.38,0.3608 -0.5003,0.6543 -0.3993,0.967 -0.7698,1.4769 -1.0584,2.4825 -0.0818,0.2838 -0.2309,0.4329 -0.2309,0.7312 0,0.1732 0.1346,0.2502 0.1346,0.4234 0,0.2838 -0.279,0.3704 -0.3078,0.6543 -0.0578,0.5147 -0.255,0.7841 -0.5389,1.2123 -0.1635,0.2454 -0.2068,0.4619 -0.4426,0.6351 -0.5196,0.3896 -1.0584,0.279 -1.4625,0.789 -0.3175,0.3992 -0.3031,0.7601 -0.3849,1.2701 0,0.866 -0.5581,1.2893 -0.5581,2.1553 0,0.1779 0.0578,0.279 0.0578,0.457 l 0,0.4089 c -0.077,0.077 -0.1251,0.154 -0.2309,0.154 -0.077,0 -0.1155,-0.0385 -0.1925,-0.0385 -0.7072,0 -1.246,0.2934 -1.5587,0.9237 -0.1299,0.2646 -0.0578,0.5004 -0.2695,0.712 -0.2501,0.2502 -0.635,0.2454 -0.6927,0.5966 -0.0481,0.2934 -0.3368,0.3368 -0.4811,0.5966 -0.534,0.9573 -1.2364,1.3037 -1.5395,2.3477 -0.1588,0.5484 -0.3849,0.8275 -0.5004,1.3856 -0.0721,0.356 -0.0288,0.5869 -0.1732,0.9237 -0.1828,0.4281 -0.5917,0.4377 -0.9237,0.7697 -0.3175,0.3175 -0.3656,0.6062 -0.5196,1.0199 -0.2886,0.7698 -0.4762,1.1979 -0.6735,2.0014 l -0.0572,-0.0574 z m -39.815505,35.043 c -0.1877,0.255 -0.3994,0.4041 -0.7216,0.4041 -0.1107,0 -0.1685,-0.077 -0.2791,-0.077 -0.1732,0 -0.2117,0.1877 -0.3079,0.3272 -0.2165,0.3127 -0.3271,0.5196 -0.5965,0.789 -0.1107,0.1107 -0.13,0.2886 -0.2887,0.2886 -0.1011,0 -0.1636,-0.0192 -0.2646,-0.0192 -0.3176,0 -0.4523,0.1973 -0.7361,0.3464 -0.5773,0.3031 -1.0055,0.255 -1.5587,0.5965 -0.1877,0.1155 -0.1396,0.3464 -0.3272,0.4619 -0.2694,0.1684 -0.4667,0.178 -0.7505,0.3271 -0.2309,0.1203 -0.2405,0.332 -0.3656,0.5581 -0.1492,0.2694 -0.3272,0.3801 -0.4234,0.6735 -0.1539,0.4619 -0.1107,0.7505 -0.2502,1.2124 -0.279,0.9189 -0.481,1.4577 -0.481,2.4151 0,0.7073 0.125,1.1065 0.2694,1.7993 0.0913,0.4474 0.0288,0.7457 0.2309,1.1546 0.1924,0.3897 0.5628,0.4426 0.7697,0.8275 -0.6014,0.2983 -0.9189,0.5003 -1.5587,0.5003 l -0.0577,0.077 c 0.0866,0.0434 0.1443,0.0578 0.2405,0.0578 0.611,0 0.9189,-0.3657 1.5299,-0.3657 0.1202,0 0.1683,0.053 0.2887,0.0578 0.1539,-0.01 0.2405,-0.0385 0.3945,-0.0385 0.481,0 0.659,0.3656 1.1257,0.5003 0.5821,0.1684 0.8467,0.4041 1.3856,0.6735 0.2453,0.1203 0.4618,0.077 0.6543,0.2695 0.4377,0.4378 0.5195,0.8708 0.5195,1.4817 0,0.8516 -0.202,1.4578 -0.8467,2.0206 -0.3512,0.3032 -0.5581,0.6158 -1.0199,0.6158 -0.4571,0 -0.611,-0.5099 -0.6735,-0.9622 -0.0482,-0.3367 0.0866,-0.5965 -0.1155,-0.8659 l -0.077,-0.0193 c 0,0.3031 -0.1539,0.4571 -0.1539,0.7602 0,0.5292 0.3945,0.7361 0.5965,1.2219 -0.1251,0.0819 -0.2117,0.154 -0.3656,0.154 -0.6495,0 -0.9478,-0.3512 -1.578,-0.5388 -0.4618,-0.1347 -0.6976,-0.3031 -1.0584,-0.6158 -0.1588,-0.1347 -0.077,-0.4619 -0.2887,-0.4619 -0.3752,0 -0.5917,0.0962 -0.967,0.0962 l -0.4378,0 -2.5209,0.4041 c -0.6842,-0.5576 1.9706,-0.7906 1.9629,-0.7505 0.4714,-0.0721 0.7024,-0.1972 1.1546,-0.3464 -0.0962,-0.2405 -0.2743,-0.3079 -0.4619,-0.481 -0.1347,-0.1251 -0.1588,-0.3464 -0.3463,-0.3464 -0.1251,0 -0.13,0.1635 -0.231,0.2309 -0.1251,0.0818 -0.2309,0.077 -0.3848,0.077 -0.6592,0 -0.7554,-0.7553 -1.3856,-0.9622 -0.0914,0.1635 -0.0962,0.2839 -0.154,0.4618 -0.2886,-0.0625 -0.356,-0.4041 -0.6542,-0.4041 -0.1685,0 -0.0434,0.2647 -0.0963,0.4234 -0.0385,0.1154 -0.1684,0.1251 -0.2309,0.2309 -0.2165,0.3464 -0.3464,0.5822 -0.3464,0.9911 0,0.3897 0.2502,0.5821 0.2502,0.9718 0.1924,-0.077 0.2934,-0.1636 0.4618,-0.2887 0.0722,0.1107 0.1732,0.1732 0.1732,0.3079 0,0.0337 -0.0337,0.0434 -0.0385,0.077 -0.4378,0 -0.6687,0.1973 -1.0968,0.2694 -0.6881,0.1203 -1.0585,0.3079 -1.732,0.5196 -0.3272,0.101 -0.5484,0.0866 -0.8467,0.2501 -0.3272,0.1781 -0.4715,0.3705 -0.8083,0.5389 -0.7842,0.3897 -1.2412,0.5822 -2.0013,1.0007 -0.3705,0.202 -0.5485,0.3993 -0.943,0.5965 -0.279,0.2791 -0.5244,0.3272 -0.8467,0.5389 -1.1739,0.7793 -1.9532,1.0103 -3.1175,1.8089 -0.3175,0.2165 -0.5677,0.2405 -0.866,0.4811 -0.9574,0.7746 -1.3615,1.3566 -2.4247,2.0206 -0.6543,0.4089 -0.8997,0.8178 -1.2701,1.4817 -0.1828,0.3272 -0.4618,0.4715 -0.4618,0.8468 0,0.279 0.2886,0.3752 0.2886,0.6543 0,0.4474 -0.332,0.6206 -0.5388,1.0199 -0.5581,1.0584 -0.9622,1.6983 -0.9622,2.8818 l 0,0.4089 0.2453,1.578 c -0.0047,0.255 -0.0336,0.4378 -0.0336,0.6928 0,0.3175 -0.0049,0.4955 -0.0049,0.813 0,0.101 -0.0528,0.1588 -0.0528,0.2598 l 0,0.5485 c 0,1.1065 -0.231,1.7367 -0.6543,2.7662 -0.3224,0.7939 -0.8131,1.0633 -1.4241,1.6742 -0.3175,0.3176 -0.6158,0.4234 -0.7697,0.842 0.1202,-0.0145 0.1875,-0.01 0.3079,0.005 0,0.0385 0.0192,0.0577 0.0192,0.0962 0,0.2502 -0.279,0.2935 -0.5003,0.4041 -0.2502,0.1251 -0.3128,0.3175 -0.4619,0.5581 -0.2694,0.433 -0.4859,0.6543 -0.6543,1.1354 -0.1828,0.5292 -0.255,0.8467 -0.4233,1.3855 -0.1204,0.3898 -0.2694,0.6062 -0.2694,1.0152 l 0,0.3127 0.1683,0 c 0.0722,0 0.1107,-0.0337 0.178,-0.0578 l 0.1444,0 0,0.5148 c 0,0.2935 -0.1396,0.4908 -0.3753,0.6591 -0.3271,0.2358 -0.3271,0.5773 -0.3271,0.9814 0,0.1203 0.1539,0.1877 0.1347,0.3079 0.0048,0.077 0.0192,0.1204 0.0192,0.1973 0,0.3512 -0.3175,0.4619 -0.5965,0.6687 -0.4186,0.3128 -0.5726,0.6399 -0.6928,1.1546 -0.077,0.332 -0.0626,0.5726 -0.2887,0.8275 -0.1251,0.1444 -0.2886,0.0962 -0.4618,0.1732 -0.2406,0.1107 -0.3272,0.3464 -0.3272,0.6158 0,0.356 -0.1732,0.5581 -0.4233,0.8083 -0.1636,0.1635 -0.3657,0.2309 -0.3657,0.4618 0,0.1684 0.077,0.255 0.077,0.4234 0.3656,0.0577 0.4907,0.4041 0.8563,0.4041 0.0963,0 0.1492,-0.0385 0.2454,-0.0385 0.0769,0 0.1203,0.0145 0.1973,0.0193 -0.0049,0.1058 0,0.1684 0,0.2742 0,0.0721 -0.0289,0.1155 -0.0289,0.1876 0,0.0337 0.0336,0.0481 0.0385,0.077 -0.3609,0.178 -0.6543,0.1732 -0.9237,0.4618 -0.1443,0.154 -0.0241,0.356 -0.1347,0.5389 0.0336,0 0.0432,0.0385 0.077,0.0385 0.2309,0 0.279,-0.2261 0.4618,-0.3657 0.3608,-0.279 0.6158,-0.3896 0.866,-0.7697 l 0.0673,-0.0385 0,0.2454 c 0,0.1972 0.1251,0.2886 0.1251,0.4858 0,0.1204 -0.1539,0.1492 -0.1539,0.2695 0,0.3993 0.2501,0.5917 0.2501,0.991 0,0.1299 -0.0626,0.279 -0.1924,0.279 -0.1877,0 -0.279,-0.1347 -0.4667,-0.1347 -0.0721,0 -0.1155,0.0145 -0.1876,0.0193 l 0,0.3897 c 0,0.1684 -0.2165,0.1876 -0.3849,0.1876 -0.1491,0 -0.2261,-0.0962 -0.3752,-0.0962 -0.4667,0 -0.7217,0.1539 -1.1884,0.1539 l -0.5677,0 c -0.4618,0 -0.6494,0.3176 -1.1016,0.4234 -0.5773,0.1347 -0.919,0.1877 -1.4241,0.4811 -0.2261,0.1299 -0.4426,0.1732 -0.5773,0.4041 -0.3128,0.2839 -0.4041,0.5341 -0.635,0.8852 -0.1925,0.2935 -0.4186,0.433 -0.4619,0.789 -0.0674,0.5485 0.077,0.9093 -0.154,1.4048 -0.3319,0.712 -0.7697,0.9815 -1.3663,1.501 -0.2886,0.2502 -0.5388,0.2983 -0.8467,0.5196 -0.3031,0.2213 -0.3945,0.4475 -0.6735,0.6928 -0.2839,0.2502 -0.5148,0.3224 -0.789,0.5773 -0.4041,0.3753 -0.6543,0.5773 -1.1354,0.8467 -0.4715,0.2647 -0.866,0.5389 -0.866,1.0777 0,0.3271 0.1155,0.5052 0.1155,0.8323 l 0,0.3945 c 0,0.1588 -0.1684,0.1925 -0.2694,0.3127 -0.1828,0.2117 -0.2935,0.3464 -0.5388,0.4811 -0.1011,0.053 -0.2502,0.053 -0.2502,0.1732 0,0.2935 -0.231,0.4234 -0.4811,0.5773 -0.2743,0.1684 -0.433,0.2839 -0.7313,0.4041 -0.1492,0.0578 -0.2839,0.0145 -0.4041,0.1155 -0.2261,0.1924 -0.1203,0.4715 -0.2694,0.7313 -0.3128,-0.101 -0.4282,-0.3657 -0.7554,-0.3657 l -0.5147,0 -0.154,0.0385 c 0.0433,0.2598 -0.2501,0.3464 -0.481,0.4619 -0.1251,0.0625 -0.1059,0.2165 -0.231,0.2886 -0.2213,0.13 -0.3993,0.1155 -0.6591,0.1155 -0.0289,0 -0.0433,-0.0193 -0.0722,-0.0193 -0.178,0.0722 -0.3031,0.077 -0.5003,0.077 0,0.255 -0.1492,0.5196 -0.4041,0.5196 -0.2839,0 -0.4282,-0.1347 -0.712,-0.1347 -0.409,0 -0.4523,0.5052 -0.8468,0.6158 l -1.2508,-0.2309 c -0.1347,0.0769 -0.1347,0.2309 -0.2694,0.3079 -0.2839,0.1684 -0.5052,0.1347 -0.8324,0.1347 -0.3126,0 -0.4858,-0.0193 -0.7986,-0.0193 -0.4858,0 -0.7312,-0.2694 -1.2171,-0.2694 -0.1443,0 -0.2213,0.0578 -0.3656,0.0578 -0.2695,0 -0.5389,-0.1684 -0.5389,-0.4378 l 0,-0.3945 c 0,-0.2454 -0.1876,-0.3512 -0.3463,-0.5341 -0.2358,-0.2741 -0.4138,-0.5195 -0.7747,-0.5195 l -0.4907,0 c -0.6639,0 -1.0054,0.2454 -1.6405,0.4426 -0.1876,0.0577 -0.3175,0.005 -0.5003,0.0769 -0.1251,0.0482 -0.1299,0.1781 -0.2117,0.2887 -0.1588,0.2117 -0.3656,0.2887 -0.635,0.2887 -0.6977,0 -1.0537,-0.3849 -1.7512,-0.3849 -0.2454,0 -0.1588,0.4811 -0.4042,0.4811 -0.2261,0 -0.2309,-0.2887 -0.4041,-0.4234 -0.1492,-0.1154 -0.3464,0 -0.4811,-0.1347 -0.1347,-0.1347 -0.0529,-0.303 -0.1154,-0.4811 -0.1011,-0.2742 -0.3224,-0.3945 -0.6158,-0.4426 l -0.0193,-0.077 c 0.024,-0.101 0.0578,-0.1635 0.0578,-0.2694 0,-0.1443 -0.1011,-0.2261 -0.231,-0.2886 0.5773,-0.5774 1.376,-0.1251 1.9629,-0.7121 -0.2213,-0.1972 -0.2983,-0.4088 -0.2983,-0.7071 0,-0.4554 -0.2984,0.0274 -0.5292,0.226 -0.2213,0.1925 -0.0385,0.4571 -0.077,0.7505 -0.0962,-0.005 -0.1491,0 -0.2454,0 -0.3607,0 -0.4281,-0.3992 -0.6013,-0.712 -0.2743,-0.4955 -0.3031,-0.8371 -0.5966,-1.3278 -0.2116,-0.356 -0.2694,-0.635 -0.6158,-0.866 -0.4763,-0.3175 -0.8563,-0.3271 -1.4288,-0.3271 l -0.3223,0 c -0.0097,0.0722 -0.0193,0.1154 -0.0193,0.1876 0,0.2416 0.2679,0.722 0.2117,0.7361 -0.3271,-0.0674 -0.5244,-0.101 -0.8275,-0.2502 -0.1732,-0.0866 -0.2117,-0.2886 -0.4041,-0.2886 -0.0866,0 -0.13,0.0385 -0.2165,0.0385 -0.0337,0 -0.0578,-0.0193 -0.0914,-0.0193 -0.2262,-0.0336 -0.3753,0.077 -0.5966,0.0289 -0.0337,0.2694 0.0193,0.6446 -0.2501,0.6446 -0.2502,0 -0.231,-0.4233 -0.4811,-0.4233 -0.2694,0 -0.2694,0.4426 -0.5389,0.4426 -0.2646,0 -0.3752,-0.1828 -0.5965,-0.3271 -0.3031,-0.2021 -0.5196,-0.3512 -0.6351,-0.6928 -0.0722,-0.2165 -0.3656,-0.231 -0.3656,-0.4619 0,-0.2646 0.2549,-0.4426 0.5196,-0.4426 0.0096,-0.077 0.0192,-0.1202 0.0192,-0.1972 0,-0.3705 -0.1828,-0.5822 -0.4426,-0.842 -0.4186,-0.4185 -0.6591,-0.6735 -1.1739,-0.9622 -0.8419,-0.4714 -1.2412,-1.1161 -2.2034,-1.1161 -0.3079,0 -0.3656,0.3175 -0.6254,0.4811 -0.2261,0.1443 -0.4475,0.1636 -0.5581,0.4041 -0.2309,0.4907 -0.1732,1.1931 -0.7168,1.1931 l -0.6639,0 c -0.3657,0 -0.5678,0.0963 -0.9334,0.0963 l -0.4907,0 c -0.154,0 -0.2453,0.0384 -0.3992999,0.0384 -0.8563,0 -1.2316,-0.6735 -2.0879,-0.6735 -0.2117,0 -0.3272,0.0385 -0.5388,0.0385 -0.3224,0 -0.433,-0.3271 -0.7554,-0.3271 l -0.3753,0 c -0.2741,0 -0.4137,0.1539 -0.6879,0.1539 -0.3224,0 -0.5003,-0.1539 -0.8227,-0.1539 l -0.7217,0 c -0.6494,0 -0.9429,-0.5293 -1.2363,-1.1162 -0.1443,-0.2934 -0.4426,-0.3945 -0.4426,-0.7216 0,-0.1829 0.1251,-0.356 0.3079,-0.356 0.1058,0 0.1635,0.0577 0.2694,0.0577 0.0913,0 0.1395,-0.0577 0.2309,-0.0577 0.2598,0 0.3223,0.2982 0.3656,0.558 0.1348,-0.2357 0.4042,-0.303 0.4042,-0.5773 0,-0.077 -0.0578,-0.1155 -0.0578,-0.1924 0,-0.0866 0.0578,-0.1251 0.0578,-0.2117 0,-0.1684 -0.0819,-0.255 -0.154,-0.4041 -0.1732,0.1299 -0.279,0.2694 -0.5003,0.2694 -0.1396,0 -0.2069,-0.1155 -0.3464,-0.1155 -0.3224,0 -0.3945,0.3175 -0.6735,0.4811 l -0.077,-0.0192 0,-0.5821 c 0,-0.4667 0.2549,-0.7216 0.4041,-1.1691 0.1106,-0.4522 0.5436,-0.5485 1.0007,-0.6351 0.4522,-0.0866 0.6975,-0.2116 1.1546,-0.2116 -0.0481,-0.1925 0.0193,-0.4619 -0.1732,-0.4619 -0.2935,0 -0.4378,0.1924 -0.7313,0.1924 -0.2116,0 -0.3319,-0.0673 -0.5388,-0.1154 l 0,-0.1587 c 0,-1.1279 0.1158,-0.2458 -0.4811,0.3511 -0.1588,0.1588 -0.3127,0.2069 -0.4234,0.4041 -0.1539,0.2791 -0.1203,0.563 -0.4233,0.7121 -0.1299,-0.178 -0.178,-0.4234 -0.4041,-0.4234 -0.4234,0 -0.5726,0.3416 -0.9767,0.4811 l 0,-0.9285 c 0,-0.8323 -0.4474,-1.2605 -0.4474,-2.0928 0,-0.2646 -0.0481,-0.4281 0.0578,-0.6735 0.1491,-0.3416 0.4907,-0.3272 0.8274,-0.4811 0.1972,-0.0866 0.2838,-0.2309 0.5004,-0.2502 0.4907,-0.0481 0.8275,0.0962 1.2508,-0.1539 l -0.0192,-0.077 c -0.408,-0.1865 -0.656,-0.154 0.0144,-0.154 0.5148,0 0.7265,-0.4618 1.2412,-0.4618 l 0.3753,0 c 0.1417,0 2.0538,0.0497 0.8131,-0.0962 0,-0.077 -0.0193,-0.1203 -0.0193,-0.1973 0,-0.3319 0.3897,-0.3559 0.6543,-0.5532 -0.077,-0.077 -0.1395,-0.1348 -0.2502,-0.1348 -0.5052,0 -0.688,0.5196 -1.1931,0.5196 -0.4923,0 -0.5483,0.4042 -1.1354,0.4042 -0.0769,0 -0.1203,-0.0337 -0.1924,-0.0578 l -2.1938,0.5196 c -0.0096,-0.0336 -0.0577,-0.0385 -0.0577,-0.077 0,-0.1539 0.1828,-0.1876 0.3271,-0.2309 0.1732,-0.0529 0.2406,-0.2117 0.4234,-0.2117 0.2068,0 0.3175,0.1155 0.5243,0.1155 0.0434,0 0.0674,-0.0144 0.1107,-0.0193 0.0048,-0.0625 0.0193,-0.0962 0.0193,-0.1587 0,-2.3379 -1.809,0.1972 -1.7897,0.1203 0.0866,-0.3608 0.1155,-0.5917 0.3079,-0.9045 0.0817,-0.1347 0.2164,-0.1587 0.2694,-0.3079 0.1395,-0.3753 0.024,-0.6976 0.3079,-0.9814 0.0914,-0.0914 0.2021,-0.0578 0.3079,-0.1348 0.2117,-0.1539 0.356,-0.2886 0.6206,-0.2886 l 0.5484,0 c 0.3513,0 0.4811,-0.3656 0.8324,-0.3656 0.1298,0 0.1347,0.1539 0.1924,0.2694 0.2478,0.4956 0.3366,0.8482 0.4234,0.1539 l -0.0963,-0.3464 c 0.0337,-0.2838 0.3945,-0.202 0.6543,-0.3079 0.3416,-0.1395 0.4955,-0.3079 0.8083,-0.5003 1.4344,-0.8718 -0.2889,-0.1518 -0.712,0.0577 -0.2647,0.13 -0.3368,0.4426 -0.6351,0.4426 -0.4186,0 -0.635,-0.4474 -0.635,-0.8659 0,-0.6783 0.3848,-0.9911 0.5965,-1.6358 0.2117,-0.6398 0.2309,-1.4818 0.9045,-1.4818 0.2742,0 0.3993,0.1877 0.6158,0.3464 l 0.0962,-0.0192 c -0.2694,-0.3608 -0.4907,-0.5484 -0.9237,-0.6928 0.1058,-0.4233 0.2405,-0.6543 0.5003,-1.0007 0.1444,-0.1924 0.2406,-0.3079 0.2887,-0.5388 0.0336,-0.1732 -0.0048,-0.4233 0.1732,-0.4233 0.1828,0 0.2405,0.2116 0.4234,0.2116 0.1683,0 0.2549,-0.0962 0.4233,-0.0962 0.2069,0 0.4041,0.1396 0.4041,0.3464 0,0.1299 -0.1684,0.1396 -0.2309,0.2502 0.4666,0.077 0.6735,0.2886 1.0969,0.4811 0.2934,0.1299 0.4315,0.2001 0.7058,0.3685 1.1312,0.6879 0.1862,0.1681 -0.2054,-0.3685 -0.0963,-0.1347 -0.231,-0.1972 -0.231,-0.3657 0,-0.7582 0.9552,-0.7028 -0.3271,-0.4426 -0.1396,0.0289 -0.2021,0.1347 -0.3464,0.1347 -0.4041,0 -0.4619,-0.4233 -0.7505,-0.712 -0.2165,-0.2165 -0.4811,-0.3127 -0.4811,-0.6158 0,-0.303 0.3223,-0.3608 0.5003,-0.5965 0.2887,-0.3753 0.4138,-0.5918 0.6351,-1.0392 0.0866,0.0626 0.1732,0.1203 0.1732,0.2309 0,0.2213 -0.1732,0.3175 -0.1732,0.5388 0,0.053 0.0192,0.0866 0.0385,0.1347 0.0472,0.2968 0.7022,1.5462 0.5796,1.1605 -0.1546,-0.4869 -0.4449,-0.7541 -0.4449,-1.2952 0,-0.2741 0.2694,-0.38 0.2694,-0.6542 0,-0.1059 -0.1732,-0.1059 -0.1732,-0.2117 0,-0.1972 0.2164,-0.2213 0.3271,-0.3849 0.101,-0.1491 0.0674,-0.4041 0.2502,-0.4041 0.0646,0 2.1801999,1.6225 0.5773,0.0192 -0.1058,-0.1058 -0.2405,-0.0962 -0.3271,-0.2117 0.2934,-0.2934 0.3896,-0.4858 0.5773,-0.8659 0.2309,0.202 0.2598,0.4089 0.4426,0.6543 0.1491,0.202 0.3511,0.2357 0.4618,0.4618 0.1949999,0.39 0.1154999,0.7385 0.1154999,0.0866 0.224,-0.46 0.7932,-0.4967 0.0385,-0.356 -0.3415999,0 -0.4281999,-0.3608 -0.5580999,-0.6736 -0.0769,-0.1875 -0.2501,-0.2549 -0.2501,-0.4618 0,-0.0289 0.0192,-0.0481 0.0192,-0.077 0.2165,-0.2164 0.2405,-0.5388 0.5388,-0.5388 0.9525999,0 1.3421999,0.8275 2.2947999,0.8275 l 0.1877,0 0,-0.154 -0.2309,-0.0577 -0.3801,0 c -0.4138,0 -0.5581,-0.3368 -0.9285,-0.5196 -0.3175,-0.1587 -0.6351,-0.1106 -0.8275,-0.4041 0.5532,-0.3656 0.8034,-0.6976 1.0969,-1.2893 0.3945,-0.789 0.8852,-1.02 1.5203,-1.655 0.1731,0.1732 0.1683,0.332 0.2886,0.5388 0.1587,0.2743 0.3464,0.4234 0.3464,0.7409 0,0.279 -0.2117,0.409 -0.2117,0.688 0,0.0337 0.0193,0.0577 0.0193,0.0914 0.2116,-0.024 0.4329,-0.101 0.5388,0.077 0.1298,0.2165 0.0192,0.4137 0.0962,0.6543 0.1491,-0.0722 0.3079,-0.1107 0.3079,-0.2695 0,-0.4041 -0.4715,-0.5195 -0.4715,-0.9237 0,-0.1347 0.0097,-0.2116 0.0097,-0.3464 0,-0.2501 -0.1829,-0.356 -0.2502,-0.5965 -0.0962,-0.3319 -0.1732,-0.534 -0.4041,-0.789 0.2501,-0.2502 0.4811,-0.2838 0.7505,-0.5196 0.356,-0.3079 0.5292,-0.6928 1.0007,-0.6928 0.3079,0 0.3607,0.3464 0.6542,0.4426 -0.024,0.3032 -0.1924,0.4475 -0.1924,0.7505 0,0.6706 0.5003,-0.3527 0.5003,-0.558 0,-0.4715 -0.3897,-0.6254 -0.5388,-1.0777 0.2406,-0.1202 0.3079,-0.3849 0.5773,-0.3849 0.4042,0 0.5436,0.2935 0.9237,0.4811 -0.0481,-0.2886 -0.1107,-0.457 -0.2694,-0.6927 -0.1058,-0.1588 -0.3079,-0.1925 -0.3079,-0.3849 0,-0.3608 0.2453,-0.534 0.5196,-0.7698 0.0866,-0.0721 0.077,-0.2309 0.1924,-0.2309 0.4282,0 0.2983,0.6928 0.6928,0.8467 -0.077,-0.4618 -0.2358,-0.6831 -0.4426,-1.0969 0.38,-0.0913 0.5292,-0.3079 0.866,-0.5003 0.4618,-0.2694 0.8322,-0.4619 0.9622,-0.9814 l 0.1491,0 c 0.3656,0 0.1973,0.7505 0.5629,0.7505 0.0625,0 0.0962,-0.0337 0.1539,-0.0578 -0.0769,-0.0673 -0.1299,-0.1154 -0.2116,-0.1732 l 0,-0.3896 c 0,-0.0722 -0.0385,-0.1155 -0.0385,-0.1877 0,-0.433 0.2694,-0.6543 0.2694,-1.0872 0,-0.1299 -0.0962,-0.1876 -0.0962,-0.3176 0,-0.2886 0.4041,-0.279 0.5196,-0.5388 0.2645,-0.5869 0.5196,-0.8707 0.9044,-1.3856 0.2117,-0.1202 0.4041,-0.1009 0.6351,-0.1731 0.2694,-0.0818 0.3848,-0.332 0.3848,-0.6158 0,-0.2261 -0.3271,-0.255 -0.3271,-0.4812 0,-0.0432 0.0144,-0.0721 0.0192,-0.1154 l 0.2261,0 c 0.1107,0 0.1636,0.0577 0.2743,0.0577 0.2694,0 0.4233,-0.077 0.6928,-0.077 0.202,0 0.2982,0.154 0.5003,0.154 0.2357,0 0.3656,-0.2453 0.3656,-0.4811 0,-0.433 -0.433,-0.6639 -0.8659,-0.6928 l -0.0193,-0.1154 c 0.1828,-0.231 0.4234,-0.2117 0.6735,-0.3657 0.4811,-0.2982 0.5774,-0.6735 0.9815,-1.0776 0.3656,-0.3657 0.6543,-0.4763 1.0391,-0.8083 0.178,-0.1539 0.2117,-0.3127 0.3272,-0.5195 0.2021,-0.3608 0.4281,-0.4908 0.635,-0.8468 0.2502,-0.4281 0.4089,-0.6639 0.5774,-1.1354 0.0721,-0.202 0.0625,-0.4329 0.2694,-0.4811 l 0.9044,0.1925 0.3801,0 c 0.3175,0 0.4907,-0.1155 0.7938,-0.2117 0.2539,-0.0807 1.2347,-0.6313 1.2696,-0.5357 0.0858,0.2348 0.1611,0.478 0.4094,0.478 l 0.3945,0 c 0.7842,0 1.3663,0.005 1.9292,-0.5581 0.2261,-0.2261 0.2453,-0.4378 0.4041,-0.712 0.4426,-0.1588 0.6014,-0.4282 1.02,-0.6351 1.3614,-0.6783 2.1408,-1.2508 2.9443,-2.5402 0.5195,-0.8371 1.1497,-1.0391 2.0398,-1.4817 0.4281,-0.2117 0.7842,-0.1972 1.0584,-0.5774 0.2646,-0.3656 0.356,-0.8274 0.8083,-0.8274 0.2645,0 0.4089,0.1154 0.6735,0.1154 0.3752,0 0.6543,0.0481 0.943,-0.1924 0.2164,-0.178 0.1009,-0.6158 0.3848,-0.6158 0.1972,0 0.1876,0.3271 0.3849,0.3271 0.3319,0 0.457,-0.2694 0.6735,-0.5195 0.101,-0.1203 0.1106,-0.3079 0.2695,-0.3079 0.1202,0 0.1875,0.0577 0.3078,0.0577 0.3657,0 0.3801,-0.4378 0.5581,-0.7505 0.3464,-0.5966 0.5629,-0.9237 0.8852,-1.5395 0.1491,-0.2839 0.2598,-0.4811 0.5389,-0.6351 0.1683,-0.0914 0.2117,-0.2886 0.4041,-0.2886 0.1972,0 0.303,0.0769 0.5003,0.0769 0.5677,0 0.8564,-0.2741 1.3471,-0.558 0.4811,-0.6447 0.8275,-1.0103 1.3663,-1.6165 0.2213,-0.2502 0.2453,-0.4907 0.5003,-0.712 0.4042,-0.3512 0.8179,-0.3753 1.0969,-0.8275 0.2694,-0.433 0.4955,-0.6351 0.7121,-1.0969 0.1106,-0.2357 0.101,-0.4282 0.2886,-0.6158 0.1732,-0.1732 0.3945,-0.0721 0.6351,-0.1347 0.4714,-0.1251 0.7745,-0.2165 1.1161,-0.5581 0.4522,-0.4522 0.5966,-0.8804 1.1739,-1.1546 0.5292,-0.2502 0.9188,-0.1107 1.4625,-0.3272 0.3079,-0.1202 0.4619,-0.2453 0.7505,-0.4041 0.3176,-0.178 0.4041,-0.433 0.7313,-0.5966 0.7505,-0.3752 1.1594,-0.6591 1.7512,-1.2508 0.3271,-0.3272 0.4618,-0.5726 0.8467,-0.8275 0.6928,-1.0392 0.8323,-1.8089 1.6742,-2.7134 0.255,-0.2742 0.534,-0.3031 0.7698,-0.5965 0.813,-1.0056 1.3952,-1.5251 1.8859,-2.7134 0.4041,-0.9767 0.4666,-1.5829 0.789,-2.5979 0.0769,-0.2406 0.2501,-0.3224 0.3271,-0.5581 0.4089,-1.2268 1.1546,-1.8185 1.1546,-3.1127 l 0,-0.5436 c 0,-0.3609 0.0048,-0.5677 0.0048,-0.9286 0,-0.4715 0.3945,-0.6398 0.5726,-1.0728 0.0673,-0.1636 0,-0.2983 0.0577,-0.4618 0.0481,-0.1347 0.1972,-0.1396 0.2501,-0.2695 0.1684,-0.3848 0.2214,-0.6206 0.2695,-1.0391 0.0384,-0.332 0,-0.5388 0.1154,-0.8467 0.0866,-0.231 0.2838,-0.2743 0.4234,-0.4811 0.2165,-0.3176 0.1347,-0.5966 0.1347,-0.9815 0,-0.6206 -0.1924,-0.9574 -0.1924,-1.578 0,-0.279 0.3752,-0.2886 0.6543,-0.2886 0.2116,0 0.3319,0.0962 0.5435,0.0962 l 0.51,0 c 0.1636,0 0.2358,-0.1588 0.2935,-0.3079 0.2165,0.0721 0.3319,0.1539 0.5581,0.1539 0.8611,0 1.2941,-0.4667 1.9821,-0.9814 0.4619,-0.3464 0.6928,-0.5773 1.1162,-1.0007 0.4618,-0.9237 0.9381,-1.323 1.5202,-2.1745 0.3416,-0.5004 0.38,-0.8756 0.6735,-1.4048 0.2791,-0.5004 0.664,-0.6351 0.943,-1.1354 0.1732,-0.3079 0.1058,-0.5533 0.1732,-0.9045 0.1395,-0.712 0.3079,-1.1065 0.3079,-1.8281 0,-0.6303 -0.0722,-0.9863 -0.1155,-1.6165 l 0.1972,-1.5203 0,-0.967 c 0,-0.1251 -0.0481,-0.2069 -0.1202,-0.3031 l 0.077,-0.0192 c -0.0481,-0.2166 -0.1347,-0.3272 -0.1347,-0.5485 0,-0.6591 0.0047,-1.0873 0.3271,-1.6646 0.1347,-0.2405 0.3127,-0.3175 0.4426,-0.558 0.2021,-0.3705 0.2694,-0.6399 0.5966,-0.9045 0.2838,-0.2261 0.5147,-0.2694 0.8275,-0.4619 0.5147,-0.3175 0.7264,-0.6014 1.0969,-1.0776 0.7841,-1.0103 1.5202,-1.2557 2.4824,-2.0976 0.4234,-0.3705 0.6783,-0.5437 1.0777,-0.9429 0.4762,-0.4764 0.7841,-0.9237 1.4529,-0.9237 0.3223,0 0.4762,0.2501 0.7986,0.2501 0.1684,0 0.2598,-0.0577 0.4281,-0.0577 l 0.4523,0 c 0.2132,0 2.9772,0.4885 2.468,0.6158 -0.6606,-0.126 -0.8659,-0.2983 -1.4433,-0.3464 -0.4618,-0.0385 -0.712,-0.1539 -1.1738,-0.1539 -0.3416,0 -0.6207,-0.0434 -0.8468,0.2117 -0.1635,0.1876 -0.0914,0.3848 -0.1924,0.6158 -0.2502,0.5724 -0.5388,0.8803 -0.5388,1.501 0,0.3752 0.1058,0.5725 0.1732,0.9429 0.1251,0.6639 0.1972,1.0777 0.5773,1.6358 0.1587,0.2309 0.4185,0.1443 0.635,0.3271 0.3753,0.3175 0.534,0.7313 1.02,0.7313 0.5051,0 0.7024,-0.3849 1.1738,-0.5581 0.1925,-0.0722 0.178,-0.3656 0.3849,-0.3656 0.2213,0 0.4378,-0.0241 0.5388,0.1731 0.1347,0.2598 0.1299,0.4427 0.1732,0.7313 0.0193,0.154 0.0144,0.3657 0.1732,0.3657 0.1491,0 0.2165,-0.1011 0.3464,-0.1733 0.0336,0.1348 0.077,0.2165 0.077,0.3561 0,0.1635 -0.077,0.2501 -0.077,0.4137 0,0.1732 0.0866,0.2646 0.0866,0.4378 l 0,1.1835 c 0,0.3079 -0.3752,0.3512 -0.6831,0.3993 0.0865,0.178 0.1924,0.2646 0.1924,0.4619 0,0.2982 -0.2309,0.433 -0.2309,0.7312 0,0.2453 0.1587,0.4089 0.3849,0.5004 -0.0242,0.0528 -0.0819,0.1443 -0.1348,0.1732 -0.0241,0.1635 -0.005,0.2549 -0.005,0.4185 0,0.3752 -0.0193,0.6303 0.178,0.9478 0.2213,0.3608 0.4859,0.4715 0.6928,0.8467 0.1924,0.3464 0.3079,0.5966 0.6543,0.789 0.3175,0.178 0.7697,0.1732 0.7697,0.5388 0,0.2406 -0.2309,0.3176 -0.2501,0.5581 0.1539,0.0481 0.2213,0.1395 0.3656,0.2117 0.1106,-0.4571 0.2453,-0.7361 0.5966,-1.0392 0.3079,-0.2694 0.6735,-0.279 0.8275,-0.6543 0.2357,-0.5677 0.5676,-0.8082 1.0776,-1.1546 0.2983,-0.2021 0.3656,-0.4378 0.6543,-0.6543 0.0915,0.1636 0.1588,0.3272 0.3464,0.3272 0.3175,0 0.5629,-0.1396 0.6928,-0.4234 0.0818,-0.1828 -0.005,-0.3512 0.1154,-0.5196 0.0626,-0.0915 0.1781,-0.053 0.2887,-0.077 0.2358,-0.0577 0.2983,-0.2309 0.4426,-0.4233 0.173205,-0.2358 0.259805,-0.5196 0.558105,-0.5196 0.4282,0 0.3608,0.7697 0.789,0.7697 0.1106,0 0.1154,-0.1443 0.2116,-0.1924 0.2667,-0.1334 1.2315,-0.4811 0.4427,-0.4811 -0.1732,0 -0.2791,-0.0674 -0.4042,-0.1924 l 0.077,-0.154 c -0.0481,-0.0722 -0.0866,-0.1155 -0.1539,-0.1732 0.3079,-0.178 0.5388,-0.2117 0.8082,-0.4426 0.1973,-0.1684 0.1636,-0.5196 0.4234,-0.5196 0.0818,0 0.1106,0.0962 0.1924,0.0962 0.077,0 0.1155,-0.0577 0.1924,-0.0577 0.1383,0 0.0866,0.0849 0.0866,-0.1732 0,-0.1588 0.2454,-0.1058 0.3368,-0.2309 0.6983,-0.9522 0.0606,-0.4276 -0.5196,-0.2887 -0.0144,-0.0433 -0.0385,-0.0673 -0.0385,-0.1154 0,-0.2502 0.2887,-0.3272 0.2887,-0.5774 0,-0.2742 -0.3464,-0.3463 -0.3464,-0.6206 l 0,-0.3945 c 0,-0.1972 0.1203,-0.3031 0.2502,-0.4474 0.0962,0.1684 0.1107,0.3079 0.2694,0.4234 0.005,-0.0337 0.0385,-0.0434 0.0385,-0.077 0,-0.2646 -0.1347,-0.409 -0.1347,-0.6735 0,-0.2358 0.1828,-0.3224 0.2694,-0.5388 0.1912,-0.4685 0.8179,-1.5709 0.8179,-0.4812 0.0288,0.01 0.0337,0.0578 0.0673,0.0578 0.3512,0 0.4618,-0.3079 0.7505,-0.5003 0.2405,-0.1589 0.3079,-0.3272 0.4426,-0.5966 0.0338,-0.0676 0.0578,-0.104 0.0578,0.005 0,0.3463 -0.154,0.534 -0.154,0.8804 0,0.1443 0.01,0.3464 0.154,0.3464 0.101,0 0.1635,-0.0481 0.2501,-0.0962 0.005,0.0288 0.0385,0.0432 0.0385,0.077 0,0.226 -0.2453,0.2645 -0.3849,0.4426 -0.2164,0.2742 -0.1924,0.5195 -0.3849,0.8082 -0.0721,0.1106 -0.2694,0.077 -0.2694,0.2117 0,0.1202 0.077,0.1876 0.077,0.3079 0,0.1635 -0.2357,0.0913 -0.3849,0.1539 -0.2597,0.1107 -0.1635,0.4426 -0.3848,0.6158 -0.1059,0.0818 -0.3272,0.0144 -0.3272,0.154 0,0.1106 0.0962,0.1587 0.0962,0.2694 0,0.3415 -0.1347,0.5244 -0.1347,0.866 0,0.0336 0.053,0.024 0.077,0.0385 l -0.0577,0.2309 0.0192,0.077 c 0.3464,-0.1155 0.4619,-0.3753 0.5966,-0.7121 0.0529,-0.1395 0.2117,-0.1251 0.3079,-0.2309 0.332,-0.356 0.4955,-0.6399 0.9237,-0.8852 0.0577,0.1202 0.0385,0.2453 0.1539,0.3079 0.1829,0.101 0.5196,-0.0433 0.5196,0.1683 0,0.1059 -0.0144,0.1685 -0.005,0.2743 l -0.1107,0.0193 c -0.0866,-0.13 -0.1298,-0.2887 -0.2886,-0.2887 -0.1203,0 -0.2887,-0.005 -0.2887,0.1154 0,0.0626 0.0578,0.0914 0.0578,0.154 0,0.1347 -0.1347,0.1636 -0.2117,0.2694 l 0.077,0.0385 0,0.3079 c -0.1491,-0.01 -0.2454,-0.0481 -0.3657,-0.1347 -0.1394,0.178 -0.2886,0.2213 -0.4811,0.3464 0.1203,0.0192 0.1877,0.0192 0.3079,0 0.01,0.0336 0.0385,0.0577 0.0385,0.0962 0,0.2453 -0.5003,0.1395 -0.5003,0.3849 0,0.1299 0.1347,0.1683 0.1732,0.2886 l -0.077,0.0193 c -0.1395,-0.1396 -0.2646,-0.1924 -0.4619,-0.1924 -0.2549,0 -0.3607,0.2116 -0.6157,0.2116 -0.1251,0 -0.1444,-0.1732 -0.2695,-0.1732 -0.1876,0 -0.3126,0.1106 -0.4041,0.2695 l 0.0192,0.0769 0.077,0.0193 c 0.0866,-0.0434 0.1347,-0.0626 0.231,-0.077 0,0.0336 0.0384,0.0432 0.0384,0.077 0,0.2549 -0.4041,0.2645 -0.4041,0.5195 0,0.0818 0.1347,0.0867 0.1347,0.1684 0,0.1443 -0.0192,0.2262 -0.005,0.3705 0.2405,-0.0915 0.2694,-0.3175 0.4281,-0.5196 0.154,-0.0481 0.2213,-0.1539 0.3849,-0.1539 0.2165,0 0.3223,0.1346 0.5388,0.1346 0.255,0 0.3993,-0.0769 0.6543,-0.0769 0.077,0 0.1203,0.024 0.1924,0.0577 -0.1779,0.3031 -0.5292,0.1972 -0.8082,0.4041 0.0722,0.1444 0.1347,0.2261 0.1347,0.3849 0,0.2887 -0.3272,0.3223 -0.5773,0.4619 -0.0818,0.0432 -0.0625,0.1394 -0.077,0.2309 -0.0385,0.2117 -0.2502,0.2309 -0.4041,0.3849 l 0.077,0.0577 0.2886,-0.1155 0.1828,0 c 0.005,0.0914 0,0.1395 0,0.2309 0,0.1588 0.1444,0.2261 0.1444,0.3849 0.0337,-0.005 0.0577,0 0.0914,0 0.1491,0 0.3127,-0.0818 0.3127,-0.2309 0,-0.178 -0.1299,-0.2598 -0.231,-0.4041 0.1973,-0.0962 0.3464,-0.2117 0.3464,-0.4234 0,-0.0385 -0.0577,-0.0385 -0.0577,-0.077 0,-0.0673 0.0818,-0.0769 0.1347,-0.1154 -0.024,-0.0577 -0.077,-0.0866 -0.077,-0.154 0,-0.0481 0.0241,-0.0722 0.0385,-0.1154 l 0.1492,0 c 0.077,0 0.1155,0.0625 0.178,0.0962 0.0385,-0.1155 0,-0.1877 0,-0.3079 0,-0.1107 0.1395,-0.1155 0.1924,-0.2117 l 0.154,0.0385 c 0.0914,-0.0289 0.1443,-0.053 0.2309,-0.0962 0.0145,0.0529 0.0385,0.0962 0.0385,0.1539 0,0.1972 -0.0577,0.3031 -0.0577,0.5004 0,0.9374 0.3443,0.2202 0.5388,-0.2694 l -0.0385,-0.154 c 0.1539,-0.0577 0.3849,0.01 0.3849,-0.1539 0,-0.1973 -0.1059,-0.2887 -0.154,-0.4812 0.2021,-0.0337 0.4041,-0.125 0.4041,-0.3271 -0.1003,-0.9961 -0.4702,-0.0297 -0.6735,0.154 -0.101,0.1154 -0.2357,0.0625 -0.3849,0.0962 l 0.0193,-0.077 c -0.1876,-0.0914 -0.3368,-0.1251 -0.4426,-0.3079 0.0914,-0.0337 0.1588,-0.0626 0.2501,-0.0962 -0.101,-0.0481 -0.1636,-0.0722 -0.2501,-0.1347 0.0914,-0.154 0.2646,-0.1347 0.4426,-0.1347 l 0,-0.154 -0.0385,-0.077 0,-0.1684 c 0.0962,0.005 0.1539,-0.005 0.2501,-0.005 0,-0.0385 0.0193,-0.0578 0.0193,-0.0963 0,-0.0385 -0.0577,-0.0385 -0.0577,-0.077 0,-0.1106 0.1251,-0.1346 0.1731,-0.2309 l 0.1829,0.0193 0,0.2742 c 0,0.2646 0.2935,0.3223 0.5292,0.4378 0.0192,-0.0385 0.0577,-0.0674 0.0577,-0.1155 0,-0.1684 -0.077,-0.255 -0.077,-0.4233 0,-0.077 0.077,-0.1059 0.077,-0.1828 0,-0.1444 -0.0144,-0.2406 -0.0577,-0.3753 l 0.0192,-0.0722 c 0.1781,0.005 0.2839,0.01 0.4619,0 0,0.2839 -0.1155,0.4426 -0.1155,0.7265 0,0.2598 0.0914,0.4041 0.154,0.6543 0.1438,0.1918 0.5428,-0.0385 0.7312,-0.0385 0.1347,0 0.2117,-0.1347 0.2117,-0.2694 0,-0.1251 -0.1154,-0.1732 -0.1154,-0.2983 0,-0.1877 0.0625,-0.4138 0.2501,-0.4138 0.1588,0 0.2502,0.1636 0.2502,0.3223 l 0,0.409 c 0.0337,0.01 0.0626,0.024 0.0962,0.0385 0.0666,-0.0493 0.5581,-0.5089 0.5581,-0.3079 0,0.1636 -0.1684,0.2021 -0.2694,0.3272 -0.101,0.1298 -0.077,0.2549 -0.077,0.4233 0,0.1636 -0.2021,0.2021 -0.3657,0.2117 l -0.0192,0.077 c 0.1588,0.0336 0.2309,0.1828 0.2502,0.3464 l 0.3031,0 c 0.1683,0 0.1202,-0.2502 0.2165,-0.3849 0.2213,-0.3079 0.5003,-0.3368 0.8467,-0.5004 0.0718,-0.0328 0.3079,-0.5467 0.3079,-0.3031 0,0.5533 -0.6158,0.7313 -0.6158,1.2846 0,0.1924 0.1876,0.2549 0.2309,0.4426 -0.0336,0 -0.0433,0.0385 -0.077,0.0385 -0.1539,0 -0.1972,-0.1396 -0.3079,-0.2502 l -0.0769,-0.0192 c 0,0.1779 -0.1732,0.2453 -0.1732,0.4233 0,0.0625 0.0577,0.0866 0.0577,0.1491 l 0,0.1781 c -0.1202,-0.0385 -0.1924,-0.077 -0.3079,-0.1347 0.0241,0.1202 0.01,0.1875 0,0.3079 -0.0673,0.005 -0.1058,0.0192 -0.1732,0.0192 -0.2549,0 -0.1732,-0.3801 -0.1732,-0.635 -0.0432,-0.01 -0.0721,-0.0241 -0.1154,-0.0385 -0.0144,0.0914 -0.0144,0.1394 0,0.2309 -0.1588,0.0336 -0.2406,0.0962 -0.4042,0.0962 -0.3461,0 0.0825,0.0142 0.1155,0.3272 0.0145,0.1202 -0.0481,0.2117 0.0192,0.3079 0.13,0.1779 0.3079,0.2598 0.3079,0.4811 0,0.1009 0.005,0.2501 -0.0962,0.2501 -0.0962,0 -0.1443,-0.0626 -0.2309,-0.0962 l -0.1347,0.0192 c -0.01,0.0578 -0.0385,0.0963 -0.0385,0.154 0,0.0337 0.0337,0.0433 0.0385,0.077 l 0,0.1539 c -0.0433,-0.005 -0.0674,-0.0192 -0.1106,-0.0192 -0.2166,0 -0.3609,0.1876 -0.3898,0.4041 -0.0673,0.005 -0.1009,0.0192 -0.1683,0.0192 -0.1299,0 -0.1828,-0.0962 -0.3127,-0.0962 -0.2165,0 -0.3031,0.1925 -0.5196,0.2117 -0.418,0.0377 -2.3583,0.6832 -0.9478,0.6832 0.9045,0 1.3134,-0.6639 2.2179,-0.6639 0.1203,0 0.1539,0.1154 0.2694,0.1539 0.0962,-0.6014 0.7986,-0.5003 1.2508,-0.9044 -0.0721,-0.0722 -0.1443,-0.1155 -0.2502,-0.1155 -0.01,-0.1203 -0.0144,-0.1877 0,-0.3079 0.0241,-0.0241 0.0434,-0.0481 0.0578,-0.077 0.0626,0.1587 0.2165,0.2117 0.3849,0.2117 0.0481,0 0.0962,-0.0289 0.0962,-0.077 0,-0.1107 -0.0962,-0.1588 -0.0962,-0.2694 0,-0.0481 0.0385,-0.0722 0.0577,-0.1155 0.2165,0.0722 0.3801,0.0193 0.5581,0.154 0.0529,0.0385 0.0625,0.1347 0.1347,0.1347 0.2069,0 0.4282,0.0481 0.5195,-0.1347 0.1252,-0.5674 -0.008,-0.2846 -0.1394,-0.2887 l -0.2262,0 c -0.005,-0.0433 -0.0192,-0.0722 -0.0192,-0.1154 0,-0.0385 0.0288,-0.0626 0.0385,-0.0962 -0.0337,-0.005 -0.0385,-0.0578 -0.077,-0.0578 -0.101,0 -0.1299,0.1347 -0.2309,0.1347 -0.1107,0 -0.1925,-0.0914 -0.1925,-0.202 0,-0.1347 0.053,-0.231 0.154,-0.3176 0.1636,0.1059 0.2261,0.2887 0.4233,0.2887 0.1204,0 0.1588,-0.0962 0.2502,-0.1732 0.9708,-0.8321 0.1925,0.1625 0.1925,0.7698 0,0.1875 0.1539,0.2742 0.1539,0.4618 0,0.2453 -0.3319,0.2694 -0.5773,0.2694 0,0.2454 -0.3319,0.2502 -0.4041,0.4811 -0.1925,0.6255 -0.7457,0.7361 -1.0777,1.3086 0.053,0.0385 0.1347,0.0481 0.1347,0.1155 0,0.2453 -0.2453,0.3175 -0.4618,0.4233 -0.1348,0.0674 -0.1299,0.2165 -0.2502,0.3079 -0.2502,0.1925 -0.4666,0.1972 -0.789,0.2502 l -0.077,-0.0193 c 0.1011,-0.3079 0.3416,-0.3993 0.4619,-0.6927 0.0422,-0.1691 -0.1859,0.0962 -0.3464,0.0962 -0.1299,0 -0.1828,-0.1347 -0.2309,-0.2502 l -0.0385,-0.0145 0,0.308 c 0,0.2838 -0.2261,0.3752 -0.3849,0.611 -0.433,0.6302 -0.712,1.0488 -0.712,1.8089 0,1.0055 0.9381,1.2701 1.501,2.1168 0.1251,0.5004 0.3175,0.7457 0.3175,1.246 l 0,0.9911 c 0,0.506 0.3476,0.4571 -0.1251,0.4571 -0.0914,0 -0.1347,0.101 -0.1347,0.1924 0,0.1972 0.2358,0.2021 0.3656,0.3464 0.0866,-0.0674 0.0963,-0.1588 0.0963,-0.2694 0.0337,-0.01 0.0577,-0.0385 0.0962,-0.0385 0.1396,0 0.178,0.1443 0.3079,0.1924 0.2983,0.1106 0.4907,0.077 0.8082,0.077 0.6123,0 -0.1793,0.3744 -0.4233,0.8082 -0.3079,0.5485 -0.4523,0.8949 -0.9045,1.3471 -0.2502,0.2502 -0.1972,0.5629 -0.4811,0.7698 -0.2983,0.2164 -0.4955,0.3511 -0.6735,0.6735 -0.5966,1.068 -1.1594,1.525 -1.7512,2.5979 -0.2646,0.4763 -0.635,0.7072 -0.635,1.2509 0,0.2886 0.1443,0.4233 0.1924,0.712 -0.5004,0.1636 -0.6351,0.5484 -0.9045,1.0007 -0.0914,0.1587 -0.2357,0.2213 -0.3271,0.3848 -0.3897,0.154 -0.4811,0.4474 -0.8083,0.6928 -0.1779,0.1299 -0.4618,0.1203 -0.4618,0.3464 0,0.077 0.0385,0.1155 0.0385,0.1925 0,0.202 -0.2406,0.2116 -0.4042,0.3271 -0.3945,0.2838 -0.6735,0.5725 -0.6735,1.0584 0,0.3849 0.3272,0.5532 0.3272,0.9381 0,0.0626 -0.0144,0.0962 -0.0193,0.1588 -0.1154,-0.2935 -0.2453,-0.5773 -0.5581,-0.5773 -0.1683,0 -0.226,0.1395 -0.3848,0.1924 -0.356,0.1251 -0.7121,0.2934 -0.7121,0.6736 -0.4088,0 -0.639805,0.2501 -0.885205,0.5773 -0.1876,0.2501 -0.3656,0.4137 -0.3656,0.7312 0,0.2598 0.1539,0.3945 0.1539,0.6543 0,0.3223 -0.2934,0.4234 -0.4618,0.6928 -0.2838,0.457 -0.356,0.7745 -0.5581,1.2701 -0.303,0.7313 -0.4762,1.1354 -0.7312,1.9051 -0.2502,0.7553 -0.587,1.0728 -0.8853,1.7897 -0.1875,0.457 -0.2453,0.7553 -0.5388,1.1546 -0.2598,0.3561 -0.4907,0.5966 -0.712,0.9815 z m -76.0131,73.7231 c 0.2213,0.053 0.2742,0.255 0.5003,0.2887 0.0096,-0.1636 0.0481,-0.3657 0.2117,-0.3657 0.356,0 0.5148,0.2262 0.8082,0.4234 0.4667,0.3175 0.7939,0.5869 0.9045,1.1354 0.0914,0.4474 0.2069,0.7986 0.6158,1.0006 0.3801,0.1877 0.8852,0.2262 0.8852,0.6544 0,0.1346 -0.0962,0.1924 -0.1155,0.3271 0.1636,0.053 0.2502,0.1347 0.4234,0.1347 0.1011,0 0.1492,-0.0577 0.2502,-0.0577 0.1877,0 0.1732,0.2454 0.2309,0.4233 0.0577,0.1781 0.1732,0.2694 0.1732,0.4571 l 0,0.178 -0.2453,0 c -0.154,0 -0.2166,-0.154 -0.3705,-0.154 -0.2357,0 -0.3415,0.1925 -0.5773,0.1925 -0.1058,0 -0.1636,-0.0193 -0.2694,-0.0193 -0.231,0 -0.4811,0.005 -0.5581,-0.2117 -0.1905,-0.5305 -0.6543,-0.523 -0.6543,0.0578 0,0.1828 0.0722,0.2838 0.1155,0.4618 -0.3233,0.5542 0.029,-0.0385 0.2694,-0.0385 0.6014,0 0.8034,0.6351 1.4048,0.6351 0.1539,0 0.2309,-0.077 0.3849,-0.077 0.0384,0 0.0433,0.0481 0.0769,0.0577 -0.092,0.2764 -1.2479,0.6543 -0.2598,0.6543 0.2887,0 0.51,-0.2501 0.51,-0.5388 0,-0.0577 -0.0385,-0.0962 -0.0385,-0.154 0,-0.0817 0.0674,-0.1202 0.0962,-0.1924 -0.9463,-0.4731 -0.2784,-0.2887 0.3079,-0.2887 0.0915,0 0.13,-0.0721 0.1925,-0.1346 l 0.0769,0.0577 0,0.1491 c 0,0.1925 -0.1539,0.2742 -0.1539,0.4667 0,0.6014 0.5966,0.8227 0.5966,1.424 0,0.2454 -0.4042,0.2358 -0.4042,0.4811 0,0.1059 0.1059,0.1347 0.154,0.231 -0.1251,0.0962 -0.2502,0.0769 -0.4041,0.1346 0.0818,0.1251 0.1058,0.2598 0.2501,0.3079 0.1444,0.0482 0.3657,0 0.3657,0.154 0,0.2887 -0.0433,0.4618 -0.1925,0.712 -0.2645,-0.2645 -0.3656,-0.4426 -0.635,-0.712 l -0.077,0.0385 c 0.0289,0.2454 0.1155,0.3705 0.1155,0.6158 0,0.0385 -0.0289,0.0626 -0.0385,0.0962 l -0.2261,0 c -0.3464,0 -0.534,-0.1539 -0.8804,-0.1539 -0.255,0 -0.3801,0.1635 -0.6255,0.2116 -0.2309,0.0481 -0.3945,-0.0528 -0.6158,0.0385 -0.3607,0.1492 -0.5388,0.3272 -0.9237,0.4234 -0.303,0.0722 -0.3656,0.3271 -0.6158,0.5003 -0.3079,0.2117 -0.5676,0.231 -0.9429,0.231 -0.4715,0 -0.7024,-0.2887 -1.1739,-0.2887 -0.1624,0 -0.51,1.2621 -0.51,0.5196 l 0,-0.2887 c 0,-0.1635 0.2021,-0.202 0.2021,-0.3656 0,-0.0336 -0.0337,-0.0481 -0.0385,-0.077 -0.202,0.1203 -0.4811,0.1299 -0.4811,0.3656 0,0.2383 0.3919,0.1004 0,0.231 0.024,0.1058 0.077,0.1588 0.077,0.2694 0,0.2983 -0.2743,0.3897 -0.3656,0.6735 -0.0866,0.2598 -0.1107,0.5966 -0.3849,0.5966 -0.178,0 -0.2262,-0.2309 -0.4041,-0.2309 -0.5052,0 -0.5726,0.712 -1.0777,0.712 -0.3416,0 -0.5821,-0.0914 -0.8082,-0.3464 l 0,-0.3897 c 0,-0.0914 0.0577,-0.1395 0.077,-0.2261 l -0.4764,0 c -0.2838,0 -0.3752,0.2742 -0.659,0.3271 0.0144,-0.1875 0.1683,-0.2405 0.2886,-0.3848 0.1203,-0.1444 0.1925,-0.3079 0.3849,-0.3079 0.1395,0 0.2117,0.0625 0.3464,0.0962 0.0866,-0.2598 0.1828,-0.4185 0.3849,-0.5966 0.2598,-0.2309 0.5724,-0.1491 0.789,-0.4234 0.2068,-0.2597 0.1683,-0.5003 0.2501,-0.8274 0.0578,-0.2213 0.1347,-0.3464 0.1347,-0.5774 0,-0.1731 -0.1539,-0.2501 -0.1539,-0.4233 0,-0.2742 0.3319,-0.3031 0.4618,-0.5388 0.1732,-0.3127 0.2935,-0.6543 0.6543,-0.6543 0.2742,0 0.4378,0.1107 0.6351,0.3079 l 0.077,-0.0193 c -0.1829,-0.4426 -0.0963,-0.7505 -0.231,-1.2123 -0.0818,-0.2887 -0.3079,-0.4089 -0.3079,-0.7121 0,-0.1573 0.3501,-0.5155 0.4811,-0.3848 l 0,0.2501 -0.077,0.3849 c 0.0048,0.0433 0.0144,0.0722 0.0193,0.1155 0.6398,-0.1588 1.1161,-0.5966 1.1161,-1.2509 0,-0.7408 -0.3367,-1.1065 -0.635,-1.7896 -0.1059,-0.2454 -0.3272,-0.3464 -0.3272,-0.6159 0,-0.2068 0.1155,-0.3126 0.1155,-0.5195 0,-0.077 -0.0385,-0.1155 -0.0385,-0.1925 0,-0.7312 0.4138,-1.4817 1.145,-1.4817 0.154,0 0.2598,0.01 0.4138,0.0192 z m 10.0452,1.1161 c -0.1924,0.332 -0.3848,0.587 -0.7697,0.6159 l 0.0192,0.0865 0.4523,0 c 0.1986,0.8842 0.5099,0.0161 0.5099,-0.4329 0,-0.1348 -0.1106,-0.1829 -0.2117,-0.2695 z m -4.2528,3.5601 0.3848,0 c -0.0144,-0.1347 -0.0192,-0.3223 -0.1539,-0.3079 -0.1491,0.0144 -0.1636,0.1684 -0.2309,0.3079 z m -8.3134,-3.2137 -0.2309,-0.0577 -0.1347,0.0193 0,0.2357 c 0,0.2838 0.1779,0.5725 0.4618,0.5725 0.1829,0 0.2695,-0.2021 0.2695,-0.3849 0,-0.1491 -0.231,-0.1587 -0.231,-0.3079 0,-0.0385 -0.1154,-0.0481 -0.1347,-0.077 z m -3.0982,7.8515 c -0.0819,0.0434 -0.154,0.0962 -0.154,0.1924 0,0.0674 0.0625,0.0963 0.0962,0.154 0.0674,-0.077 0.1155,-0.1443 0.1155,-0.2502 0,-0.0432 -0.0385,-0.0625 -0.0577,-0.0962 z M 119.1676,114.13485 c -0.0433,0.5388 -0.5484,0.6495 -0.789,1.1354 0.1251,0.0288 0.178,0.1154 0.3079,0.1154 0.1443,0 0.1732,-0.149 0.2887,-0.2309 0.3271,-0.2357 0.5195,-0.5003 0.5195,-0.9044 0,-0.1347 -0.1924,-0.1155 -0.3271,-0.1155 z m -13.538,-103.383 0,-0.4955 c -0.1925,0.0241 -0.2983,0.0818 -0.4908,0.0577 l -0.0384,0.077 c 0.2309,0.1732 0.3175,0.3705 0.3848,0.6543 l 0.077,0.0193 c 0.0192,-0.1251 0.0674,-0.1877 0.0674,-0.3128 z m -2.7615,-1.0536 c -0.0626,0 -0.1011,0.0337 -0.154,0.0578 0.2069,0.1347 0.2791,0.279 0.4811,0.4233 0.01,-0.0336 0.0577,-0.0385 0.0577,-0.0769 0,-0.2165 -0.1683,-0.4042 -0.3848,-0.4042 z m 13.0088,17.2617 -0.077,0.0193 c 0.1492,0.1492 0.1973,0.3464 0.4042,0.3464 0.1587,0 0.255,-0.0818 0.3656,-0.1925 -0.2069,-0.1876 -0.4234,-0.1058 -0.6928,-0.1732 z m 4.9072,4.1567 c 0,0.3801 0.356,0.6351 0.7361,0.6351 l 0.2068,0 0,-0.9237 c -0.1202,-0.1828 -0.3608,-0.0193 -0.5581,0.0769 -0.149,0.0722 -0.3848,0.0433 -0.3848,0.2117 z m 5.3883,-1.4817 c 0.0601,0.0284 0.3234,0.1539 0.1325,0.1539 l -0.1518,0 0.0385,0.077 -0.1732,0.2309 c 0.3416,0.3849 0.6976,0.5388 1.2124,0.5388 l 0,0.154 c -0.0625,0.1539 -0.1492,0.2309 -0.2117,0.3848 l 0.0769,0.3464 c -0.0336,0.1444 -0.2116,0.1636 -0.2116,0.3079 0,0.2454 0.2213,0.3417 0.4426,0.4426 0.1443,0.0674 0.1347,0.2262 0.2117,0.3657 0.1107,0.202 0.3271,0.2598 0.3271,0.4907 0,0.2646 -0.101,0.5677 -0.3656,0.5677 -0.2838,0 -0.4089,-0.2117 -0.6928,-0.2117 l -0.0192,-0.1155 c 0.0384,-0.125 0.1058,-0.1924 0.1924,-0.2886 -0.0625,-0.024 -0.0914,-0.0577 -0.1587,-0.0577 l -0.4523,0 c -0.0673,0 -0.1154,0.0288 -0.178,0.0385 -0.0241,-0.154 -0.1155,-0.231 -0.1155,-0.3849 0,-0.0674 0.077,-0.0866 0.077,-0.154 0,-0.2838 -0.4282,-0.1587 -0.6735,-0.2886 -0.3272,-0.1732 -0.3945,-0.5774 -0.7698,-0.5774 -0.1443,0 -0.2069,0.1155 -0.3512,0.1155 -0.0337,0 -0.0578,-0.0048 -0.0914,0 l 0,-0.1587 c 0,-0.1396 0.1299,-0.2021 0.1299,-0.3416 0,-0.1828 0.005,-0.2838 0.005,-0.4666 0,-0.1141 -0.2233,-0.4502 -0.07,-0.3374 0.0867,0.0638 0.1499,0.1304 0.2672,0.1304 l 0.1492,0 c 0.024,-0.1635 0.0433,-0.2645 0.1155,-0.4041 l -0.0193,-0.077 c -0.1539,-0.0096 -0.3271,-0.0769 -0.3271,-0.2309 0,-0.0577 0.0673,-0.0673 0.1154,-0.0962 l 0.3849,0.1347 c 0.0193,-0.077 0.0578,-0.1155 0.0578,-0.1924 0,-0.1203 -0.154,-0.1492 -0.154,-0.2695 0,-0.1058 0.0577,-0.1635 0.0577,-0.2694 0,-0.1395 -0.077,-0.2069 -0.0962,-0.3464 0.3945,-0.1635 0.6351,-0.1924 1.0199,-0.3848 0.154,0.1539 0.0578,0.3271 0.0578,0.5388 0,0.2502 0.0866,0.4185 0.2117,0.6351 z m 1.1161,0.0962 c -0.1443,0 -0.3656,-0.0481 -0.3656,0.0962 0,0.1251 0.0673,0.1877 0.0962,0.3079 0.1443,-0.0818 0.2935,-0.2357 0.2694,-0.4041 z m -8.0439,11.527 c -0.0193,-0.2454 -0.0241,-0.3897 -0.1155,-0.6158 -0.2935,0.1059 -0.2502,0.4378 -0.5003,0.6158 -0.0338,-0.0722 -0.0385,-0.1539 -0.1155,-0.1539 -0.1011,0 -0.1396,0.1058 -0.2309,0.1347 -0.2213,0.0769 -0.4715,0.1443 -0.4715,0.3801 l 0,0.5243 0.1587,0 c 0.1203,0 0.1732,-0.0962 0.2935,-0.0962 0.1876,0 0.255,0.1924 0.4426,0.1924 0.2502,0 0.231,-0.4233 0.4811,-0.4233 -0.005,-0.077 -0.01,-0.1155 -0.0192,-0.1925 l 0.077,-0.3656 z m 1.4818,0 -0.9045,0.1925 c 0,0.0337 -0.0193,0.0481 -0.0193,0.0818 0,0.1924 0.1348,0.2838 0.1348,0.4762 0.0288,0.0049 0.0432,0.0385 0.0769,0.0385 0.0674,0 0.1059,-0.0385 0.1732,-0.0385 0.1732,0 0.2453,0.13 0.4041,0.1925 0.2406,0.0962 0.4234,0.0433 0.6543,0.1732 0.1251,0.0673 0.1444,0.2309 0.2887,0.2309 0.077,0 0.1155,-0.0385 0.1924,-0.0385 0.5388,0 0.6207,0.5629 1.02,0.9237 0.0914,-0.0577 0.1154,-0.1443 0.1154,-0.2549 l 0,-0.433 c 0,-0.2358 0.154,-0.3513 0.154,-0.587 0,-0.0962 -0.0144,-0.1491 -0.0193,-0.2454 -0.0433,-0.0144 -0.077,-0.0385 -0.1155,-0.0577 -0.2965,0.3753 -0.4907,1.3006 -0.4907,0.3513 0,-0.2551 -0.0769,-0.4523 0.0674,-0.6592 0.1395,-0.202 0.4811,-0.1732 0.4811,-0.4234 0,-0.2405 -0.1828,-0.4426 -0.4234,-0.4426 -0.1972,0 -0.2646,0.1684 -0.4041,0.3079 -0.1251,0.1251 -0.2694,0.101 -0.4426,0.1347 -0.1491,0.0289 -0.154,0.2502 -0.3079,0.2502 -0.2261,0 -0.4089,-0.1587 -0.635,-0.1732 z m -2.521,-6.5429 c -0.0962,-0.0626 -0.1636,-0.1155 -0.279,-0.1155 -0.053,0 -0.1059,0.0241 -0.1059,0.077 0,0.0626 0.0337,0.0963 0.0578,0.154 l -0.0963,0.0577 c 0.3495,0.1941 0.1629,0.0991 -0.0962,0.2502 0.0625,0.1732 0.1059,0.2742 0.1732,0.4426 0.101,-0.101 0.0866,-0.2887 0.2309,-0.2887 0.101,0 0.1492,0.077 0.2502,0.077 0.053,0 0.1155,-0.024 0.1155,-0.077 0,-0.1202 -0.0578,-0.1876 -0.0578,-0.3079 0,-0.1058 -0.1154,-0.1924 -0.1924,-0.2694 z m 12.8934,3.156 c -0.0674,0.0915 -0.1925,0.1155 -0.1925,0.2309 0,0.2213 0.3657,0.2166 0.3657,0.4379 l 0,0.3126 c 0.0914,0.0289 0.1443,0.0578 0.2405,0.0578 0.154,0 0.2502,-0.0097 0.3945,-0.0578 -0.077,-0.1587 -0.1347,-0.2549 -0.2502,-0.3848 l -0.1539,0.0384 c -0.2357,-0.1683 -0.1876,-0.4426 -0.4041,-0.635 z m 6.6391,12.1236 c -0.1155,0 -0.1684,0.0722 -0.2502,0.154 0.1059,0.1491 0.1684,0.2598 0.2117,0.4426 l 0.077,0.0192 c 0.1828,-0.1828 0.3079,-0.2983 0.3849,-0.5388 -0.1588,-0.0529 -0.255,-0.077 -0.4234,-0.077 z m -4.5223,-3.4831 c 0.1924,-0.0962 0.3849,-0.1877 0.3849,-0.4041 0,-0.1444 -0.1876,-0.332 -0.2887,-0.231 -0.178,0.178 -0.0385,0.3945 -0.0962,0.6351 z m 7.0817,9.5257 c -0.101,-0.0481 -0.1443,-0.1107 -0.2309,-0.1732 -0.077,0.2309 -0.0192,0.3849 -0.077,0.6158 l 0.0385,0.1539 c 0.1924,-0.1154 0.2839,-0.2405 0.3849,-0.4426 l -0.1155,-0.1539 z m 10.5456,-1.7704 c -0.0962,0 -0.1443,0.0673 -0.2116,0.1346 0.0817,0.0578 0.125,0.154 0.2309,0.154 0.0673,0 0.1347,-0.0481 0.1347,-0.1155 0,-0.0913 -0.0625,-0.1731 -0.154,-0.1731 z"
     class="fil1 str0" /></svg>